<svg xmlns="http://www.w3.org/2000/svg" width="245.113" height="146.156" viewBox="0 0 245.113 146.156">
    <defs>
        <style>
            .prefix__cls-2{fill:#a5622a}.prefix__cls-3{fill:#563e39}.prefix__cls-5{fill:#47332f}.prefix__cls-6{fill:#371f18}.prefix__cls-7{fill:#a58a73}.prefix__cls-8{fill:#7d4516}.prefix__cls-9{fill:#709b98}.prefix__cls-10{fill:#95c1bf}.prefix__cls-11{fill:#bad8d6;opacity:.6}.prefix__cls-12{fill:#6a534d}.prefix__cls-13{fill:#703c16}.prefix__cls-15{fill:#edd2ce}.prefix__cls-16{fill:#f8d496}.prefix__cls-17{fill:#1d1300}.prefix__cls-18{fill:#5d4038}.prefix__cls-19{fill:#6d4d42}.prefix__cls-20{fill:#d3623a}.prefix__cls-21{fill:#4f332f}
        </style>
    </defs>
    <g id="prefix__Group_3183" data-name="Group 3183" transform="translate(-11011.082 -3146.375)">
        <g id="prefix__Group_514" data-name="Group 514" transform="translate(11011.082 3146.375)">
            <g id="prefix__Group_506" data-name="Group 506" transform="translate(18.067 22.698)">
                <path id="prefix__Path_920" d="M108.241 694.862h-1.408V678.32A12.332 12.332 0 01119.152 666h7.158v1.408h-7.158a10.924 10.924 0 00-10.911 10.911z" data-name="Path 920" transform="translate(-106.833 -666.001)" style="fill:#8c5742"/>
            </g>
            <path id="prefix__Path_925" d="M317.257 654.976L125.965 656.8l-6.786 136.78 189.6-.015z" class="prefix__cls-2" data-name="Path 925" transform="translate(-83.731 -647.8)"/>
            <path id="prefix__Path_926" d="M264.5 664.75h-47.871L130.75 785.824h101.013z" class="prefix__cls-2" data-name="Path 926" transform="translate(-79.012 -643.814)"/>
            <g id="prefix__Group_507" data-name="Group 507" transform="translate(35.941 28.327)">
                <path id="prefix__Rectangle_604" d="M0 0H29.051V0.364H0z" class="prefix__cls-3" data-name="Rectangle 604" transform="translate(34.804 107.137)"/>
                <path id="prefix__Path_927" d="M123.616 746.1h-4.068l-.019.364h4.087z" class="prefix__cls-3" data-name="Path 927" transform="translate(-119.529 -638.963)"/>
                <path id="prefix__Rectangle_605" d="M0 0H29.051V0.366H0z" class="prefix__cls-3" data-name="Rectangle 605" transform="translate(4.92 107.137)"/>
                <path id="prefix__Path_928" d="M193.344 746.1H186.7v.366h9.22-2.579z" class="prefix__cls-3" data-name="Path 928" transform="translate(-92.133 -638.963)"/>
                <path id="prefix__Rectangle_606" d="M0 0H29.052V0.364H0z" class="prefix__cls-3" data-name="Rectangle 606" transform="rotate(-.111 55348.562 -33335.91)"/>
                <path id="prefix__Path_929" d="M123.428 736.807h-3.42l-.018.364h3.438z" class="prefix__cls-3" data-name="Path 929" transform="translate(-119.341 -642.753)"/>
                <path id="prefix__Path_930" d="M152.075 736.807h-29.05v.364h29.05z" class="prefix__cls-3" data-name="Path 930" transform="translate(-118.104 -642.753)"/>
                <path id="prefix__Rectangle_607" d="M0 0H29.051V0.364H0z" class="prefix__cls-3" data-name="Rectangle 607" transform="translate(64.687 94.053)"/>
                <path id="prefix__Rectangle_608" d="M0 0H6.642V0.364H0z" class="prefix__cls-3" data-name="Rectangle 608" transform="translate(94.57 94.053)"/>
                <path id="prefix__Rectangle_609" d="M0 0H29.05V0.364H0z" class="prefix__cls-3" data-name="Rectangle 609" transform="translate(34.804 94.053)"/>
                <path id="prefix__Rectangle_610" d="M0 0H29.051V0.363H0z" class="prefix__cls-3" data-name="Rectangle 610" transform="translate(64.687 80.97)"/>
                <path id="prefix__Path_931" d="M192.562 727.514h3.362-9.221v.363h5.858z" class="prefix__cls-3" data-name="Path 931" transform="translate(-92.133 -646.544)"/>
                <path id="prefix__Rectangle_611" d="M0 0H29.05V0.364H0z" class="prefix__cls-3" data-name="Rectangle 611" transform="translate(34.804 80.97)"/>
                <path id="prefix__Rectangle_612" d="M0 0H29.05V0.363H0z" class="prefix__cls-3" data-name="Rectangle 612" transform="translate(4.92 80.97)"/>
                <path id="prefix__Path_932" d="M123.24 727.513h-2.77l-.018.363h2.789z" class="prefix__cls-3" data-name="Path 932" transform="translate(-119.153 -646.543)"/>
                <path id="prefix__Path_933" d="M123.052 718.219h-2.121l-.019.366h2.14z" class="prefix__cls-3" data-name="Path 933" transform="translate(-118.965 -650.334)"/>
                <path id="prefix__Path_934" d="M144.25 718.584h29.05v-.363h-29.048z" class="prefix__cls-3" data-name="Path 934" transform="translate(-109.447 -650.333)"/>
                <path id="prefix__Rectangle_613" d="M0 0H29.052V0.366H0z" class="prefix__cls-3" data-name="Rectangle 613" transform="translate(64.686 67.885)"/>
                <path id="prefix__Path_935" d="M195.923 718.584h-2.579v-.363H186.7v.364h9.22z" class="prefix__cls-3" data-name="Path 935" transform="translate(-92.133 -650.333)"/>
                <path id="prefix__Rectangle_614" d="M0 0H29.051V0.366H0z" class="prefix__cls-3" data-name="Rectangle 614" transform="translate(4.92 67.885)"/>
                <path id="prefix__Rectangle_615" d="M0 0H6.642V0.364H0z" class="prefix__cls-3" data-name="Rectangle 615" transform="translate(94.57 54.802)"/>
                <path id="prefix__Rectangle_616" d="M0 0H29.05V0.364H0z" class="prefix__cls-3" data-name="Rectangle 616" transform="translate(34.804 54.802)"/>
                <path id="prefix__Path_936" d="M152.075 708.926h-29.05v.365h29.05z" class="prefix__cls-3" data-name="Path 936" transform="translate(-118.104 -654.124)"/>
                <path id="prefix__Path_937" d="M122.864 708.926h-1.473l-.018.365h1.49z" class="prefix__cls-3" data-name="Path 937" transform="translate(-118.777 -654.124)"/>
                <path id="prefix__Rectangle_617" d="M0 0H29.051V0.364H0z" class="prefix__cls-3" data-name="Rectangle 617" transform="translate(64.687 54.802)"/>
                <path id="prefix__Path_938" d="M122.676 699.633h-.823l-.018.363h.841z" class="prefix__cls-3" data-name="Path 938" transform="translate(-118.589 -657.914)"/>
                <path id="prefix__Path_939" d="M192.561 699.633H186.7V700h5.858z" class="prefix__cls-3" data-name="Path 939" transform="translate(-92.133 -657.915)"/>
                <path id="prefix__Path_940" d="M144.25 700h29.05v-.364h-29.05z" class="prefix__cls-3" data-name="Path 940" transform="translate(-109.447 -657.915)"/>
                <path id="prefix__Rectangle_618" d="M0 0H29.051V0.364H0z" class="prefix__cls-3" data-name="Rectangle 618" transform="translate(4.92 41.717)"/>
                <path id="prefix__Rectangle_619" d="M0 0H29.052V0.364H0z" class="prefix__cls-3" data-name="Rectangle 619" transform="translate(64.686 41.717)"/>
                <path id="prefix__Path_941" d="M193.344 690.338h2.58-9.221v.367h6.641z" class="prefix__cls-3" data-name="Path 941" transform="translate(-92.133 -661.705)"/>
                <path id="prefix__Path_942" d="M122.488 690.338h-.174l-.019.366h.192z" class="prefix__cls-3" data-name="Path 942" transform="translate(-118.401 -661.705)"/>
                <path id="prefix__Rectangle_620" d="M0 0H29.051V0.364H0z" class="prefix__cls-3" data-name="Rectangle 620" transform="translate(4.92 28.633)"/>
                <path id="prefix__Path_943" d="M144.251 690.7H173.3v-.366h-29.05z" class="prefix__cls-3" data-name="Path 943" transform="translate(-109.447 -661.705)"/>
                <path id="prefix__Rectangle_621" d="M0 0H29.051V0.366H0z" class="prefix__cls-3" data-name="Rectangle 621" transform="translate(64.687 28.633)"/>
                <path id="prefix__Rectangle_622" d="M0 0H29.05V0.364H0z" class="prefix__cls-3" data-name="Rectangle 622" transform="translate(34.804 15.55)"/>
                <path id="prefix__Rectangle_623" d="M0 0H29.051V0.366H0z" class="prefix__cls-3" data-name="Rectangle 623" transform="translate(4.919 15.548)"/>
                <path id="prefix__Rectangle_624" d="M0 0H29.05V0.365H0z" class="prefix__cls-3" data-name="Rectangle 624" transform="translate(64.687 15.549)"/>
                <path id="prefix__Path_944" d="M193.344 681.045H186.7v.366h6.641z" class="prefix__cls-3" data-name="Path 944" transform="translate(-92.133 -665.495)"/>
                <path id="prefix__Rectangle_625" d="M0 0H29.05V0.364H0z" class="prefix__cls-3" data-name="Rectangle 625" transform="translate(34.804 2.466)"/>
                <path id="prefix__Path_945" d="M195.923 672.116h-3.362v-.363h3.362-9.223v.366z" class="prefix__cls-3" data-name="Path 945" transform="translate(-92.133 -669.285)"/>
                <path id="prefix__Path_946" d="M152 671.751h-28.764l-.018.364H152z" class="prefix__cls-3" data-name="Path 946" transform="translate(-118.025 -669.285)"/>
                <path id="prefix__Rectangle_626" d="M0 0H29.052V0.364H0z" class="prefix__cls-3" data-name="Rectangle 626" transform="translate(64.686 2.465)"/>
                <path id="prefix__Path_947" d="M122.433 696.58v86.84l.833-.021v-107.47l-.832 16.773v3.878z" class="prefix__cls-3" data-name="Path 947" transform="translate(-118.345 -667.581)"/>
                <path id="prefix__Path_948" d="M144.493 764.244v-93.819h-.834v114.468l.834-.021v-20.628z" class="prefix__cls-3" data-name="Path 948" transform="translate(-109.689 -669.826)"/>
                <path id="prefix__Path_949" d="M165.718 764.418V670h-.832v114.29l.832-.022v-19.85z" class="prefix__cls-3" data-name="Path 949" transform="translate(-101.031 -670)"/>
                <path id="prefix__Path_950" d="M186.944 764.244v-93.819h-.832v112.923l.833-.023v-19.08z" class="prefix__cls-3" data-name="Path 950" transform="translate(-92.374 -669.826)"/>
                <path id="prefix__Rectangle_627" d="M0 0H29.051V0.364H0z" class="prefix__cls-3" data-name="Rectangle 627" transform="translate(140.741 107.138)"/>
                <path id="prefix__Path_951" d="M191.42 746.1v.363h8.814v-.363z" class="prefix__cls-3" data-name="Path 951" transform="translate(-90.209 -638.963)"/>
                <path id="prefix__Rectangle_628" d="M0 0H29.05V0.366H0z" class="prefix__cls-3" data-name="Rectangle 628" transform="translate(110.858 107.137)"/>
                <path id="prefix__Path_952" d="M240.724 746.465h19.092l.023-.366h-19.115z" class="prefix__cls-3" data-name="Path 952" transform="translate(-70.101 -638.963)"/>
                <path id="prefix__Path_953" d="M191.42 736.807v.364h8.814v-.364h-8.814z" class="prefix__cls-3" data-name="Path 953" transform="translate(-90.209 -642.753)"/>
                <path id="prefix__Path_954" d="M198.271 737.171h29.05v-.364h-29.048z" class="prefix__cls-3" data-name="Path 954" transform="translate(-87.415 -642.753)"/>
                <path id="prefix__Path_955" d="M240.724 737.171h19.893l.023-.364h-19.916z" class="prefix__cls-3" data-name="Path 955" transform="translate(-70.1 -642.753)"/>
                <path id="prefix__Rectangle_629" d="M0 0H29.051V0.364H0z" class="prefix__cls-3" data-name="Rectangle 629" transform="translate(140.741 94.053)"/>
                <path id="prefix__Path_956" d="M240.724 727.876h20.693l.023-.363h-20.716z" class="prefix__cls-3" data-name="Path 956" transform="translate(-70.1 -646.543)"/>
                <path id="prefix__Rectangle_630" d="M0 0H29.051V0.364H0z" class="prefix__cls-3" data-name="Rectangle 630" transform="translate(140.741 80.97)"/>
                <path id="prefix__Rectangle_631" d="M0 0H29.05V0.363H0z" class="prefix__cls-3" data-name="Rectangle 631" transform="translate(110.858 80.97)"/>
                <path id="prefix__Path_957" d="M190.864 727.513v.363h9.6v-.363h-9.6z" class="prefix__cls-3" data-name="Path 957" transform="translate(-90.435 -646.543)"/>
                <path id="prefix__Path_958" d="M191.42 718.585h8.814v-.366h-8.813z" class="prefix__cls-3" data-name="Path 958" transform="translate(-90.209 -650.334)"/>
                <path id="prefix__Path_959" d="M219.5 718.584h29.051v-.363H219.5z" class="prefix__cls-3" data-name="Path 959" transform="translate(-78.757 -650.333)"/>
                <path id="prefix__Path_960" d="M240.724 718.585h21.493l.023-.367h-21.516z" class="prefix__cls-3" data-name="Path 960" transform="translate(-70.101 -650.334)"/>
                <path id="prefix__Rectangle_632" d="M0 0H29.05V0.366H0z" class="prefix__cls-3" data-name="Rectangle 632" transform="translate(110.858 67.885)"/>
                <path id="prefix__Rectangle_633" d="M0 0H29.051V0.364H0z" class="prefix__cls-3" data-name="Rectangle 633" transform="translate(140.741 54.802)"/>
                <path id="prefix__Path_961" d="M198.271 709.291h29.05v-.365h-29.048z" class="prefix__cls-3" data-name="Path 961" transform="translate(-87.415 -654.124)"/>
                <path id="prefix__Path_962" d="M191.42 708.926v.365h8.814v-.365h-8.814z" class="prefix__cls-3" data-name="Path 962" transform="translate(-90.209 -654.124)"/>
                <path id="prefix__Path_963" d="M240.724 709.291h22.293l.023-.365h-22.316z" class="prefix__cls-3" data-name="Path 963" transform="translate(-70.1 -654.124)"/>
                <path id="prefix__Path_964" d="M190.864 699.633V700h9.6v-.363h-9.6z" class="prefix__cls-3" data-name="Path 964" transform="translate(-90.435 -657.914)"/>
                <path id="prefix__Path_965" d="M219.5 700h29.051v-.364H219.5z" class="prefix__cls-3" data-name="Path 965" transform="translate(-78.757 -657.915)"/>
                <path id="prefix__Rectangle_634" d="M0 0H29.05V0.364H0z" class="prefix__cls-3" data-name="Rectangle 634" transform="translate(110.857 41.717)"/>
                <path id="prefix__Path_966" d="M240.724 700h23.093l.023-.364h-23.116z" class="prefix__cls-3" data-name="Path 966" transform="translate(-70.101 -657.915)"/>
                <path id="prefix__Path_967" d="M191.42 690.338v.364h8.814v-.366h-8.814z" class="prefix__cls-3" data-name="Path 967" transform="translate(-90.209 -661.705)"/>
                <path id="prefix__Rectangle_635" d="M0 0H29.05V0.364H0z" class="prefix__cls-3" data-name="Rectangle 635" transform="translate(110.857 28.633)"/>
                <path id="prefix__Path_968" d="M219.5 690.7h29.051v-.366H219.5z" class="prefix__cls-3" data-name="Path 968" transform="translate(-78.757 -661.705)"/>
                <path id="prefix__Path_969" d="M240.724 690.7h23.894l.023-.366h-23.917z" class="prefix__cls-3" data-name="Path 969" transform="translate(-70.1 -661.705)"/>
                <path id="prefix__Rectangle_636" d="M0 0H29.051V0.366H0z" class="prefix__cls-3" data-name="Rectangle 636" transform="translate(140.741 15.55)"/>
                <path id="prefix__Rectangle_637" d="M0 0H29.05V0.366H0z" class="prefix__cls-3" data-name="Rectangle 637" transform="translate(110.857 15.548)"/>
                <path id="prefix__Path_970" d="M191.42 681.045v.364h8.814v-.364h-8.814z" class="prefix__cls-3" data-name="Path 970" transform="translate(-90.209 -665.495)"/>
                <path id="prefix__Path_971" d="M240.724 681.41h24.694l.023-.367h-24.717z" class="prefix__cls-3" data-name="Path 971" transform="translate(-70.1 -665.495)"/>
                <path id="prefix__Path_972" d="M190.864 672.115h9.6v-.364h-9.596z" class="prefix__cls-3" data-name="Path 972" transform="translate(-90.435 -669.285)"/>
                <path id="prefix__Rectangle_638" d="M0 0H29.051V0.364H0z" class="prefix__cls-3" data-name="Rectangle 638" transform="translate(140.741 2.466)"/>
                <path id="prefix__Rectangle_639" d="M0 0H29.05V0.364H0z" class="prefix__cls-3" data-name="Rectangle 639" transform="translate(110.857 2.465)"/>
                <path id="prefix__Path_973" d="M240.724 672.115h25.5l.022-.364h-25.522z" class="prefix__cls-3" data-name="Path 973" transform="translate(-70.101 -669.285)"/>
                <path id="prefix__Path_974" d="M198.513 764.244v-93.819h-.833v115.24l.833-.022v-21.4z" class="prefix__cls-3" data-name="Path 974" transform="translate(-87.656 -669.826)"/>
                <path id="prefix__Path_975" d="M219.74 764.244v-93.819h-.834v114.468l.834-.021v-20.628z" class="prefix__cls-3" data-name="Path 975" transform="translate(-78.999 -669.826)"/>
                <path id="prefix__Path_976" d="M240.965 764.418V670h-.831v114.29l.831-.022v-19.85z" class="prefix__cls-3" data-name="Path 976" transform="translate(-70.341 -670)"/>
            </g>
            <path id="prefix__Path_977" d="M316.43 679.822l-193.143 1.463-.263-6 193.78-1.549z" data-name="Path 977" transform="translate(-82.163 -640.149)" style="fill:#442b27"/>
            <path id="prefix__Path_978" d="M271.327 689H195.6l-.929 80.386H267.2z" class="prefix__cls-5" data-name="Path 978" transform="translate(-52.943 -633.923)"/>
            <path id="prefix__Path_979" d="M160.877 689l-28.98.176L135 769.388l27.775-.04z" class="prefix__cls-5" data-name="Path 979" transform="translate(-78.544 -633.924)"/>
            <path id="prefix__Path_980" d="M308.986 748.514l-190.967.087.305 5.876 190.23-.011z" class="prefix__cls-6" data-name="Path 980" transform="translate(-84.204 -609.65)"/>
            <path id="prefix__Path_981" d="M201.862 689.069l-39.465.261 1.338 89.775h37.278z" class="prefix__cls-5" data-name="Path 981" transform="translate(-66.104 -633.895)"/>
            <path id="prefix__Path_982" d="M199.268 690.334l-35.444.19 1.172 81.7 33.628-.011z" class="prefix__cls-7" data-name="Path 982" transform="translate(-65.522 -633.379)"/>
            <path id="prefix__Path_983" d="M192.686 695.125l-25.237.144.835 62.5 23.944-.006z" class="prefix__cls-8" data-name="Path 983" transform="translate(-64.044 -631.425)"/>
            <path id="prefix__Path_984" d="M190.493 697.168l-21.835.133.722 57.354 20.717-.007z" class="prefix__cls-9" data-name="Path 984" transform="translate(-63.551 -630.592)"/>
            <path id="prefix__Path_985" d="M188.4 713.334l-18.067.076.6 32.542h17.141z" class="prefix__cls-10" data-name="Path 985" transform="translate(-62.868 -623.999)"/>
            <path id="prefix__Path_986" d="M169 729.113l21.822-26.28-.234 32.146-13.375 17.363-7.743-.235z" class="prefix__cls-11" data-name="Path 986" transform="translate(-63.411 -628.282)"/>
            <g id="prefix__Group_508" data-name="Group 508" transform="translate(222.018 38.068)">
                <path id="prefix__Path_987" d="M261.163 745.372l-8.915.131-.547 10.611 8.915-.132z" class="prefix__cls-12" data-name="Path 987" transform="translate(-251.701 -649)"/>
                <path id="prefix__Path_988" d="M261.853 735.591l-8.915.131-.548 10.61 8.916-.13z" class="prefix__cls-12" data-name="Path 988" transform="translate(-251.42 -652.989)"/>
                <path id="prefix__Path_989" d="M262.375 725.813l-8.916.13-.548 10.613 8.917-.132z" class="prefix__cls-12" data-name="Path 989" transform="translate(-251.207 -656.977)"/>
                <path id="prefix__Path_990" d="M263.063 716.033l-8.915.13-.547 10.612 8.915-.133z" class="prefix__cls-12" data-name="Path 990" transform="translate(-250.925 -660.966)"/>
                <path id="prefix__Path_991" d="M263.753 706.254l-8.915.13L254.29 717l8.916-.131z" class="prefix__cls-12" data-name="Path 991" transform="translate(-250.645 -664.955)"/>
                <path id="prefix__Path_992" d="M264.359 696.474l-8.916.129-.547 10.612 8.916-.132z" class="prefix__cls-12" data-name="Path 992" transform="translate(-250.397 -668.943)"/>
                <path id="prefix__Path_993" d="M265.214 686.691l-8.915.131-.547 10.611 8.915-.132z" class="prefix__cls-12" data-name="Path 993" transform="translate(-250.048 -672.933)"/>
                <path id="prefix__Path_994" d="M265.4 676.919l-8.915.129-.548 10.611 8.916-.13z" class="prefix__cls-12" data-name="Path 994" transform="translate(-249.971 -676.919)"/>
            </g>
            <path id="prefix__Path_995" d="M265.81 669.9l-8.161-.6-7.049 117.682 8.161.593z" class="prefix__cls-6" data-name="Path 995" transform="translate(-30.131 -641.955)"/>
            <path id="prefix__Path_996" d="M324.759 653.7L117.5 655.606l1.356 29.452 203.958-1.483z" class="prefix__cls-13" data-name="Path 996" transform="translate(-84.417 -648.322)"/>
            <path id="prefix__Path_997" d="M315.244 664.708l-192.472 1.775-.266-6.136 193.116-1.867z" class="prefix__cls-2" data-name="Path 997" transform="translate(-82.374 -646.37)"/>
            <path id="prefix__Path_998" d="M298.838 658.645l-167.313 1.566.637 17.461 165.725-.635z" class="prefix__cls-6" data-name="Path 998" transform="translate(-78.696 -646.303)"/>
            <path id="prefix__Path_999" d="M294.841 662.833l-161.115 1.081.614 12.051 159.585-.924z" class="prefix__cls-7" data-name="Path 999" transform="translate(-77.798 -644.595)"/>
            <path id="prefix__Rectangle_640" d="M0 0H231.952V3.756H0z" data-name="Rectangle 640" transform="translate(13.161 142.4)" style="fill:#664635"/>
            <path id="prefix__Path_1000" d="M159.037 690.371l-26.209.14 2.81 63.952 24.415-.032z" class="prefix__cls-9" data-name="Path 1000" transform="translate(-78.164 -633.364)"/>
            <path id="prefix__Path_1001" d="M196.907 690.371l72.771.14-3.755 63.952-69.923-.032z" class="prefix__cls-9" data-name="Path 1001" transform="translate(-52.4 -633.364)"/>
            <path id="prefix__Path_1002" d="M199.737 707.167l65.818.086-3.4 38.768-63.238-.021z" class="prefix__cls-10" data-name="Path 1002" transform="translate(-51.21 -626.514)"/>
            <path id="prefix__Path_1003" d="M325.012 662.717l-207.831 1.938-.514-10.913 209.065-2.111z" class="prefix__cls-2" data-name="Path 1003" transform="translate(-84.755 -649.164)"/>
            <path id="prefix__Path_1004" d="M329.068 654.783l-214.332 2.143-.236-4.826 214.892-2.22z" class="prefix__cls-6" data-name="Path 1004" transform="translate(-85.639 -649.879)"/>
            <path id="prefix__Rectangle_641" d="M0 0H23.464V1.522H0z" class="prefix__cls-8" data-name="Rectangle 641" transform="translate(104.416 107.966)"/>
            <path id="prefix__Rectangle_642" d="M0 0H1.55V60.773H0z" class="prefix__cls-8" data-name="Rectangle 642" transform="translate(115.816 64.696)"/>
            <path id="prefix__Rectangle_643" d="M0 0H1.76V6.335H0z" class="prefix__cls-15" data-name="Rectangle 643" transform="translate(95.91 110.862)"/>
            <path id="prefix__Rectangle_644" d="M0 0H1.76V6.335H0z" class="prefix__cls-15" data-name="Rectangle 644" transform="translate(95.03 68.979)"/>
            <path id="prefix__Path_1005" d="M156.234 710.667L135 710.74l2.277 33.383 19.785-.016z" class="prefix__cls-10" data-name="Path 1005" transform="translate(-77.28 -625.087)"/>
            <path id="prefix__Path_1006" d="M134.5 727.985l24.4-30.152-.234 32.147-15.956 21.234-7.743-.235z" class="prefix__cls-11" data-name="Path 1006" transform="translate(-77.482 -630.321)"/>
            <path id="prefix__Path_1007" d="M140.149 737.25h-4.4l.528 10.735h4.4z" class="prefix__cls-7" data-name="Path 1007" transform="translate(-76.972 -614.245)"/>
            <path id="prefix__Path_1008" d="M144.524 737.25h-4.4l.528 10.735h4.4z" class="prefix__cls-7" data-name="Path 1008" transform="translate(-75.188 -614.245)"/>
            <path id="prefix__Path_1009" d="M148.774 737.25h-4.4l.528 10.735h4.4z" class="prefix__cls-7" data-name="Path 1009" transform="translate(-73.455 -614.245)"/>
            <path id="prefix__Path_1010" d="M152.9 737.25h-4.4l.528 10.735h4.4z" class="prefix__cls-7" data-name="Path 1010" transform="translate(-71.772 -614.245)"/>
            <path id="prefix__Rectangle_645" d="M0 0H4.4V10.383H0z" class="prefix__cls-7" data-name="Rectangle 645" transform="translate(144.128 123.005)"/>
            <path id="prefix__Rectangle_646" d="M0 0H4.4V10.383H0z" class="prefix__cls-7" data-name="Rectangle 646" transform="translate(149.985 123.005)"/>
            <path id="prefix__Rectangle_647" d="M0 0H4.4V10.383H0z" class="prefix__cls-7" data-name="Rectangle 647" transform="translate(155.841 123.005)"/>
            <path id="prefix__Rectangle_648" d="M0 0H4.4V10.383H0z" class="prefix__cls-7" data-name="Rectangle 648" transform="translate(161.698 123.005)"/>
            <path id="prefix__Rectangle_649" d="M0 0H4.4V10.383H0z" class="prefix__cls-7" data-name="Rectangle 649" transform="translate(167.554 123.005)"/>
            <path id="prefix__Path_1011" d="M222.014 737.25h-4.4l-.682 10.383h4.4z" class="prefix__cls-7" data-name="Path 1011" transform="translate(-43.862 -614.245)"/>
            <path id="prefix__Path_1012" d="M226.173 737.25h-4.4l-.682 10.383h4.4z" class="prefix__cls-7" data-name="Path 1012" transform="translate(-42.166 -614.245)"/>
            <path id="prefix__Path_1013" d="M230.333 737.25h-4.4l-.682 10.383h4.4z" class="prefix__cls-7" data-name="Path 1013" transform="translate(-40.469 -614.245)"/>
            <path id="prefix__Path_1014" d="M234.493 737.25h-4.4l-.682 10.383h4.4z" class="prefix__cls-7" data-name="Path 1014" transform="translate(-38.773 -614.245)"/>
            <path id="prefix__Path_1015" d="M238.652 737.25h-4.4l-.681 10.383h4.4z" class="prefix__cls-7" data-name="Path 1015" transform="translate(-37.076 -614.245)"/>
            <path id="prefix__Path_1016" d="M242.812 737.25h-4.4l-.681 10.383h4.4z" class="prefix__cls-7" data-name="Path 1016" transform="translate(-35.38 -614.245)"/>
            <path id="prefix__Path_1017" d="M246.972 737.25h-4.4l-.681 10.383h4.4z" class="prefix__cls-7" data-name="Path 1017" transform="translate(-33.683 -614.245)"/>
            <path id="prefix__Rectangle_650" d="M0 0H27.453V1.188H0z" class="prefix__cls-5" data-name="Rectangle 650" transform="translate(54.437 72.902)"/>
            <path id="prefix__Path_1060" d="M196.125 730.975l35.724-40.475 35.724.176-36.956 63.524H196.3z" class="prefix__cls-11" data-name="Path 1060" transform="translate(-52.349 -633.312)"/>
            <path id="prefix__Rectangle_703" d="M0 0H74.077V1.188H0z" class="prefix__cls-5" data-name="Rectangle 703" transform="translate(143.365 72.902)"/>
            <path id="prefix__Path_1061" d="M131.543 680.334H94v27.218h35.666z" class="prefix__cls-13" data-name="Path 1061" transform="translate(-94 -637.458)"/>
            <path id="prefix__Path_1062" d="M130.029 680.833h-35.2c4.7 14.437 14.691 21.122 33.436 25.813z" class="prefix__cls-2" data-name="Path 1062" transform="translate(-93.66 -637.254)"/>
            <path id="prefix__Rectangle_704" d="M0 0H6.687V7.391H0z" class="prefix__cls-6" data-name="Rectangle 704" transform="translate(63.001 17.769)"/>
            <path id="prefix__Rectangle_705" d="M0 0H6.687V7.391H0z" class="prefix__cls-6" data-name="Rectangle 705" transform="translate(85.683 17.769)"/>
            <path id="prefix__Rectangle_706" d="M0 0H6.687V7.391H0z" class="prefix__cls-6" data-name="Rectangle 706" transform="translate(199.093 17.769)"/>
            <path id="prefix__Rectangle_707" d="M0 0H6.687V7.391H0z" class="prefix__cls-6" data-name="Rectangle 707" transform="translate(176.411 17.769)"/>
            <path id="prefix__Rectangle_708" d="M0 0H6.687V7.391H0z" class="prefix__cls-6" data-name="Rectangle 708" transform="translate(153.729 17.298)"/>
            <path id="prefix__Rectangle_709" d="M0 0H6.687V7.391H0z" class="prefix__cls-6" data-name="Rectangle 709" transform="translate(131.047 17.298)"/>
            <path id="prefix__Rectangle_710" d="M0 0H6.687V7.391H0z" class="prefix__cls-6" data-name="Rectangle 710" transform="translate(108.365 17.298)"/>
        </g>
        <g id="prefix__Group_65" data-name="Group 65" transform="translate(11016.12 3193.198)">
            <g id="prefix__Group_54" data-name="Group 54" transform="translate(.952 3.528)">
                <path id="prefix__Path_86" d="M987.019 1517.34h-9.427l1.861 14.377a.958.958 0 00.951.835h3.8a.958.958 0 00.951-.835z" class="prefix__cls-16" data-name="Path 86" transform="translate(-977.443 -1517.19)"/>
                <g id="prefix__Group_53" data-name="Group 53">
                    <path id="prefix__Path_87" d="M982.858 1531.353h-3.8a1.11 1.11 0 01-1.1-.966l-1.861-14.378a.155.155 0 01.036-.119.152.152 0 01.113-.05h9.425a.149.149 0 01.149.169l-1.861 14.378a1.111 1.111 0 01-1.101.966zm-6.444-15.212l1.84 14.208a.809.809 0 00.8.7h3.8a.81.81 0 00.8-.7l1.839-14.208z" class="prefix__cls-17" data-name="Path 87" transform="translate(-976.093 -1515.84)"/>
                </g>
            </g>
            <g id="prefix__Group_56" data-name="Group 56" transform="translate(0 1.764)">
                <rect id="prefix__Rectangle_12" width="11.329" height="1.764" class="prefix__cls-18" data-name="Rectangle 12" rx=".882" transform="translate(.15 .15)"/>
                <g id="prefix__Group_55" data-name="Group 55">
                    <path id="prefix__Path_88" d="M977.182 1500.28h-9.565a1.032 1.032 0 110-2.064h9.565a1.032 1.032 0 110 2.064zm-9.565-1.763a.731.731 0 100 1.462h9.565a.731.731 0 100-1.462z" class="prefix__cls-17" data-name="Path 88" transform="translate(-966.584 -1498.216)"/>
                </g>
            </g>
            <g id="prefix__Group_58" data-name="Group 58" transform="translate(.952)">
                <path id="prefix__Path_89" d="M985.255 1482.092h-5.9a1.763 1.763 0 00-1.764 1.763h9.427a1.764 1.764 0 00-1.763-1.763z" class="prefix__cls-19" data-name="Path 89" transform="translate(-977.443 -1481.942)"/>
                <g id="prefix__Group_57" data-name="Group 57">
                    <path id="prefix__Path_90" d="M985.669 1482.656h-9.425a.15.15 0 01-.15-.151 1.916 1.916 0 011.914-1.915h5.9a1.916 1.916 0 011.914 1.915.149.149 0 01-.153.151zm-9.269-.3h9.112a1.616 1.616 0 00-1.607-1.464h-5.9a1.616 1.616 0 00-1.605 1.464z" class="prefix__cls-17" data-name="Path 90" transform="translate(-976.094 -1480.591)"/>
                </g>
            </g>
            <g id="prefix__Group_60" data-name="Group 60" transform="translate(1.441 7.306)">
                <path id="prefix__Path_91" d="M990.3 1559.942l.628-4.857h-8.448l.629 4.857z" class="prefix__cls-20" data-name="Path 91" transform="translate(-982.328 -1554.935)"/>
                <g id="prefix__Group_59" data-name="Group 59">
                    <path id="prefix__Path_92" d="M988.948 1558.742h-7.19a.152.152 0 01-.149-.131l-.628-4.858a.149.149 0 01.149-.168h8.448a.153.153 0 01.113.05.151.151 0 01.036.118l-.628 4.858a.153.153 0 01-.151.131zm-7.058-.3h6.927l.59-4.558H981.3z" class="prefix__cls-17" data-name="Path 92" transform="translate(-980.978 -1553.585)"/>
                </g>
            </g>
            <g id="prefix__Group_64" data-name="Group 64" transform="translate(4.158 8.226)">
                <g id="prefix__Group_62" data-name="Group 62">
                    <path id="prefix__Path_93" d="M1011.925 1566.594c-.709.708-1.636.931-2.071.5s-.212-1.361.5-2.071 1.636-.932 2.071-.5.209 1.363-.5 2.071z" class="prefix__cls-21" data-name="Path 93" transform="translate(-1009.481 -1564.148)"/>
                    <g id="prefix__Group_61" data-name="Group 61">
                        <path id="prefix__Path_94" d="M1009.1 1566.094a.975.975 0 01-.708-.269 1.1 1.1 0 01-.22-1.074 2.65 2.65 0 01.718-1.208c.779-.78 1.782-1 2.283-.5s.283 1.5-.5 2.283a2.364 2.364 0 01-1.573.768zm1.37-3.014a2.1 2.1 0 00-1.368.674 2.326 2.326 0 00-.638 1.067.817.817 0 00.14.791c.369.37 1.22.142 1.858-.5s.865-1.49.5-1.859a.677.677 0 00-.491-.173zm.1 2.141z" class="prefix__cls-17" data-name="Path 94" transform="translate(-1008.127 -1562.776)"/>
                    </g>
                </g>
                <g id="prefix__Group_63" data-name="Group 63" transform="translate(.27 .556)">
                    <path id="prefix__Path_95" d="M1010.974 1570.919a.155.155 0 01-.115-.053.151.151 0 01.018-.212 1.309 1.309 0 00.456-.739 1.609 1.609 0 01.549-.881 1.427 1.427 0 01.936-.371 1.117 1.117 0 00.765-.3.15.15 0 11.194.229 1.429 1.429 0 01-.936.37 1.118 1.118 0 00-.766.3 1.31 1.31 0 00-.456.739 1.622 1.622 0 01-.55.882.151.151 0 01-.095.036z" class="prefix__cls-17" data-name="Path 95" transform="translate(-1010.824 -1568.33)"/>
                </g>
            </g>
        </g>
        <g id="prefix__Group_570" data-name="Group 570" transform="translate(11030.576 3193.198)">
            <g id="prefix__Group_54-2" data-name="Group 54" transform="translate(.952 3.528)">
                <path id="prefix__Path_86-2" d="M987.019 1517.34h-9.427l1.861 14.377a.958.958 0 00.951.835h3.8a.958.958 0 00.951-.835z" class="prefix__cls-16" data-name="Path 86" transform="translate(-977.443 -1517.19)"/>
                <g id="prefix__Group_53-2" data-name="Group 53">
                    <path id="prefix__Path_87-2" d="M982.858 1531.353h-3.8a1.11 1.11 0 01-1.1-.966l-1.861-14.378a.155.155 0 01.036-.119.152.152 0 01.113-.05h9.425a.149.149 0 01.149.169l-1.861 14.378a1.111 1.111 0 01-1.101.966zm-6.444-15.212l1.84 14.208a.809.809 0 00.8.7h3.8a.81.81 0 00.8-.7l1.839-14.208z" class="prefix__cls-17" data-name="Path 87" transform="translate(-976.093 -1515.84)"/>
                </g>
            </g>
            <g id="prefix__Group_56-2" data-name="Group 56" transform="translate(0 1.764)">
                <rect id="prefix__Rectangle_12-2" width="11.329" height="1.764" class="prefix__cls-18" data-name="Rectangle 12" rx=".882" transform="translate(.15 .15)"/>
                <g id="prefix__Group_55-2" data-name="Group 55">
                    <path id="prefix__Path_88-2" d="M977.182 1500.28h-9.565a1.032 1.032 0 110-2.064h9.565a1.032 1.032 0 110 2.064zm-9.565-1.763a.731.731 0 100 1.462h9.565a.731.731 0 100-1.462z" class="prefix__cls-17" data-name="Path 88" transform="translate(-966.584 -1498.216)"/>
                </g>
            </g>
            <g id="prefix__Group_58-2" data-name="Group 58" transform="translate(.952)">
                <path id="prefix__Path_89-2" d="M985.255 1482.092h-5.9a1.763 1.763 0 00-1.764 1.763h9.427a1.764 1.764 0 00-1.763-1.763z" class="prefix__cls-19" data-name="Path 89" transform="translate(-977.443 -1481.942)"/>
                <g id="prefix__Group_57-2" data-name="Group 57">
                    <path id="prefix__Path_90-2" d="M985.669 1482.656h-9.425a.15.15 0 01-.15-.151 1.916 1.916 0 011.914-1.915h5.9a1.916 1.916 0 011.914 1.915.149.149 0 01-.153.151zm-9.269-.3h9.112a1.616 1.616 0 00-1.607-1.464h-5.9a1.616 1.616 0 00-1.605 1.464z" class="prefix__cls-17" data-name="Path 90" transform="translate(-976.094 -1480.591)"/>
                </g>
            </g>
            <g id="prefix__Group_60-2" data-name="Group 60" transform="translate(1.441 7.306)">
                <path id="prefix__Path_91-2" d="M990.3 1559.942l.628-4.857h-8.448l.629 4.857z" class="prefix__cls-20" data-name="Path 91" transform="translate(-982.328 -1554.935)"/>
                <g id="prefix__Group_59-2" data-name="Group 59">
                    <path id="prefix__Path_92-2" d="M988.948 1558.742h-7.19a.152.152 0 01-.149-.131l-.628-4.858a.149.149 0 01.149-.168h8.448a.153.153 0 01.113.05.151.151 0 01.036.118l-.628 4.858a.153.153 0 01-.151.131zm-7.058-.3h6.927l.59-4.558H981.3z" class="prefix__cls-17" data-name="Path 92" transform="translate(-980.978 -1553.585)"/>
                </g>
            </g>
            <g id="prefix__Group_64-2" data-name="Group 64" transform="translate(4.158 8.226)">
                <g id="prefix__Group_62-2" data-name="Group 62">
                    <path id="prefix__Path_93-2" d="M1011.925 1566.594c-.709.708-1.636.931-2.071.5s-.212-1.361.5-2.071 1.636-.932 2.071-.5.209 1.363-.5 2.071z" class="prefix__cls-21" data-name="Path 93" transform="translate(-1009.481 -1564.148)"/>
                    <g id="prefix__Group_61-2" data-name="Group 61">
                        <path id="prefix__Path_94-2" d="M1009.1 1566.094a.975.975 0 01-.708-.269 1.1 1.1 0 01-.22-1.074 2.65 2.65 0 01.718-1.208c.779-.78 1.782-1 2.283-.5s.283 1.5-.5 2.283a2.364 2.364 0 01-1.573.768zm1.37-3.014a2.1 2.1 0 00-1.368.674 2.326 2.326 0 00-.638 1.067.817.817 0 00.14.791c.369.37 1.22.142 1.858-.5s.865-1.49.5-1.859a.677.677 0 00-.491-.173zm.1 2.141z" class="prefix__cls-17" data-name="Path 94" transform="translate(-1008.127 -1562.776)"/>
                    </g>
                </g>
                <g id="prefix__Group_63-2" data-name="Group 63" transform="translate(.27 .556)">
                    <path id="prefix__Path_95-2" d="M1010.974 1570.919a.155.155 0 01-.115-.053.151.151 0 01.018-.212 1.309 1.309 0 00.456-.739 1.609 1.609 0 01.549-.881 1.427 1.427 0 01.936-.371 1.117 1.117 0 00.765-.3.15.15 0 11.194.229 1.429 1.429 0 01-.936.37 1.118 1.118 0 00-.766.3 1.31 1.31 0 00-.456.739 1.622 1.622 0 01-.55.882.151.151 0 01-.095.036z" class="prefix__cls-17" data-name="Path 95" transform="translate(-1010.824 -1568.33)"/>
                </g>
            </g>
        </g>
        <text id="prefix__Coffee_Shop" data-name="Coffee Shop" transform="translate(11101.995 3196.343)" style="fill:#f9b034;font-size:14px;font-family:MyanmarMN-Bold,Myanmar MN;font-weight:700">
            <tspan x="0" y="0">Coffee Shop</tspan>
        </text>
    </g>
</svg>
