<svg xmlns="http://www.w3.org/2000/svg" width="138" height="55" viewBox="0 0 138 55">
    <g id="prefix__Group_3576" data-name="Group 3576" transform="translate(-1475 -818)">
        <g id="prefix__icons8-google-play-50" transform="translate(1481.141 832.246)">
            <path id="prefix__Path_5145" d="M7.493 3.21l9.547 9.547 2.46-2.464c-3.367-2.042-7.875-4.782-9.9-6.014l-1.357-.822a1.686 1.686 0 00-.75-.245zM6.036 4.354A1.846 1.846 0 006 4.678v18.864a1.432 1.432 0 00.028.228l9.711-9.714-9.7-9.7zm15.086 6.922l-2.78 2.78 2.732 2.732c1.449-.877 2.452-1.487 2.563-1.554a1.448 1.448 0 00.762-1.251 1.394 1.394 0 00-.758-1.189c-.106-.061-1.095-.658-2.517-1.52zm-4.082 4.082l-9.518 9.518a1.549 1.549 0 00.546-.194l11.387-6.909z" data-name="Path 5145" style="fill:#fff"/>
        </g>
        <g id="prefix__Rectangle_2833" data-name="Rectangle 2833" transform="translate(1475 818)" style="stroke:#fff;stroke-width:2px;fill:none">
            <rect width="138" height="55" rx="9" style="stroke:none"/>
            <rect width="136" height="53" x="1" y="1" rx="8" style="fill:none"/>
        </g>
        <text id="prefix__Google_Play" data-name="Google Play" transform="translate(1559 852)" style="font-size:17px;font-family:NewYorkExtraLarge-Medium,New York Extra Large;font-weight:500;fill:#fff">
            <tspan x="-45.584" y="0">Google Play</tspan>
        </text>
    </g>
</svg>
