<svg xmlns="http://www.w3.org/2000/svg" width="133" height="55" viewBox="0 0 133 55">
    <g id="prefix__Group_3577" data-name="Group 3577" transform="translate(-1338 -818)">
        <g id="prefix__icons8-apple-logo-50" transform="translate(1344.932 833.644)">
            <path id="prefix__Path_5146" d="M22.018 8.253a5.23 5.23 0 00-2.555 4.447 5.231 5.231 0 003.146 4.648 12.484 12.484 0 01-1.631 3.3c-.937 1.423-1.978 2.862-3.557 2.862-1.5 0-2.042-.951-3.776-.951-1.862 0-2.389.951-3.814.951-1.58 0-2.7-1.515-3.685-2.928a14.431 14.431 0 01-2.414-7.538 7.946 7.946 0 01.976-4.161 5.8 5.8 0 014.8-2.928c1.515-.051 2.864 1.04 3.788 1.04.886 0 2.543-1.04 4.417-1.04a5.15 5.15 0 014.3 2.3zM13.17 5.659A4.573 4.573 0 0114.339 2.1 4.929 4.929 0 0117.831.356a5.028 5.028 0 01-1.284 3.634 3.946 3.946 0 01-3.377 1.669z" data-name="Path 5146" style="fill:#fff"/>
        </g>
        <g id="prefix__Rectangle_2832" data-name="Rectangle 2832" transform="translate(1338 818)" style="stroke:#fff;stroke-width:2px;fill:none">
            <rect width="133" height="55" rx="9" style="stroke:none"/>
            <rect width="131" height="53" x="1" y="1" rx="8" style="fill:none"/>
        </g>
        <text id="prefix__App_Store" data-name="App Store" transform="translate(1416 852)" style="font-size:17px;font-family:NewYorkExtraLarge-Medium,New York Extra Large;font-weight:500;fill:#fff">
            <tspan x="-37.852" y="0">App Store</tspan>
        </text>
    </g>
</svg>
