<svg xmlns="http://www.w3.org/2000/svg" width="153" height="150" viewBox="0 0 153 150">
    <defs>
        <filter id="prefix__QRCode" width="153" height="150" x="0" y="0" filterUnits="userSpaceOnUse">
            <feOffset dy="3"/>
            <feGaussianBlur result="blur" stdDeviation="6"/>
            <feFlood flood-opacity=".161"/>
            <feComposite in2="blur" operator="in"/>
            <feComposite in="SourceGraphic"/>
        </filter>
        <style>
            .prefix__cls-2,.prefix__cls-3{fill:#fff}.prefix__cls-3{fill-rule:evenodd}
        </style>
    </defs>
    <g id="prefix__Group_3699" data-name="Group 3699" transform="translate(-558 -9775)">
        <g transform="translate(558 9775)">
            <g id="prefix__QRCode-2" data-name="QRCode" transform="translate(18 15)" style="fill:#f9b034;stroke:transparent">
                <rect width="117" height="114" rx="14" style="stroke:none"/>
                <rect width="116" height="113" x=".5" y=".5" rx="13.5" style="fill:none"/>
            </g>
        </g>
        <g id="prefix__Group_3687" data-name="Group 3687" transform="translate(607.935 9807.935)">
            <g id="prefix__Group_2" data-name="Group 2">
                <path id="prefix__Path_11" d="M137.221 290.416a25.09 25.09 0 1045.879-14.028 5.964 5.964 0 01-.676 1.258 23.821 23.821 0 11-11-9.255 6.859 6.859 0 01.4-1.183 25.08 25.08 0 00-34.611 23.209z" class="prefix__cls-2" data-name="Path 11" transform="translate(-135.534 -263.639)"/>
                <path id="prefix__Path_12" d="M182.615 273.214a8.16 8.16 0 01-.191 1.208 25.871 25.871 0 11-11.2-8.928 5.318 5.318 0 01.542-.718 26.851 26.851 0 1010.845 8.437z" class="prefix__cls-2" data-name="Path 12" transform="translate(-134.551 -262.656)"/>
            </g>
            <g id="prefix__Group_3" data-name="Group 3" transform="translate(6.412 9.519)">
                <path id="prefix__Path_13" d="M182.608 299.523a4.745 4.745 0 01-1.543 1.279 10.242 10.242 0 01-1.051.494 6.342 6.342 0 00-.509-1.046 7.018 7.018 0 00-1.3-1.565q-2.234-2.036-7.542-2.919a13.755 13.755 0 006.011-2.934 6.964 6.964 0 00.708-.773l-.4-.136a23.112 23.112 0 00-5.422-1.126 5.081 5.081 0 01-1.339 2.677q-1.553 1.508-5.161 1.508h-3.5v-10.409a1.446 1.446 0 01.535-1.3 5.5 5.5 0 012.528-.356q4.175 0 5.665 1.277a4.16 4.16 0 011.284 2.294 7.866 7.866 0 01.174 1.177q-.576-.047-1.169-.082-1.5-.085-3.117-.087-2.46 0-4.74.178v2.068a30.749 30.749 0 013.87-.239q.513 0 1.017.018c.341-.011.687-.018 1.04-.018q.986 0 1.928.054.586.033 1.155.087a24.12 24.12 0 015.637 1.181c.228.079.449.153.663.225.389.131.756.255 1.1.389a5.757 5.757 0 011.673.931h3.849l-.045-.355-.479-4.5h-1.793l-2.212 1.7-.336-.092q-.573-.158-1.134-.3c.018-.2.028-.406.028-.614s-.01-.389-.025-.579a6.484 6.484 0 00-2.493-4.608 10.5 10.5 0 00-6.9-2.086h-.111v-3.222h-2.778v3.222h-3.321v-3.222h-2.778v3.222h-9.831v1.964h2.413a2.821 2.821 0 011.584.336 1.034 1.034 0 01.473.881v16.391a8.178 8.178 0 01-1.159-.924 4.5 4.5 0 01-1.522-3.121v-.105a4.359 4.359 0 011.525-3.149v-3.972c-.493.143-.979.293-1.454.454q-7.5 2.539-7.595 6.772v.109q0 3.881 6.588 6.367 1.195.451 2.464.819.57.166 1.159.315a42.655 42.655 0 006.65 1.107q.571.052 1.159.093c1.44.1 2.954.151 4.553.151 1.7 0 3.279-.066 4.762-.2.4-.036.8-.075 1.195-.121a32.578 32.578 0 006.507-1.387c.242-.08.474-.162.7-.246q.606-.227 1.131-.474a7.678 7.678 0 003.691-3.209zm-10.452 3.569c-1.02.08-2.1.122-3.246.122q-.776 0-1.5-.025-.575.023-1.163.023a30.421 30.421 0 01-3.522-.2q-.591-.069-1.159-.161v-5.919h4.721a7.291 7.291 0 015.245 1.731 5.787 5.787 0 011.639 3.169 9.07 9.07 0 01.143 1.149q-.568.065-1.158.111z" class="prefix__cls-2" data-name="Path 13" transform="translate(-144.701 -277.725)"/>
                <path id="prefix__Path_14" d="M176.3 322.037a5.1 5.1 0 01-1.305 2.11 6.444 6.444 0 01-4.647 1.615h-4.028a1.257 1.257 0 01-1.028-.462 2.075 2.075 0 01-.378-1.342v-1.875a43.91 43.91 0 01-6.65-1.076v2.867a2.2 2.2 0 01-.5 1.448 1.385 1.385 0 01-1.112.44h-2.862v1.951h9.831v2.562h2.779v-2.562h3.321v2.562h2.779V327.7a17.918 17.918 0 005.744-1.054 9.322 9.322 0 003.955-2.457 6.967 6.967 0 001.544-3.728c-.1.033-.194.067-.292.1a34.3 34.3 0 01-7.151 1.476z" class="prefix__cls-2" data-name="Path 14" transform="translate(-148.048 -293.463)"/>
            </g>
            <g id="prefix__Group_4" data-name="Group 4" transform="translate(36.965 1.747)">
                <path id="prefix__Path_15" d="M196.881 265.421a3.671 3.671 0 012.5 2.564 1.909 1.909 0 00-1.426.227 1.277 1.277 0 00-.136.081 3.386 3.386 0 00-.566.457q.069-.281.132-.566a2.724 2.724 0 00-.5-2.763zm-.584 10.116c-1.821-.082-3.26-2.347-3.231-5.112a7 7 0 01.6-2.833 4.923 4.923 0 01.526-.871 3.679 3.679 0 01.281-.329c1.154-1.193 2.252-.67 2.179.914a4.437 4.437 0 01-.073.605c-.356 1.9-.992 3.411-1.027 5.465a2.484 2.484 0 00.743 2.161z" class="prefix__cls-3" data-name="Path 15" transform="translate(-193.065 -265.421)"/>
                <path id="prefix__Path_16" d="M202.048 270.092a3.774 3.774 0 012.6 2.752 7.209 7.209 0 01.357 2.08 6.888 6.888 0 01-.919 3.7c-.995 1.651-2.365 1.505-2.435-.426a22.007 22.007 0 01.929-5.355 2.72 2.72 0 00-.531-2.754zm-.477 10.106c-1.818-.063-3.279-2.309-3.279-5.07a7 7 0 01.572-2.834 4.895 4.895 0 01.516-.876 3.523 3.523 0 01.276-.331c1.14-1.2 2.241-.692 2.185.889a4.367 4.367 0 01-.067.605c-.335 1.9-.954 3.416-.968 5.466a2.482 2.482 0 00.764 2.15z" class="prefix__cls-3" data-name="Path 16" transform="translate(-194.99 -267.141)"/>
            </g>
        </g>
        <text id="prefix__Токен_BFF" data-name="Токен BFF" transform="translate(592 9886)" style="font-size:17px;font-family:NewYorkExtraLarge-Bold,New York Extra Large;font-weight:700;fill:#fff">
            <tspan x="0" y="0">Токен </tspan><tspan y="0">BFF</tspan>
        </text>
    </g>
</svg>
