<svg xmlns="http://www.w3.org/2000/svg" width="106" height="147" viewBox="0 0 106 147">
    <defs>
        <filter id="prefix__Polygon_15" width="83" height="103" x="12" y="44" filterUnits="userSpaceOnUse">
            <feOffset dy="3"/>
            <feGaussianBlur result="blur" stdDeviation="3"/>
            <feFlood flood-opacity=".627"/>
            <feComposite in2="blur" operator="in"/>
            <feComposite in="SourceGraphic"/>
        </filter>
        <filter id="prefix__Subtraction_3" width="106" height="106" x="0" y="0" filterUnits="userSpaceOnUse">
            <feOffset dy="3"/>
            <feGaussianBlur result="blur-2" stdDeviation="6"/>
            <feFlood flood-opacity=".557"/>
            <feComposite in2="blur-2" operator="in"/>
            <feComposite in="SourceGraphic"/>
        </filter>
        <radialGradient id="prefix__radial-gradient" cx=".5" cy=".5" r=".466" gradientTransform="matrix(1 0 0 .972 0 .014)" gradientUnits="objectBoundingBox">
            <stop offset="0" stop-color="#720707"/>
            <stop offset=".764" stop-color="#780909"/>
            <stop offset=".897" stop-color="#c92323"/>
            <stop offset="1" stop-color="#d32626"/>
        </radialGradient>
        <style>
            .prefix__cls-4,.prefix__cls-5{fill:#f9b034}.prefix__cls-5{fill-rule:evenodd}
        </style>
    </defs>
    <g id="prefix__Group_3741" data-name="Group 3741" transform="translate(-595 -173)">
        <g transform="translate(595 173)">
            <g id="prefix__Polygon_15-2" data-name="Polygon 15" style="fill:none">
                <path d="M32.5 0L65 85H0z" style="stroke:none" transform="rotate(180 43 67.5)"/>
                <path d="M32.5 19.6L10.17 78h44.66L32.5 19.6m0-19.6L65 85H0L32.5 0z" style="stroke:none;fill:#f9b034" transform="rotate(180 43 67.5)"/>
            </g>
        </g>
        <g id="prefix__Group_3738" data-name="Group 3738" transform="translate(0 -1123)">
            <circle id="prefix__Ellipse_72" cx="35" cy="35" r="35" data-name="Ellipse 72" transform="translate(613 1311)"/>
            <g transform="translate(595 1296)">
                <path id="prefix__Subtraction_3-2" d="M35 70a34.836 34.836 0 0 1-19.569-5.978A35.1 35.1 0 0 1 2.75 48.623a34.954 34.954 0 0 1 3.228-33.192 35.1 35.1 0 0 1 15.4-12.68 34.956 34.956 0 0 1 33.191 3.226 35.1 35.1 0 0 1 12.681 15.4 34.956 34.956 0 0 1-3.227 33.193 35.1 35.1 0 0 1-15.4 12.681A34.789 34.789 0 0 1 35 70zm0-63.889a28.794 28.794 0 1 0 11.245 2.27A28.721 28.721 0 0 0 35 6.111z" data-name="Subtraction 3" transform="translate(18 15)" style="fill:#222"/>
            </g>
            <g id="prefix__Group_5" data-name="Group 5" transform="translate(628.531 1326.531)">
                <g id="prefix__Group_2" data-name="Group 2">
                    <path id="prefix__Path_11" d="M137.221 283.3a17.973 17.973 0 1 0 32.867-10.048 4.272 4.272 0 0 1-.484.9 17.063 17.063 0 1 1-7.879-6.63 4.913 4.913 0 0 1 .288-.848 17.965 17.965 0 0 0-24.792 16.626z" class="prefix__cls-4" data-name="Path 11" transform="translate(-136.013 -264.117)"/>
                    <path id="prefix__Path_12" d="M168.98 270.219a5.843 5.843 0 0 1-.137.866 18.532 18.532 0 1 1-8.02-6.395 3.811 3.811 0 0 1 .388-.514 19.234 19.234 0 1 0 7.768 6.044z" class="prefix__cls-4" data-name="Path 12" transform="translate(-134.551 -262.656)"/>
                </g>
                <g id="prefix__Group_3" data-name="Group 3" transform="translate(4.593 6.819)">
                    <path id="prefix__Path_13" d="M171.854 293.339a3.4 3.4 0 0 1-1.105.916 7.343 7.343 0 0 1-.753.354 4.543 4.543 0 0 0-.364-.749 5.027 5.027 0 0 0-.928-1.121 10.678 10.678 0 0 0-5.4-2.091 9.854 9.854 0 0 0 4.306-2.1 4.987 4.987 0 0 0 .507-.554l-.285-.1a16.555 16.555 0 0 0-3.884-.807 3.64 3.64 0 0 1-.959 1.918 5.2 5.2 0 0 1-3.7 1.08h-2.51v-7.455a1.036 1.036 0 0 1 .383-.93 3.943 3.943 0 0 1 1.811-.255q2.991 0 4.058.915a2.98 2.98 0 0 1 .92 1.643 5.633 5.633 0 0 1 .124.843q-.413-.034-.838-.058-1.077-.061-2.233-.062-1.762 0-3.4.128v1.481a22.023 22.023 0 0 1 2.772-.171q.367 0 .729.013c.244-.008.492-.013.745-.013q.707 0 1.381.039.419.024.827.062a17.278 17.278 0 0 1 4.038.846c.163.057.321.109.475.161.278.094.541.183.789.279a4.123 4.123 0 0 1 1.2.667h2.757l-.032-.254-.343-3.221h-1.282l-1.585 1.221-.241-.066q-.411-.113-.812-.215c.013-.144.02-.29.02-.44s-.007-.279-.018-.415a4.645 4.645 0 0 0-1.786-3.3 7.519 7.519 0 0 0-4.944-1.494h-.08v-2.308h-1.99v2.308h-2.379v-2.308h-1.99v2.308h-7.042v1.4h1.729a2.02 2.02 0 0 1 1.134.241.741.741 0 0 1 .338.631v11.741a5.858 5.858 0 0 1-.83-.662 3.227 3.227 0 0 1-1.091-2.235v-.076a3.123 3.123 0 0 1 1.092-2.256v-2.848c-.353.1-.7.21-1.042.325q-5.372 1.818-5.44 4.851v.079q0 2.78 4.719 4.56.856.323 1.765.587.409.119.83.225a30.558 30.558 0 0 0 4.764.793q.409.037.83.067c1.031.072 2.116.108 3.261.108 1.217 0 2.349-.048 3.411-.141.29-.026.576-.054.856-.086a23.336 23.336 0 0 0 4.661-.994c.173-.057.34-.116.5-.176q.434-.163.81-.34a5.5 5.5 0 0 0 2.644-2.3zm-7.487 2.557c-.73.057-1.5.087-2.325.087q-.556 0-1.077-.018-.412.016-.833.017a21.792 21.792 0 0 1-2.523-.143q-.424-.05-.83-.115v-4.24h3.382a5.223 5.223 0 0 1 3.757 1.24 4.145 4.145 0 0 1 1.174 2.27 6.5 6.5 0 0 1 .1.823q-.402.046-.824.083z" class="prefix__cls-4" data-name="Path 13" transform="translate(-144.701 -277.725)"/>
                    <path id="prefix__Path_14" d="M169.911 321.589a3.653 3.653 0 0 1-.935 1.511 4.616 4.616 0 0 1-3.329 1.157h-2.885a.9.9 0 0 1-.737-.331 1.487 1.487 0 0 1-.271-.962v-1.343a31.459 31.459 0 0 1-4.764-.771v2.053a1.576 1.576 0 0 1-.361 1.037.992.992 0 0 1-.8.315h-2.039v1.4h7.042v1.835h1.99v-1.835h2.378v1.835h1.99v-1.847a12.835 12.835 0 0 0 4.115-.755 6.678 6.678 0 0 0 2.833-1.76 4.991 4.991 0 0 0 1.106-2.671l-.21.071a24.564 24.564 0 0 1-5.123 1.061z" class="prefix__cls-4" data-name="Path 14" transform="translate(-149.677 -301.121)"/>
                </g>
                <g id="prefix__Group_4" data-name="Group 4" transform="translate(26.478 1.251)">
                    <path id="prefix__Path_15" d="M195.8 265.421a2.63 2.63 0 0 1 1.79 1.836 1.368 1.368 0 0 0-1.021.163.908.908 0 0 0-.1.058 2.422 2.422 0 0 0-.405.328c.033-.134.065-.269.095-.405a1.951 1.951 0 0 0-.36-1.979zm-.419 7.247c-1.3-.059-2.335-1.681-2.315-3.662a5.014 5.014 0 0 1 .432-2.029 3.527 3.527 0 0 1 .376-.624 2.642 2.642 0 0 1 .2-.236c.827-.855 1.613-.48 1.561.655a3.179 3.179 0 0 1-.052.433 21.552 21.552 0 0 0-.736 3.915 1.779 1.779 0 0 0 .532 1.548z" class="prefix__cls-5" data-name="Path 15" transform="translate(-193.065 -265.421)"/>
                    <path id="prefix__Path_16" d="M200.983 270.092a2.7 2.7 0 0 1 1.862 1.971 5.164 5.164 0 0 1 .256 1.49 4.934 4.934 0 0 1-.658 2.653c-.713 1.183-1.694 1.078-1.744-.305a15.766 15.766 0 0 1 .665-3.836 1.948 1.948 0 0 0-.38-1.972zm-.342 7.239c-1.3-.045-2.349-1.654-2.349-3.632a5.012 5.012 0 0 1 .41-2.03 3.506 3.506 0 0 1 .37-.627 2.521 2.521 0 0 1 .2-.237c.816-.862 1.606-.5 1.565.637a3.128 3.128 0 0 1-.048.433 21.55 21.55 0 0 0-.693 3.916 1.778 1.778 0 0 0 .548 1.54z" class="prefix__cls-5" data-name="Path 16" transform="translate(-195.927 -267.978)"/>
                </g>
            </g>
        </g>
    </g>
</svg>
