<svg xmlns="http://www.w3.org/2000/svg" width="307.484" height="87.171"><g data-name="Group 3567"><text transform="translate(0 59)" fill="#f9b034" font-size="62" font-family="NewYorkExtraLarge-Medium, New York Extra Large" font-weight="500"><tspan x="0" y="0">Bitcoffeen</tspan></text><path data-name="Path 6118" d="M152.038 87V73.187h11.723V75.6h-9.329V87zm4.161-5.719v-2.109h6.992v2.109zM178.258 87l-3.5-3.838h-5.168v-2.128h5.757a2.574 2.574 0 001.976-.713 2.913 2.913 0 00.665-2.061 2.636 2.636 0 00-.693-2 2.724 2.724 0 00-1.948-.656h-7.524V87h-2.394V73.187h9.918a5.939 5.939 0 012.109.351 4.323 4.323 0 011.577 1.007 4.375 4.375 0 01.988 1.587 6.028 6.028 0 01.342 2.09 5.257 5.257 0 01-.75 2.9 4.2 4.2 0 01-2.1 1.682l4.161 4.2zm19.076 0l-2.071-3.477h-6.536l1.14-1.957h4.233l-3.074-5.166-6.27 10.6H182l7.942-13.224a1.829 1.829 0 01.494-.57 1.125 1.125 0 01.685-.206 1.084 1.084 0 01.674.209 1.891 1.891 0 01.484.57L200.241 87zm6.631-10.108V87h-2.3V74.46a1.571 1.571 0 01.335-1.054 1.125 1.125 0 01.9-.39 1.211 1.211 0 01.513.114 1.84 1.84 0 01.513.38l9.747 9.671V73.073h2.3v12.654a1.563 1.563 0 01-.332 1.064 1.1 1.1 0 01-.865.38 1.543 1.543 0 01-1.1-.513zM224.618 87a6.531 6.531 0 01-2.67-.541 6.631 6.631 0 01-2.128-1.482 6.694 6.694 0 01-1.406-2.233 7.625 7.625 0 01-.5-2.793 7.381 7.381 0 01.5-2.774 6.161 6.161 0 011.406-2.137 6.334 6.334 0 012.128-1.368 7.2 7.2 0 012.67-.484h7.482V75.6h-7.486a4.38 4.38 0 00-1.72.333 4.064 4.064 0 00-1.358.921 4.234 4.234 0 00-.893 1.406 4.869 4.869 0 00-.323 1.8 4.965 4.965 0 00.323 1.805 4.3 4.3 0 00.897 1.435 4.113 4.113 0 001.358.941 4.275 4.275 0 001.72.342h7.482V87zm20.558.057v-6h-6.954v-2.151h6.954v-5.719h2.413v13.87zm-11.115 0v-13.87h2.413v13.87zM250.116 87V73.187h2.413V87zm4.94 0v-2.413h10.355a2.088 2.088 0 001.489-.494 1.72 1.72 0 00.523-1.311 1.665 1.665 0 00-.523-1.339 2.231 2.231 0 00-1.489-.443h-6.346a4.991 4.991 0 01-1.757-.3 3.8 3.8 0 01-1.33-.817 3.593 3.593 0 01-.836-1.244 4.136 4.136 0 01-.294-1.577 4.258 4.258 0 01.275-1.549 3.309 3.309 0 01.817-1.226 3.863 3.863 0 011.34-.807 5.247 5.247 0 011.824-.295h9.918V75.6H259.1a1.769 1.769 0 00-1.292.447 1.662 1.662 0 00-.456 1.245 1.611 1.611 0 00.465 1.235 1.772 1.772 0 001.264.437h6.327a4.625 4.625 0 013.2.988 3.848 3.848 0 011.092 3 4.747 4.747 0 01-.266 1.615 3.485 3.485 0 01-.8 1.283 3.646 3.646 0 01-1.334.85 5.356 5.356 0 01-1.89.3zm16.72 0V73.187h12.331V75.6h-9.937v8.987h9.956V87zm4.161-6v-2.037h7.657V81z"/><g data-name="Group 3566" fill-rule="evenodd"><path data-name="Path 15" d="M296.382 8.686c1.937.368 3.577 2.127 4.474 4.59a3.419 3.419 0 00-2.553.407 2.267 2.267 0 00-.244.145 6.062 6.062 0 00-1.013.819c.083-.336.162-.673.236-1.013.392-1.8.492-3.732-.9-4.948zM295.336 26.8c-3.26-.147-5.838-4.2-5.786-9.154a12.534 12.534 0 011.08-5.072 8.814 8.814 0 01.941-1.56 6.593 6.593 0 01.5-.589c2.067-2.137 4.033-1.2 3.9 1.637a7.937 7.937 0 01-.13 1.084c-.638 3.407-1.776 6.108-1.839 9.786-.023 1.368.12 3 1.33 3.87z" fill="#f9b034"/><path data-name="Path 16" d="M302.185 13.97c2.039.365 3.766 2.272 4.655 4.927a12.909 12.909 0 01.639 3.725 12.334 12.334 0 01-1.646 6.631c-1.782 2.957-4.235 2.7-4.361-.763-.122-3.367.994-6.368 1.663-9.589.373-1.8.452-3.729-.95-4.931zm-.854 18.1c-3.255-.113-5.872-4.134-5.872-9.079a12.528 12.528 0 011.025-5.074 8.76 8.76 0 01.924-1.568 6.307 6.307 0 01.494-.593c2.041-2.156 4.013-1.24 3.913 1.591a7.817 7.817 0 01-.12 1.084c-.6 3.408-1.708 6.117-1.733 9.788-.008 1.366.152 3 1.369 3.85z"/></g></g></svg>