<svg xmlns="http://www.w3.org/2000/svg" width="164.75" height="41.423" viewBox="0 0 164.75 41.423">
    <defs>
        <style>
            .prefix__cls-1,.prefix__cls-3{fill:#2e1a1a}.prefix__cls-2{fill:#a5622b}.prefix__cls-3{fill-rule:evenodd}
        </style>
    </defs>
    <g id="prefix__Group_8" data-name="Group 8" transform="translate(-134.551 -262.656)">
        <g id="prefix__Group_1" data-name="Group 1" transform="translate(183.065 276.605)">
            <path id="prefix__Path_1" d="M233.837 291.626h4.583a7.794 7.794 0 013.976.8 2.7 2.7 0 011.3 2.476 3.129 3.129 0 01-.566 1.887 2.523 2.523 0 01-1.492 1.007v.09a3.056 3.056 0 011.77 1.078 3.254 3.254 0 01.548 1.959 3.356 3.356 0 01-1.343 2.817 5.883 5.883 0 01-3.662 1.029h-5.114zm3.55 5.042h1.07a1.93 1.93 0 001.182-.315 1.1 1.1 0 00.418-.934q0-1.106-1.671-1.105h-1zm0 2.6v2.759h1.249q1.662 0 1.662-1.4a1.207 1.207 0 00-.445-1.007 2.05 2.05 0 00-1.29-.35z" class="prefix__cls-1" data-name="Path 1" transform="translate(-233.837 -291.419)"/>
            <path id="prefix__Path_2" d="M259.217 304.765v-13.139h3.568v13.139z" class="prefix__cls-1" data-name="Path 2" transform="translate(-246.816 -291.419)"/>
            <path id="prefix__Path_3" d="M277.121 304.765h-3.549v-10.236h-3.208v-2.9h9.957v2.9h-3.2z" class="prefix__cls-1" data-name="Path 3" transform="translate(-252.515 -291.419)"/>
            <path id="prefix__Path_4" d="M299.927 294.152a2.265 2.265 0 00-1.978 1.038 5.016 5.016 0 00-.71 2.862q0 3.792 2.885 3.792a5.912 5.912 0 001.69-.243 16.917 16.917 0 001.644-.584v3a9.1 9.1 0 01-3.721.728 5.886 5.886 0 01-4.561-1.725 7.119 7.119 0 01-1.586-4.988 7.959 7.959 0 01.769-3.586 5.5 5.5 0 012.211-2.377 6.677 6.677 0 013.393-.831 9.347 9.347 0 014.071.926l-1.088 2.794a12.228 12.228 0 00-1.456-.575 5.084 5.084 0 00-1.563-.231z" class="prefix__cls-1" data-name="Path 4" transform="translate(-264.393 -291.222)"/>
            <path id="prefix__Path_5" d="M330.813 297.961a7.088 7.088 0 01-1.627 5.039 7.392 7.392 0 01-9.5-.009 8.516 8.516 0 01-.009-10.06 7.437 7.437 0 019.521-.014 7.092 7.092 0 011.615 5.044zm-9.041 0q0 3.811 2.651 3.81a2.28 2.28 0 002-.925 6.719 6.719 0 00-.009-5.792 2.254 2.254 0 00-1.973-.939q-2.669 0-2.669 3.846z" class="prefix__cls-1" data-name="Path 5" transform="translate(-276.893 -291.203)"/>
            <path id="prefix__Path_6" d="M352.538 304.765h-3.5v-13.139h7.764v2.849h-4.269v2.508h3.936v2.849h-3.936z" class="prefix__cls-1" data-name="Path 6" transform="translate(-292.749 -291.419)"/>
            <path id="prefix__Path_7" d="M372.842 304.765h-3.5v-13.139h7.764v2.849h-4.269v2.508h3.936v2.849h-3.936z" class="prefix__cls-1" data-name="Path 7" transform="translate(-303.132 -291.419)"/>
            <path id="prefix__Path_8" d="M397.451 304.765h-7.8v-13.139h7.8v2.849H393.2v2.067h3.936v2.849H393.2v2.48h4.251z" class="prefix__cls-1" data-name="Path 8" transform="translate(-313.515 -291.419)"/>
            <path id="prefix__Path_9" d="M418.122 304.765h-7.8v-13.139h7.8v2.849h-4.251v2.067h3.936v2.849h-3.936v2.48h4.251z" class="prefix__cls-1" data-name="Path 9" transform="translate(-324.086 -291.419)"/>
            <path id="prefix__Path_10" d="M443.5 304.765h-4.655l-4.8-9.256h-.081q.17 2.183.17 3.334v5.922h-3.145v-13.139h4.637l4.781 9.131h.054q-.126-1.986-.126-3.19v-5.94h3.165z" class="prefix__cls-1" data-name="Path 10" transform="translate(-334.657 -291.419)"/>
        </g>
        <g id="prefix__Group_5" data-name="Group 5" transform="translate(134.551 262.656)">
            <g id="prefix__Group_2" data-name="Group 2">
                <path id="prefix__Path_11" d="M137.221 284.732a19.407 19.407 0 1035.491-10.85 4.612 4.612 0 01-.523.973 18.425 18.425 0 11-8.508-7.159 5.305 5.305 0 01.311-.915 19.4 19.4 0 00-26.771 17.952z" class="prefix__cls-2" data-name="Path 11" transform="translate(-135.916 -264.021)"/>
                <path id="prefix__Path_12" d="M171.728 270.822a6.31 6.31 0 01-.148.935 20.011 20.011 0 11-8.66-6.905 4.114 4.114 0 01.419-.556 20.769 20.769 0 108.388 6.526z" class="prefix__cls-2" data-name="Path 12" transform="translate(-134.551 -262.656)"/>
            </g>
            <g id="prefix__Group_3" data-name="Group 3" transform="translate(4.96 7.363)">
                <path id="prefix__Path_13" d="M174.022 294.586a3.67 3.67 0 01-1.193.989 7.924 7.924 0 01-.813.382 4.906 4.906 0 00-.393-.809 5.428 5.428 0 00-1-1.21q-1.728-1.575-5.834-2.257a10.64 10.64 0 004.649-2.27 5.386 5.386 0 00.547-.6l-.308-.105a17.877 17.877 0 00-4.194-.871 3.93 3.93 0 01-1.035 2.071 5.614 5.614 0 01-3.992 1.166h-2.71v-8.052a1.119 1.119 0 01.414-1 4.257 4.257 0 011.955-.275q3.229 0 4.382.988a3.217 3.217 0 01.993 1.775 6.083 6.083 0 01.134.91q-.446-.037-.9-.063-1.163-.066-2.411-.067-1.9 0-3.667.138v1.6a23.783 23.783 0 012.993-.185q.4 0 .787.014c.264-.009.531-.014.8-.014q.763 0 1.491.042.453.026.893.067a18.656 18.656 0 014.36.914c.176.061.347.118.513.174.3.1.584.2.852.3a4.452 4.452 0 011.294.72h2.971l-.035-.275-.37-3.478h-1.387l-1.711 1.318-.26-.071q-.443-.122-.877-.232c.014-.155.021-.314.021-.475s-.008-.3-.02-.448a5.016 5.016 0 00-1.928-3.565 8.12 8.12 0 00-5.339-1.613h-.086v-2.492h-2.149v2.492H158.9v-2.492h-2.149v2.492h-7.6v1.509h1.867a2.182 2.182 0 011.225.26.8.8 0 01.365.682v12.678a6.325 6.325 0 01-.9-.714 3.484 3.484 0 01-1.178-2.414v-.082a3.372 3.372 0 011.18-2.436v-3.072c-.382.111-.757.227-1.125.351q-5.8 1.964-5.874 5.238V292.305q0 3 5.1 4.924.924.349 1.906.634.441.128.9.243a33 33 0 005.144.857q.442.04.9.072c1.114.078 2.285.117 3.522.117 1.314 0 2.536-.051 3.683-.152.313-.028.622-.058.924-.093a25.2 25.2 0 005.033-1.073c.187-.062.367-.126.541-.191q.469-.176.875-.367a5.939 5.939 0 002.855-2.482zm-8.084 2.761c-.789.062-1.622.094-2.511.094q-.6 0-1.162-.019-.445.018-.9.018a23.532 23.532 0 01-2.725-.154q-.457-.053-.9-.125v-4.578h3.652a5.639 5.639 0 014.057 1.339 4.476 4.476 0 011.267 2.451 7.014 7.014 0 01.11.889q-.433.049-.889.084z" class="prefix__cls-2" data-name="Path 13" transform="translate(-144.701 -277.725)"/>
                <path id="prefix__Path_14" d="M171.2 321.68a3.944 3.944 0 01-1.009 1.632 4.985 4.985 0 01-3.594 1.249h-3.115a.972.972 0 01-.8-.357 1.605 1.605 0 01-.292-1.038v-1.45a33.967 33.967 0 01-5.144-.832v2.216a1.7 1.7 0 01-.389 1.12 1.071 1.071 0 01-.86.341h-2.207v1.509h7.6v1.982h2.149v-1.982h2.569v1.982h2.149v-1.995a13.859 13.859 0 004.443-.816 7.211 7.211 0 003.059-1.9 5.389 5.389 0 001.194-2.884l-.226.077a26.525 26.525 0 01-5.527 1.146z" class="prefix__cls-2" data-name="Path 14" transform="translate(-149.349 -299.577)"/>
            </g>
            <g id="prefix__Group_4" data-name="Group 4" transform="translate(28.592 1.351)">
                <path id="prefix__Path_15" d="M196.017 265.421a2.84 2.84 0 011.933 1.983 1.477 1.477 0 00-1.1.176.983.983 0 00-.106.063 2.617 2.617 0 00-.438.354q.054-.218.1-.438a2.107 2.107 0 00-.388-2.137zm-.452 7.825c-1.408-.064-2.522-1.815-2.5-3.954a5.414 5.414 0 01.467-2.191 3.809 3.809 0 01.407-.674 2.851 2.851 0 01.217-.255c.893-.923 1.742-.518 1.685.707a3.432 3.432 0 01-.056.468 23.273 23.273 0 00-.795 4.227 1.921 1.921 0 00.575 1.672z" class="prefix__cls-3" data-name="Path 15" transform="translate(-193.065 -265.421)"/>
                <path id="prefix__Path_16" d="M201.2 270.092a2.92 2.92 0 012.011 2.128 5.576 5.576 0 01.276 1.609 5.328 5.328 0 01-.711 2.864c-.77 1.277-1.829 1.164-1.884-.33a17.024 17.024 0 01.718-4.142 2.1 2.1 0 00-.41-2.13zm-.369 7.817c-1.406-.049-2.536-1.786-2.536-3.922a5.412 5.412 0 01.443-2.192 3.785 3.785 0 01.4-.677 2.728 2.728 0 01.214-.256c.881-.931 1.734-.535 1.69.688a3.378 3.378 0 01-.052.468 23.27 23.27 0 00-.749 4.228 1.92 1.92 0 00.591 1.663z" class="prefix__cls-3" data-name="Path 16" transform="translate(-195.738 -267.81)"/>
            </g>
        </g>
        <g id="prefix__Group_6" data-name="Group 6" transform="translate(183.052 294.219)">
            <path id="prefix__Path_17" d="M235.8 332.933a2.482 2.482 0 01-.6.076 1.5 1.5 0 01-.023-2.984c.708 0 1.138.354 1.138.938 0 .453-.278.713-.867.8l-.925.142a.625.625 0 00.672.507 1.6 1.6 0 00.466-.059l.259-.066a.062.062 0 01.083.047l.118.442a.061.061 0 01-.047.082zm-.454-1.676c.207-.035.319-.129.319-.283 0-.236-.183-.36-.5-.36-.388 0-.654.243-.7.784z" class="prefix__cls-2" data-name="Path 17" transform="translate(-233.81 -328.67)"/>
            <path id="prefix__Path_18" d="M240.749 330.38c.036.07.071.065.136.006a1.054 1.054 0 01.814-.36 1.011 1.011 0 011.079 1.115v1.739a.059.059 0 01-.064.065h-.525a.059.059 0 01-.064-.065v-1.669c0-.371-.195-.6-.513-.6-.437 0-.69.319-.69.891v1.374a.059.059 0 01-.064.065h-.525a.059.059 0 01-.065-.065v-2.726a.059.059 0 01.065-.065h.295a.062.062 0 01.071.059z" class="prefix__cls-2" data-name="Path 18" transform="translate(-237.111 -328.67)"/>
            <path id="prefix__Path_19" d="M247.476 331.649a1.2 1.2 0 01-.666 1.085l-.148.1a.059.059 0 01-.094-.018l-.23-.419a.061.061 0 01.023-.088l.136-.094a.626.626 0 00.324-.566v-2.4h-.289a.059.059 0 01-.065-.065v-.454a.059.059 0 01.065-.065h.879a.059.059 0 01.065.065zm-.006-4a.389.389 0 11-.389-.4.36.36 0 01.389.397z" class="prefix__cls-2" data-name="Path 19" transform="translate(-240.211 -327.251)"/>
            <path id="prefix__Path_20" d="M252.723 331.511a1.364 1.364 0 11-1.356-1.485 1.33 1.33 0 011.356 1.485zm-2.07 0c0 .566.266.9.714.9s.708-.337.708-.9-.271-.9-.708-.9-.714.341-.714.9z" class="prefix__cls-2" data-name="Path 20" transform="translate(-242.092 -328.67)"/>
            <path id="prefix__Path_21" d="M257.489 334.222a.07.07 0 01-.07.053h-.543a.052.052 0 01-.053-.077l.313-.743a1.7 1.7 0 00-.112-1.326l-.784-1.9c-.018-.047.006-.077.053-.077h.548a.085.085 0 01.077.047l.466 1.114a5.127 5.127 0 01.242.861c.012.059.077.059.095-.006a5.7 5.7 0 01.253-.855l.46-1.114a.085.085 0 01.077-.047h.548c.047 0 .071.029.053.077z" class="prefix__cls-2" data-name="Path 21" transform="translate(-245.276 -328.732)"/>
            <path id="prefix__Path_22" d="M266.02 330.114a2.207 2.207 0 01.642-.088c.8 0 1.286.413 1.286 1.126v1.727a.059.059 0 01-.065.065h-.3a.073.073 0 01-.077-.053l-.047-.183c-.035-.083-.071-.083-.148-.012a1.038 1.038 0 01-.807.312c-.655 0-1.02-.337-1.02-.89s.377-.908 1.073-.908h.737v-.035c0-.359-.23-.554-.666-.554a1.621 1.621 0 00-.46.058l-.212.065a.062.062 0 01-.083-.047l-.129-.437a.06.06 0 01.047-.082zm.542 1.61c-.289 0-.425.136-.425.336 0 .23.159.372.442.372.466 0 .719-.23.719-.666v-.041z" class="prefix__cls-2" data-name="Path 22" transform="translate(-250.01 -328.67)"/>
            <path id="prefix__Path_23" d="M272.537 330.38c.036.07.07.065.136.006a1.054 1.054 0 01.814-.36 1.011 1.011 0 011.079 1.115v1.739a.059.059 0 01-.066.065h-.524a.059.059 0 01-.065-.065v-1.669c0-.371-.195-.6-.513-.6-.437 0-.69.319-.69.891v1.374a.059.059 0 01-.064.065h-.525a.059.059 0 01-.065-.065v-2.726a.059.059 0 01.065-.065h.3a.062.062 0 01.07.059z" class="prefix__cls-2" data-name="Path 23" transform="translate(-253.367 -328.67)"/>
            <path id="prefix__Path_24" d="M281.133 331.51a.059.059 0 01-.065.065h-.294c-.042 0-.065-.018-.071-.053l-.065-.248c-.018-.053-.059-.065-.118 0a1.077 1.077 0 01-.82.366c-.772 0-1.238-.578-1.238-1.5a1.3 1.3 0 011.321-1.485 1.183 1.183 0 01.525.1l.17.078v-1.421a.059.059 0 01.065-.065h.525a.059.059 0 01.065.065zm-.825-2.163a1.142 1.142 0 00-.483-.1c-.449 0-.72.337-.714.9s.259.9.7.9.678-.371.678-.867v-.749z" class="prefix__cls-2" data-name="Path 24" transform="translate(-256.644 -327.301)"/>
            <path id="prefix__Path_25" d="M289.759 332.933a2.48 2.48 0 01-.6.076 1.5 1.5 0 01-.023-2.984c.708 0 1.138.354 1.138.938 0 .453-.278.713-.867.8l-.925.142a.626.626 0 00.673.507 1.6 1.6 0 00.465-.059l.26-.066a.062.062 0 01.083.047l.118.442a.061.061 0 01-.047.082zm-.453-1.676c.206-.035.319-.129.319-.283 0-.236-.183-.36-.5-.36-.389 0-.655.243-.7.784z" class="prefix__cls-2" data-name="Path 25" transform="translate(-261.402 -328.67)"/>
            <path id="prefix__Path_26" d="M294.284 330.114a2.206 2.206 0 01.643-.088c.8 0 1.286.413 1.286 1.126v1.727a.059.059 0 01-.065.065h-.3a.073.073 0 01-.077-.053l-.047-.183c-.035-.083-.071-.083-.147-.012a1.04 1.04 0 01-.808.312c-.655 0-1.02-.337-1.02-.89s.377-.908 1.073-.908h.737v-.035c0-.359-.23-.554-.666-.554a1.618 1.618 0 00-.46.058l-.212.065a.062.062 0 01-.083-.047l-.13-.437a.061.061 0 01.047-.082zm.542 1.61c-.289 0-.425.136-.425.336 0 .23.159.372.443.372.466 0 .719-.23.719-.666v-.041z" class="prefix__cls-2" data-name="Path 26" transform="translate(-264.464 -328.67)"/>
            <path id="prefix__Path_27" d="M301.963 330.55a.059.059 0 01-.065.065c-.643.029-.925.478-.925 1.563v.7a.059.059 0 01-.065.065h-.525a.059.059 0 01-.064-.065v-2.728a.059.059 0 01.064-.065h.3a.071.071 0 01.076.053l.094.336c.036.065.065.076.118.018a1.1 1.1 0 01.932-.466.059.059 0 01.065.065z" class="prefix__cls-2" data-name="Path 27" transform="translate(-267.82 -328.67)"/>
            <path id="prefix__Path_28" d="M305.555 330.38c.036.07.071.065.136.006a1.055 1.055 0 01.814-.36 1.011 1.011 0 011.079 1.115v1.739a.059.059 0 01-.064.065h-.525a.06.06 0 01-.065-.065v-1.669c0-.371-.194-.6-.512-.6-.437 0-.689.319-.689.891v1.374a.06.06 0 01-.065.065h-.525a.059.059 0 01-.064-.065v-2.726a.059.059 0 01.064-.065h.3a.062.062 0 01.071.059z" class="prefix__cls-2" data-name="Path 28" transform="translate(-270.251 -328.67)"/>
            <path id="prefix__Path_29" d="M312.6 331.32a.385.385 0 01-.413.424.425.425 0 010-.849.385.385 0 01.413.425zm-.089-2.288c0 .419-.088 1.02-.112 1.457a.059.059 0 01-.065.064h-.347a.059.059 0 01-.065-.064c-.018-.437-.107-1.038-.107-1.457v-1.416a.06.06 0 01.065-.065h.566a.059.059 0 01.065.065z" class="prefix__cls-2" data-name="Path 29" transform="translate(-273.682 -327.405)"/>
        </g>
        <g id="prefix__Group_7" data-name="Group 7" transform="translate(292.08 269.914)">
            <path id="prefix__Path_30" d="M456.94 277.51h3.082v.811h-1.034v2.471h-1.014v-2.471h-1.034z" class="prefix__cls-2" data-name="Path 30" transform="translate(-456.94 -277.51)"/>
            <path id="prefix__Path_31" d="M464.165 277.51h1.335l.515 2 .51-2h1.333v3.282h-.831v-2.5l-.64 2.5h-.751l-.639-2.5v2.5h-.83z" class="prefix__cls-2" data-name="Path 31" transform="translate(-460.635 -277.51)"/>
        </g>
    </g>
</svg>
