<svg xmlns="http://www.w3.org/2000/svg" width="567.117" height="567.118"><defs><filter id="prefix__Path_5151" width="44.514" height="32.008" x="421.266" y="266.947" filterUnits="userSpaceOnUse"><feOffset dx="3" dy="3"/><feGaussianBlur result="blur" stdDeviation="3"/><feFlood flood-opacity=".063"/><feComposite in2="blur" operator="in"/><feComposite in="SourceGraphic"/></filter><filter id="prefix__Path_5152" width="91.469" height="55.446" x="470.97" y="296.881" filterUnits="userSpaceOnUse"><feOffset dx="3" dy="3"/><feGaussianBlur result="blur-2" stdDeviation="3"/><feFlood flood-opacity=".063"/><feComposite in2="blur-2" operator="in"/><feComposite in="SourceGraphic"/></filter><filter id="prefix__Path_5153" width="74.692" height="37.568" x="478.8" y="274.052" filterUnits="userSpaceOnUse"><feOffset dx="3" dy="3"/><feGaussianBlur result="blur-3" stdDeviation="3"/><feFlood flood-opacity=".063"/><feComposite in2="blur-3" operator="in"/><feComposite in="SourceGraphic"/></filter><filter id="prefix__Path_5154" width="91.494" height="55.498" x="471.507" y="213.198" filterUnits="userSpaceOnUse"><feOffset dx="3" dy="3"/><feGaussianBlur result="blur-4" stdDeviation="3"/><feFlood flood-opacity=".063"/><feComposite in2="blur-4" operator="in"/><feComposite in="SourceGraphic"/></filter><filter id="prefix__Path_5155" width="74.691" height="37.563" x="479.359" y="253.931" filterUnits="userSpaceOnUse"><feOffset dx="3" dy="3"/><feGaussianBlur result="blur-5" stdDeviation="3"/><feFlood flood-opacity=".063"/><feComposite in2="blur-5" operator="in"/><feComposite in="SourceGraphic"/></filter><filter id="prefix__Path_5156" width="32.011" height="44.513" x="266.947" y="421.265" filterUnits="userSpaceOnUse"><feOffset dx="3" dy="3"/><feGaussianBlur result="blur-6" stdDeviation="3"/><feFlood flood-opacity=".063"/><feComposite in2="blur-6" operator="in"/><feComposite in="SourceGraphic"/></filter><filter id="prefix__Path_5157" width="55.445" height="91.468" x="296.882" y="470.97" filterUnits="userSpaceOnUse"><feOffset dx="3" dy="3"/><feGaussianBlur result="blur-7" stdDeviation="3"/><feFlood flood-opacity=".063"/><feComposite in2="blur-7" operator="in"/><feComposite in="SourceGraphic"/></filter><filter id="prefix__Path_5158" width="37.569" height="74.692" x="274.054" y="478.798" filterUnits="userSpaceOnUse"><feOffset dx="3" dy="3"/><feGaussianBlur result="blur-8" stdDeviation="3"/><feFlood flood-opacity=".063"/><feComposite in2="blur-8" operator="in"/><feComposite in="SourceGraphic"/></filter><filter id="prefix__Path_5159" width="567.117" height="567.118" x="0" y="0" filterUnits="userSpaceOnUse"><feOffset dx="3" dy="3"/><feGaussianBlur result="blur-9" stdDeviation="3"/><feFlood flood-opacity=".063"/><feComposite in2="blur-9" operator="in"/><feComposite in="SourceGraphic"/></filter><filter id="prefix__Path_5160" width="55.473" height="91.466" x="213.224" y="471.531" filterUnits="userSpaceOnUse"><feOffset dx="3" dy="3"/><feGaussianBlur result="blur-10" stdDeviation="3"/><feFlood flood-opacity=".063"/><feComposite in2="blur-10" operator="in"/><feComposite in="SourceGraphic"/></filter><filter id="prefix__Path_5161" width="37.564" height="74.691" x="253.933" y="479.358" filterUnits="userSpaceOnUse"><feOffset dx="3" dy="3"/><feGaussianBlur result="blur-11" stdDeviation="3"/><feFlood flood-opacity=".063"/><feComposite in2="blur-11" operator="in"/><feComposite in="SourceGraphic"/></filter><filter id="prefix__Path_5162" width="32.01" height="44.512" x="268.162" y="101.338" filterUnits="userSpaceOnUse"><feOffset dx="3" dy="3"/><feGaussianBlur result="blur-12" stdDeviation="3"/><feFlood flood-opacity=".063"/><feComposite in2="blur-12" operator="in"/><feComposite in="SourceGraphic"/></filter><filter id="prefix__Path_5163" width="55.445" height="91.469" x="214.792" y="4.679" filterUnits="userSpaceOnUse"><feOffset dx="3" dy="3"/><feGaussianBlur result="blur-13" stdDeviation="3"/><feFlood flood-opacity=".063"/><feComposite in2="blur-13" operator="in"/><feComposite in="SourceGraphic"/></filter><filter id="prefix__Path_5164" width="37.569" height="74.69" x="255.496" y="13.628" filterUnits="userSpaceOnUse"><feOffset dx="3" dy="3"/><feGaussianBlur result="blur-14" stdDeviation="3"/><feFlood flood-opacity=".063"/><feComposite in2="blur-14" operator="in"/><feComposite in="SourceGraphic"/></filter><filter id="prefix__Path_5165" width="55.473" height="91.47" x="298.422" y="4.117" filterUnits="userSpaceOnUse"><feOffset dx="3" dy="3"/><feGaussianBlur result="blur-15" stdDeviation="3"/><feFlood flood-opacity=".063"/><feComposite in2="blur-15" operator="in"/><feComposite in="SourceGraphic"/></filter><filter id="prefix__Path_5166" width="37.563" height="74.689" x="275.622" y="13.067" filterUnits="userSpaceOnUse"><feOffset dx="3" dy="3"/><feGaussianBlur result="blur-16" stdDeviation="3"/><feFlood flood-opacity=".063"/><feComposite in2="blur-16" operator="in"/><feComposite in="SourceGraphic"/></filter><filter id="prefix__Path_5167" width="44.515" height="32.01" x="101.339" y="268.16" filterUnits="userSpaceOnUse"><feOffset dx="3" dy="3"/><feGaussianBlur result="blur-17" stdDeviation="3"/><feFlood flood-opacity=".063"/><feComposite in2="blur-17" operator="in"/><feComposite in="SourceGraphic"/></filter><filter id="prefix__Path_5168" width="91.468" height="55.447" x="4.681" y="214.789" filterUnits="userSpaceOnUse"><feOffset dx="3" dy="3"/><feGaussianBlur result="blur-18" stdDeviation="3"/><feFlood flood-opacity=".063"/><feComposite in2="blur-18" operator="in"/><feComposite in="SourceGraphic"/></filter><filter id="prefix__Path_5169" width="74.691" height="37.571" x="13.628" y="255.495" filterUnits="userSpaceOnUse"><feOffset dx="3" dy="3"/><feGaussianBlur result="blur-19" stdDeviation="3"/><feFlood flood-opacity=".063"/><feComposite in2="blur-19" operator="in"/><feComposite in="SourceGraphic"/></filter><filter id="prefix__Path_5170" width="91.49" height="55.5" x="4.119" y="298.421" filterUnits="userSpaceOnUse"><feOffset dx="3" dy="3"/><feGaussianBlur result="blur-20" stdDeviation="3"/><feFlood flood-opacity=".063"/><feComposite in2="blur-20" operator="in"/><feComposite in="SourceGraphic"/></filter><filter id="prefix__Path_5171" width="74.693" height="37.566" x="13.067" y="275.621" filterUnits="userSpaceOnUse"><feOffset dx="3" dy="3"/><feGaussianBlur result="blur-21" stdDeviation="3"/><feFlood flood-opacity=".063"/><feComposite in2="blur-21" operator="in"/><feComposite in="SourceGraphic"/></filter><filter id="prefix__Path_5172" width="61.682" height="65.696" x="141.859" y="396.072" filterUnits="userSpaceOnUse"><feOffset dx="3" dy="3"/><feGaussianBlur result="blur-22" stdDeviation="3"/><feFlood flood-opacity=".063"/><feComposite in2="blur-22" operator="in"/><feComposite in="SourceGraphic"/></filter><filter id="prefix__Path_5173" width="79.563" height="63.199" x="49.325" y="380.482" filterUnits="userSpaceOnUse"><feOffset dx="3" dy="3"/><feGaussianBlur result="blur-23" stdDeviation="3"/><feFlood flood-opacity=".063"/><feComposite in2="blur-23" operator="in"/><feComposite in="SourceGraphic"/></filter><filter id="prefix__Path_5174" width="114.832" height="93.608" x="72.047" y="435.216" filterUnits="userSpaceOnUse"><feOffset dx="3" dy="3"/><feGaussianBlur result="blur-24" stdDeviation="3"/><feFlood flood-opacity=".063"/><feComposite in2="blur-24" operator="in"/><feComposite in="SourceGraphic"/></filter><filter id="prefix__Path_5175" width="63.928" height="77.265" x="118.597" y="360.181" filterUnits="userSpaceOnUse"><feOffset dx="3" dy="3"/><feGaussianBlur result="blur-25" stdDeviation="3"/><feFlood flood-opacity=".063"/><feComposite in2="blur-25" operator="in"/><feComposite in="SourceGraphic"/></filter><filter id="prefix__Path_5176" width="65.697" height="61.682" x="396.074" y="141.857" filterUnits="userSpaceOnUse"><feOffset dx="3" dy="3"/><feGaussianBlur result="blur-26" stdDeviation="3"/><feFlood flood-opacity=".063"/><feComposite in2="blur-26" operator="in"/><feComposite in="SourceGraphic"/></filter><filter id="prefix__Path_5177" width="63.198" height="79.561" x="380.485" y="49.323" filterUnits="userSpaceOnUse"><feOffset dx="3" dy="3"/><feGaussianBlur result="blur-27" stdDeviation="3"/><feFlood flood-opacity=".063"/><feComposite in2="blur-27" operator="in"/><feComposite in="SourceGraphic"/></filter><filter id="prefix__Path_5178" width="93.61" height="114.829" x="435.216" y="72.045" filterUnits="userSpaceOnUse"><feOffset dx="3" dy="3"/><feGaussianBlur result="blur-28" stdDeviation="3"/><feFlood flood-opacity=".063"/><feComposite in2="blur-28" operator="in"/><feComposite in="SourceGraphic"/></filter><filter id="prefix__Path_5179" width="77.264" height="63.929" x="360.184" y="118.595" filterUnits="userSpaceOnUse"><feOffset dx="3" dy="3"/><feGaussianBlur result="blur-29" stdDeviation="3"/><feFlood flood-opacity=".063"/><feComposite in2="blur-29" operator="in"/><feComposite in="SourceGraphic"/></filter><filter id="prefix__Path_5180" width="65.698" height="61.682" x="396.072" y="367.896" filterUnits="userSpaceOnUse"><feOffset dx="3" dy="3"/><feGaussianBlur result="blur-30" stdDeviation="3"/><feFlood flood-opacity=".063"/><feComposite in2="blur-30" operator="in"/><feComposite in="SourceGraphic"/></filter><filter id="prefix__Path_5181" width="63.197" height="79.562" x="380.484" y="442.551" filterUnits="userSpaceOnUse"><feOffset dx="3" dy="3"/><feGaussianBlur result="blur-31" stdDeviation="3"/><feFlood flood-opacity=".063"/><feComposite in2="blur-31" operator="in"/><feComposite in="SourceGraphic"/></filter><filter id="prefix__Path_5182" width="93.61" height="114.832" x="435.215" y="384.56" filterUnits="userSpaceOnUse"><feOffset dx="3" dy="3"/><feGaussianBlur result="blur-32" stdDeviation="3"/><feFlood flood-opacity=".063"/><feComposite in2="blur-32" operator="in"/><feComposite in="SourceGraphic"/></filter><filter id="prefix__Path_5183" width="77.265" height="63.929" x="360.183" y="388.912" filterUnits="userSpaceOnUse"><feOffset dx="3" dy="3"/><feGaussianBlur result="blur-33" stdDeviation="3"/><feFlood flood-opacity=".063"/><feComposite in2="blur-33" operator="in"/><feComposite in="SourceGraphic"/></filter><filter id="prefix__Path_5184" width="61.682" height="65.697" x="141.859" y="109.667" filterUnits="userSpaceOnUse"><feOffset dx="3" dy="3"/><feGaussianBlur result="blur-34" stdDeviation="3"/><feFlood flood-opacity=".063"/><feComposite in2="blur-34" operator="in"/><feComposite in="SourceGraphic"/></filter><filter id="prefix__Path_5185" width="79.562" height="63.199" x="49.323" y="127.755" filterUnits="userSpaceOnUse"><feOffset dx="3" dy="3"/><feGaussianBlur result="blur-35" stdDeviation="3"/><feFlood flood-opacity=".063"/><feComposite in2="blur-35" operator="in"/><feComposite in="SourceGraphic"/></filter><filter id="prefix__Path_5186" width="114.83" height="93.609" x="72.046" y="42.611" filterUnits="userSpaceOnUse"><feOffset dx="3" dy="3"/><feGaussianBlur result="blur-36" stdDeviation="3"/><feFlood flood-opacity=".063"/><feComposite in2="blur-36" operator="in"/><feComposite in="SourceGraphic"/></filter><filter id="prefix__Path_5187" width="63.928" height="77.266" x="118.597" y="133.989" filterUnits="userSpaceOnUse"><feOffset dx="3" dy="3"/><feGaussianBlur result="blur-37" stdDeviation="3"/><feFlood flood-opacity=".063"/><feComposite in2="blur-37" operator="in"/><feComposite in="SourceGraphic"/></filter><style>.prefix__cls-1{fill:#f2f2f2}</style></defs><g id="prefix__Group_3497" data-name="Group 3497"><path id="prefix__Path_5151-2" d="M921.528 1638.25l1.1-1.254c3.428-3.915 7.235-5.769 11.484-5.75 7 .029 12.4 5.439 12.622 5.67l1.311 1.332-1.334 1.355c-.6.605-6.085 5.878-13.113 5.643-4.064-.135-7.754-2.066-10.97-5.744zm12.194 3.192c3.647.121 6.887-1.812 8.719-3.194a14.653 14.653 0 00-8.347-3.2 4.32 4.32 0 10-.372 6.392z" class="prefix__cls-1" data-name="Path 5151" transform="translate(-494.26 -1358.3)"/><path id="prefix__Path_5152-2" d="M819.078 1700.419L829.244 1689c1.7-1.9 3.417-3.731 5.116-5.429 29.659-29.659 52.385-19.772 56.421-15.735l.506.505 1.26 18.9-3.5-3.193c-19.286-17.61-56.938 7.539-57.318 7.8zm50.867-33.248a39.1 39.1 0 00-7.759 1.943l.185 5.693a50.206 50.206 0 017.649-.848zm-11.518 3.475a56.288 56.288 0 00-5.883 3.141l-.425 3.757a75.142 75.142 0 016.467-1.926zm15.321-3.774l.079 7.145a33.7 33.7 0 014.3.578l2.1-7.163a29.355 29.355 0 00-6.479-.56zm13.852 3.328a19.927 19.927 0 00-3.7-1.745l-2.084 7.1a26.957 26.957 0 016.337 3zm-39.474 8.849l.283-2.518a84.039 84.039 0 00-6.664 5.32 97.124 97.124 0 016.377-2.803z" class="prefix__cls-1" data-name="Path 5152" transform="translate(-342.11 -1360.09)"/><path id="prefix__Path_5153-2" d="M841.736 1658.075c-7.937-1.086-12.373-5.118-13.045-6.057l-.13-.184 1.3-13.057.917 1.17c14.132 18 49.751 1.935 50.109 1.772l4.37-2.006-3.745 3.014c-18.25 14.687-31.703 16.454-39.776 15.348zm.163-1.183c.281.039.583.065.878.1l1.237-7.952a27.986 27.986 0 01-5.168-1.561l-3.661 7.563a25.393 25.393 0 006.715 1.85zm-11.141-15.1l-.961 9.7a15.313 15.313 0 004.313 3.026l3.647-7.532a21.963 21.963 0 01-6.999-5.198zm24.149 7.881l-.867 6.468a48.722 48.722 0 007.391-2.427l1.448-5.089a63.455 63.455 0 01-7.972 1.044zm9.292-1.316l-1.352 4.744a77.43 77.43 0 0014.416-8.6 90.972 90.972 0 01-13.063 3.851zm-11.4 8.047l.892-6.668a41.772 41.772 0 01-8.5-.469l-1.215 7.824a33.743 33.743 0 008.824-.691z" class="prefix__cls-1" data-name="Path 5153" transform="translate(-343.76 -1358.72)"/><path id="prefix__Path_5154-2" d="M828.671 1585.713l-10.189-11.437 12.677 8.6c.379.255 38.013 25.422 57.318 7.795l3.5-3.193-1.262 18.9-.5.506c-1.106 1.105-7.271 5.17-17.262 4.881-9.875-.292-25.567-5.04-44.282-26.052zm19.16 12.461l-.281-2.5c-2.258-.9-4.4-1.851-6.363-2.8a83.7 83.7 0 006.644 5.3zm21.617 2.583a50.7 50.7 0 01-7.65-.849l-.184 5.735a38.985 38.985 0 007.759 1.982zm-11.432-1.66a74.796 74.796 0 01-6.466-1.924l.421 3.751a57 57 0 005.885 3.166zm15.24 1.6l-.079 7.241a28.706 28.706 0 006.51-.565l-2.132-7.257a34.139 34.139 0 01-4.3.584zm14.324-4.537a27.085 27.085 0 01-6.338 3l2.109 7.175a18.132 18.132 0 003.67-1.778z" class="prefix__cls-1" data-name="Path 5154" transform="translate(-340.97 -1355.08)"/><path id="prefix__Path_5155-2" d="M831.815 1634.005a20.286 20.286 0 00-1.631 1.839l-.919 1.169-1.3-13.056.133-.183a4.554 4.554 0 01.464-.528c.731-.731 18.3-17.591 52.35 9.82l3.744 3.011-4.368-2c-.33-.157-33.445-15.101-48.473-.072zm11.61-7.242l-1.236-7.962a25.409 25.409 0 00-7.583 1.979l3.66 7.557a28.235 28.235 0 015.159-1.574zm-14.219-2.454l.962 9.7c.26-.289.526-.573.8-.845a22.1 22.1 0 016.205-4.338l-3.648-7.531a16.887 16.887 0 00-4.112 2.8c-.081.078-.15.15-.207.215zm24.24-4.678l.873 6.506a63.372 63.372 0 017.974 1.043l-1.464-5.141a47.593 47.593 0 00-7.382-2.407zm8.8 3.037l1.361 4.778a91.057 91.057 0 0113.07 3.854 77.708 77.708 0 00-14.426-8.632zm-9.145 3.4l-.9-6.725a33.49 33.49 0 00-8.822-.653l1.22 7.855a41.743 41.743 0 018.507-.473z" class="prefix__cls-1" data-name="Path 5155" transform="translate(-342.61 -1357.52)"/><path id="prefix__Path_5156-2" d="M1098.347 1807.392c-.02-4.252 1.833-8.063 5.754-11.487l1.254-1.1 1.251 1.1c3.676 3.215 5.608 6.906 5.745 10.969.233 7.028-5.04 12.51-5.643 13.112l-1.356 1.334-1.334-1.309c-.233-.223-5.639-5.618-5.671-12.619zm10.2-.389a10.71 10.71 0 00-3.192-7.025 10.611 10.611 0 00-3.2 7.374 14.7 14.7 0 003.2 8.366c1.379-1.834 3.311-5.072 3.189-8.718z" class="prefix__cls-1" data-name="Path 5156" transform="translate(-825.4 -1367.54)"/><path id="prefix__Path_5157-2" d="M1062.38 1862.775c1.7-1.7 3.527-3.422 5.433-5.117l11.412-10.164-8.572 12.653c-.255.379-25.4 38.031-7.8 57.318l3.193 3.5-18.9-1.259-.508-.508c-4.028-4.038-13.915-26.765 15.742-56.423zm-14.458 27.827a38.984 38.984 0 00-1.944 7.757l6.788.076a50.007 50.007 0 01.848-7.65zm6.5-3.6c.55-2.21 1.2-4.376 1.927-6.466l-3.755.422a56.125 56.125 0 00-3.141 5.883zm-8.745 15.163a29.3 29.3 0 00.559 6.479l7.163-2.1a34.542 34.542 0 01-.579-4.3zm9.657-25.346l2.518-.285a101.649 101.649 0 012.806-6.38 83.352 83.352 0 00-5.322 6.665zm2.023 39.746a26.968 26.968 0 01-3-6.336l-7.1 2.086a19.992 19.992 0 001.745 3.7z" class="prefix__cls-1" data-name="Path 5157" transform="translate(-738.9 -1370.52)"/><path id="prefix__Path_5158-2" d="M1086.092 1858.005l-1.169-.92 13.056-1.3.184.132c.938.672 4.973 5.107 6.06 13.047 1.1 8.072-.661 21.52-15.35 39.767l-3.013 3.745 2-4.367c.168-.354 16.234-35.975-1.768-50.104zm8.674 32.1l5.086-1.448a48.486 48.486 0 002.432-7.391l-6.468.867a63.536 63.536 0 01-1.05 7.976zm2.866-33.082l-9.7.962a21.932 21.932 0 015.191 7l7.532-3.647a15.341 15.341 0 00-3.023-4.311zm3.549 5.388l-7.56 3.66a28.011 28.011 0 011.56 5.167l7.954-1.234c-.031-.3-.06-.6-.1-.88a25.251 25.251 0 00-1.854-6.709zm2.051 8.787l-7.825 1.216a41.486 41.486 0 01.469 8.506l6.671-.895a33.831 33.831 0 00.685-8.825zm-3.99 18.875l-4.745 1.354a90.826 90.826 0 01-3.856 13.063 77.416 77.416 0 008.601-14.414z" class="prefix__cls-1" data-name="Path 5158" transform="translate(-804.87 -1370.99)"/><path id="prefix__Path_5159-2" d="M1009.7 1757.128c9.643-23.7 21.266-39.472 27.138-46.573a128.176 128.176 0 01-42.654 8.2l-1.871-.016-.015-1.868a128.2 128.2 0 017.718-41.376 182.877 182.877 0 01-45.607 26.347c-29.947 12.185-78.6 23.18-140.293 6.353l1-3.672c115.945 31.621 186.791-35.631 187.492-36.314l.262.267a93.5 93.5 0 0110.048-17.289 77.311 77.311 0 01-34.511 7.961c-.254 0-.5-.018-.76-.02.282 5.222-3.432 9.942-6.159 12.673-.466.463-.895.865-1.278 1.2a8.854 8.854 0 01-12.682 11.859c-4.2 2.257-18.869 9.627-29.524 8.7a8.84 8.84 0 01-17.4 2.061c-3.859 1.292-11.923 3.286-20.419 1.166a8.841 8.841 0 01-17.084 1.235c-4.844 1.417-17.307 3.938-30.121-2.312a8.784 8.784 0 01-1 1.22 8.922 8.922 0 112.451-4.742c12.288 6.087 24.58 3.105 28.244 1.969a8.787 8.787 0 012.5-5.3 8.891 8.891 0 0112.562 0 8.775 8.775 0 012.236 3.909c8.81 2.623 17.608-.08 20.455-1.13a8.838 8.838 0 0116.747-2.011c8.854 1.524 22.761-5.113 27.745-7.7a8.856 8.856 0 0112.646-11.685c2.174-1.947 6.732-6.64 6.242-11.258a94.168 94.168 0 01-27.622-6.126 56.455 56.455 0 01-10.509 14.688 42.033 42.033 0 01-24.365 12.435c-12.014 1.585-22.369-2.91-27.7-12.031a21.973 21.973 0 011.256-24.644c5.03-6.712 13.068-9.286 21.5-6.9 8.953 2.539 15.723 10.017 16.466 18.183.817 8.989-4.818 14.819-10.77 16.61a13.485 13.485 0 01-16.131-6.563c-3.79-7.033-1.457-12.286 1.993-14.847 3.779-2.813 8.963-2.8 11.8.04l-2.691 2.689c-1.48-1.479-4.609-1.331-6.834.327-2.865 2.124-3.186 5.767-.914 9.989a9.683 9.683 0 0011.685 4.721c4.14-1.246 8.738-5.3 8.073-12.62-.6-6.633-6.242-12.748-13.714-14.866-3.292-.934-11.569-2.278-17.411 5.516a18.219 18.219 0 00-1.016 20.439c4.534 7.755 13.477 11.558 23.917 10.181 19.263-2.543 29.321-19.841 31.814-24.766a134.038 134.038 0 01-40.184-26.635l-1.244-1.422 1.334-1.336a137.672 137.672 0 0140.464-26.575c-2.793-5.385-12.792-21.894-31.621-24.382-10.442-1.375-19.387 2.431-23.921 10.182a18.221 18.221 0 001.018 20.439c5.834 7.783 14.121 6.449 17.41 5.516 7.472-2.12 13.11-8.235 13.715-14.865.664-7.321-3.934-11.373-8.073-12.62a9.679 9.679 0 00-11.684 4.723c-2.274 4.221-1.941 7.863.916 9.989 2.224 1.654 5.351 1.8 6.829.323l2.69 2.693c-2.834 2.831-8.012 2.849-11.791.037-3.449-2.567-5.783-7.811-1.994-14.85a13.484 13.484 0 0116.13-6.561c5.948 1.791 11.585 7.621 10.767 16.61-.742 8.167-7.511 15.643-16.465 18.183-8.427 2.392-16.464-.186-21.5-6.9a21.966 21.966 0 01-1.255-24.642c5.329-9.119 15.69-13.618 27.7-12.035 21.189 2.8 31.864 21.091 34.682 26.739a93.378 93.378 0 0127.854-6.111c.237-4.538-4.155-9.008-6.28-10.894a8.855 8.855 0 01-12.65-11.679c-4.981-2.591-18.88-9.231-27.743-7.7a8.8 8.8 0 01-1.754 2.565 8.877 8.877 0 01-14.985-4.572c-2.851-1.052-11.644-3.753-20.456-1.132a8.794 8.794 0 01-2.235 3.909 8.9 8.9 0 01-12.563 0 8.78 8.78 0 01-2.5-5.309c-3.655-1.14-15.913-4.136-28.246 1.975a9.195 9.195 0 11-1.453-3.522c12.812-6.249 25.276-3.729 30.118-2.309a8.783 8.783 0 012.084-3.4 8.873 8.873 0 0115 4.631c8.5-2.117 16.562-.122 20.421 1.167a8.779 8.779 0 012.266-4 8.858 8.858 0 0115.136 6.063c10.657-.924 25.325 6.444 29.526 8.7a8.853 8.853 0 0112.681 11.858c2.57 2.3 7.555 7.557 7.437 13.531a75.59 75.59 0 013.19.025 77.944 77.944 0 0134.788 9.574 90.242 90.242 0 01-12.16-19.211l-.858.877c-.7-.683-71.447-67.96-187.492-36.312l-1-3.672c61.694-16.827 110.345-5.833 140.292 6.352 23.728 9.654 39.519 21.3 46.6 27.164a131.582 131.582 0 01-9.276-44.809l.015-1.869 1.869-.019a131.718 131.718 0 0143.3 8.669 183.16 183.16 0 01-26.207-45.436c-12.187-29.947-23.18-78.6-6.353-140.292l3.669 1c-31.619 115.947 35.633 186.789 36.317 187.495l-.311.3a91.289 91.289 0 0117.716 10.929 77.638 77.638 0 01-8.649-33.005 80.82 80.82 0 01-.024-3.188c-5.975.117-11.232-4.867-13.53-7.436a8.854 8.854 0 01-11.861-12.682c-2.256-4.2-9.626-18.869-8.7-29.524a8.841 8.841 0 01-2.06-17.4c-1.289-3.86-3.285-11.922-1.168-20.421a8.872 8.872 0 01-4.63-15 8.728 8.728 0 013.4-2.085c-1.421-4.843-3.939-17.305 2.31-30.119a8.807 8.807 0 01-1.222-1 8.927 8.927 0 114.744 2.45c-6.087 12.287-3.106 24.581-1.97 28.245a8.777 8.777 0 015.3 2.5 8.891 8.891 0 010 12.561 8.791 8.791 0 01-3.911 2.236c-2.618 8.811.08 17.605 1.132 20.456a8.8 8.8 0 014.572 2.431 8.808 8.808 0 01-2.563 14.313c-1.525 8.855 5.115 22.76 7.7 27.746a8.856 8.856 0 0111.684 12.645c1.9 2.115 6.388 6.5 10.887 6.28a93.266 93.266 0 016.113-27.846c-5.646-2.819-23.942-13.493-26.739-34.685-1.587-12.012 2.911-22.368 12.032-27.7a21.966 21.966 0 0124.645 1.257c6.708 5.031 9.286 13.07 6.894 21.5-2.541 8.95-10.018 15.721-18.183 16.463-8.989.82-14.822-4.818-16.61-10.766a13.489 13.489 0 016.562-16.134c7.036-3.787 12.281-1.454 14.846 1.994 2.815 3.781 2.8 8.961-.036 11.8l-2.693-2.693c1.479-1.477 1.332-4.608-.324-6.831-2.126-2.856-5.765-3.189-9.989-.913a9.679 9.679 0 00-4.723 11.684c1.247 4.139 5.3 8.738 12.622 8.073 6.631-.6 12.746-6.242 14.866-13.715.932-3.289 2.264-11.575-5.517-17.412a18.22 18.22 0 00-20.439-1.016c-7.751 4.533-11.562 13.476-10.182 23.918 2.483 18.786 19 28.818 24.386 31.617a137.867 137.867 0 0126.66-40.546l1.334-1.312 1.334 1.312a134.012 134.012 0 0126.632 40.186c4.921-2.48 22.219-12.5 24.768-31.815 1.378-10.443-2.427-19.384-10.181-23.919a18.224 18.224 0 00-20.439 1.016c-7.783 5.836-6.451 14.122-5.517 17.414 2.119 7.471 8.233 13.109 14.867 13.714 7.32.664 11.375-3.933 12.621-8.075a9.681 9.681 0 00-4.724-11.684c-4.221-2.272-7.866-1.954-9.989.915-1.654 2.224-1.8 5.354-.324 6.833l-2.692 2.691c-2.834-2.833-2.85-8.016-.038-11.8 2.567-3.453 7.812-5.783 14.85-1.995a13.485 13.485 0 016.561 16.131c-1.789 5.952-7.62 11.586-16.61 10.769-8.167-.741-15.645-7.513-18.183-16.465-2.391-8.43.183-16.463 6.895-21.5a21.967 21.967 0 0124.643-1.256c9.122 5.335 13.62 15.693 12.034 27.7a42.011 42.011 0 01-12.436 24.363 56.4 56.4 0 01-14.692 10.511 94.02 94.02 0 016.126 27.624c4.669.512 9.333-4.056 11.269-6.241a8.854 8.854 0 0111.678-12.649c2.592-4.982 9.231-18.883 7.705-27.746a8.8 8.8 0 01-2.565-1.753 8.877 8.877 0 014.578-14.995c1.054-2.841 3.76-11.613 1.127-20.454a8.826 8.826 0 011.4-17.3c1.143-3.653 4.137-15.912-1.973-28.243a9.247 9.247 0 113.521-1.455c6.25 12.812 3.728 25.275 2.31 30.118a8.778 8.778 0 013.4 2.083 8.873 8.873 0 01-4.63 15c2.118 8.5.122 16.561-1.168 20.422a8.749 8.749 0 014 2.265 8.86 8.86 0 01-6.064 15.137c.924 10.657-6.444 25.321-8.7 29.524a8.854 8.854 0 01-11.859 12.683 30.99 30.99 0 01-1.206 1.275c-2.729 2.731-7.457 6.445-12.678 6.162 0 .253.02.5.022.753a77.276 77.276 0 01-7.573 33.717 91.247 91.247 0 0117.857-10.852c9.031-10.265 64.361-78.835 35.094-186.148l3.672-1c16.826 61.7 5.832 110.345-6.354 140.292a185.444 185.444 0 01-24.8 43.655 128.109 128.109 0 0142-7.944l1.869.014.016 1.871a128.242 128.242 0 01-8.436 43.263 184.236 184.236 0 0144.636-25.57c29.948-12.185 78.6-23.177 140.292-6.353l-1 3.673c-113.953-31.08-184.337 33.347-187.39 36.217a89.753 89.753 0 01-11.025 17.417 77.41 77.41 0 0135.132-8.254c.255 0 .5.018.76.022-.331-6.12 4.809-11.539 7.43-13.884a8.853 8.853 0 0112.68-11.859c4.2-2.258 18.868-9.625 29.527-8.7a8.84 8.84 0 0117.4-2.061c3.861-1.29 11.924-3.284 20.422-1.166a8.84 8.84 0 0117.083-1.235c4.843-1.418 17.307-3.937 30.119 2.312a8.708 8.708 0 011-1.221 8.924 8.924 0 11-2.451 4.742c-12.288-6.088-24.58-3.1-28.243-1.97a8.785 8.785 0 01-2.5 5.3 8.891 8.891 0 01-12.562 0 8.775 8.775 0 01-2.236-3.91c-8.81-2.622-17.606.081-20.456 1.13a8.834 8.834 0 01-16.746 2.008c-8.855-1.523-22.76 5.116-27.745 7.707a8.856 8.856 0 01-12.644 11.685c-2.174 1.949-6.737 6.641-6.245 11.26a94.153 94.153 0 0127.621 6.125c2.5-5.138 13.175-24.26 34.877-27.125 12.012-1.586 22.369 2.91 27.7 12.032a21.971 21.971 0 01-1.255 24.646 20.918 20.918 0 01-1.925 2.223c-5.03 5.028-12.151 6.778-19.573 4.671-8.954-2.54-15.724-10.018-16.465-18.182-.819-8.99 4.817-14.822 10.767-16.612a13.488 13.488 0 0116.132 6.562c3.79 7.037 1.457 12.286-1.995 14.849-3.779 2.813-8.961 2.8-11.794-.038l2.692-2.692c1.479 1.479 4.607 1.332 6.832-.323 2.859-2.128 3.188-5.767.913-9.989a9.678 9.678 0 00-11.682-4.723c-4.141 1.248-8.739 5.3-8.074 12.621.6 6.634 6.241 12.748 13.713 14.868 3.292.933 11.567 2.266 17.412-5.518a18.215 18.215 0 001.015-20.438c-4.534-7.755-13.476-11.562-23.919-10.181-19.263 2.544-29.319 19.847-31.813 24.768a134.022 134.022 0 0140.187 26.633l1.309 1.334-1.4 1.423a137.74 137.74 0 01-40.462 26.576c2.788 5.383 12.789 21.894 31.619 24.382 10.441 1.375 19.384-2.425 23.919-10.181a18.222 18.222 0 00-1.015-20.44c-5.838-7.781-14.124-6.45-17.415-5.516-7.472 2.121-13.111 8.233-13.713 14.866-.666 7.321 3.933 11.373 8.073 12.62a9.673 9.673 0 0011.684-4.721c2.274-4.224 1.941-7.865-.913-9.989-2.224-1.656-5.354-1.8-6.832-.325l-2.691-2.692c2.833-2.832 8.013-2.852 11.795-.035 3.449 2.562 5.782 7.811 1.994 14.847a13.493 13.493 0 01-16.133 6.56c-5.948-1.788-11.584-7.62-10.766-16.609.74-8.171 7.513-15.645 16.464-18.184 8.43-2.392 16.465.186 21.5 6.9a21.968 21.968 0 011.256 24.644 24.234 24.234 0 01-3.781 4.912c-5.767 5.765-14.316 8.386-23.923 7.121-21.188-2.8-31.865-21.09-34.684-26.737a93.374 93.374 0 01-27.851 6.109c-.237 4.541 4.154 9.01 6.277 10.894a8.854 8.854 0 0112.65 11.678c4.982 2.591 18.883 9.233 27.747 7.705a8.779 8.779 0 011.752-2.565 8.877 8.877 0 0114.993 4.573c2.85 1.051 11.645 3.751 20.457 1.131a8.8 8.8 0 012.235-3.91 8.9 8.9 0 0112.562 0 8.8 8.8 0 012.505 5.306c3.654 1.142 15.914 4.14 28.244-1.973a9.242 9.242 0 111.454 3.521c-12.812 6.249-25.275 3.729-30.117 2.311a8.785 8.785 0 01-2.085 3.395 8.871 8.871 0 01-15-4.627c-8.5 2.116-16.561.121-20.422-1.169a8.764 8.764 0 01-2.265 4 8.861 8.861 0 01-15.138-6.065c-10.657.927-25.323-6.443-29.525-8.7a8.853 8.853 0 01-12.68-11.86c-2.571-2.3-7.554-7.553-7.437-13.531a72.165 72.165 0 01-3.187-.022 77.628 77.628 0 01-32.615-8.455 89.832 89.832 0 0111.218 17.564c5.641 5.192 75.371 66.439 187.116 35.962l1 3.671c-61.694 16.828-110.344 5.833-140.293-6.353a184.728 184.728 0 01-44.314-25.312 131.643 131.643 0 018.813 43.663l-.016 1.871-1.87.016a131.57 131.57 0 01-45.155-9.418 183.115 183.115 0 0126.243 45.476c12.186 29.95 23.18 78.6 6.353 140.3l-3.672-1c31.621-115.948-35.631-186.793-36.314-187.494l.435-.426a88.713 88.713 0 01-18.549-12.207 77.864 77.864 0 019.355 34.4c.036 1.07.034 2.131.026 3.191 5.972-.121 11.232 4.866 13.53 7.435a8.854 8.854 0 0111.861 12.681c2.256 4.2 9.626 18.87 8.7 29.526a8.84 8.84 0 012.062 17.4c1.291 3.862 3.284 11.923 1.168 20.421a8.841 8.841 0 011.233 17.084c1.418 4.843 3.939 17.305-2.311 30.115a9.17 9.17 0 011.222 1 8.93 8.93 0 11-4.744-2.449c6.089-12.29 3.107-24.582 1.971-28.246a8.781 8.781 0 01-5.306-2.5 8.893 8.893 0 010-12.561 8.779 8.779 0 013.911-2.236c2.62-8.812-.08-17.607-1.132-20.457a8.875 8.875 0 01-4.571-14.993 8.727 8.727 0 012.564-1.751c1.523-8.855-5.115-22.761-7.7-27.748a8.855 8.855 0 01-11.685-12.644c-1.9-2.114-6.391-6.5-10.889-6.278a93.319 93.319 0 01-6.112 27.848c5.649 2.816 23.94 13.492 26.738 34.684 1.268 9.608-1.354 18.154-7.121 23.923a24.311 24.311 0 01-4.912 3.781 21.972 21.972 0 01-24.644-1.258c-6.709-5.032-9.287-13.069-6.895-21.5 2.54-8.953 10.02-15.723 18.184-16.466 8.988-.817 14.82 4.82 16.609 10.768a13.486 13.486 0 01-6.561 16.133c-7.037 3.789-12.284 1.455-14.849-1.993-2.811-3.781-2.8-8.96.038-11.8l2.691 2.692c-1.479 1.479-1.33 4.608.323 6.831 2.126 2.857 5.768 3.188 9.991.916A9.682 9.682 0 001131.8 1800c-1.246-4.142-5.3-8.74-12.62-8.073-6.633.6-12.746 6.242-14.866 13.715-.933 3.289-2.266 11.574 5.517 17.41a18.21 18.21 0 0020.438 1.017c7.754-4.534 11.559-13.475 10.181-23.918-2.48-18.786-19-28.816-24.383-31.616A137.712 137.712 0 011089.5 1809l-1.424 1.4-1.334-1.309a134.031 134.031 0 01-26.642-40.191c-4.92 2.481-22.217 12.5-24.766 31.814-1.378 10.445 2.425 19.385 10.181 23.921a18.216 18.216 0 0020.436-1.015c7.778-5.838 6.452-14.124 5.518-17.414-2.12-7.472-8.232-13.111-14.867-13.714-7.319-.665-11.371 3.933-12.619 8.074a9.68 9.68 0 004.721 11.684c4.222 2.275 7.859 1.947 9.989-.912 1.657-2.224 1.805-5.356.325-6.832l2.692-2.694c2.833 2.835 2.852 8.014.037 11.8-2.561 3.447-7.812 5.783-14.848 1.995a13.491 13.491 0 01-6.563-16.133c1.792-5.946 7.622-11.582 16.61-10.765 8.167.739 15.644 7.51 18.184 16.462 2.1 7.424.36 14.544-4.671 19.574a20.751 20.751 0 01-2.225 1.924 21.969 21.969 0 01-24.643 1.258c-9.121-5.336-13.62-15.692-12.032-27.7 2.865-21.7 21.987-32.376 27.127-34.878a94.1 94.1 0 01-6.126-27.62c-4.667-.512-9.332 4.056-11.268 6.239a8.856 8.856 0 01-11.679 12.651c-2.593 4.982-9.234 18.882-7.7 27.744a8.749 8.749 0 012.565 1.753 8.878 8.878 0 01-4.576 14.994c-1.056 2.841-3.761 11.614-1.129 20.454a8.8 8.8 0 013.91 2.238 8.89 8.89 0 010 12.562 8.78 8.78 0 01-5.3 2.5c-1.144 3.654-4.139 15.913 1.973 28.243a9.287 9.287 0 11-3.521 1.456c-6.252-12.812-3.729-25.275-2.313-30.117a8.855 8.855 0 011.235-17.084c-2.118-8.5-.124-16.562 1.166-20.422a8.748 8.748 0 01-4-2.265 8.859 8.859 0 016.066-15.137c-.925-10.656 6.445-25.323 8.7-29.524a8.853 8.853 0 0111.859-12.681c2.345-2.62 7.763-7.762 13.883-7.431 0-.255-.021-.508-.023-.76a77.531 77.531 0 018.608-35.869 92.478 92.478 0 01-18.438 10.915l.766.746c-.683.7-67.964 71.448-36.316 187.492l-3.671 1c-16.832-61.7-5.84-110.35 6.343-140.298zm-177.58-70.065a5.076 5.076 0 107.178 0 5.083 5.083 0 00-7.178 0zm45.759 4.486a5.076 5.076 0 107.177 0 5.083 5.083 0 00-7.177 0zm37.685-1.794a5.075 5.075 0 107.178 0 5.082 5.082 0 00-7.178 0zm43.516-15.7a5.075 5.075 0 107.179 0 5.079 5.079 0 00-7.179 0zm-126.4-121.006a5.076 5.076 0 107.179 0 5.082 5.082 0 00-7.179 0zm45.759-4.485a5.077 5.077 0 107.178 0 5.081 5.081 0 00-7.178 0zm37.684 1.792a5.077 5.077 0 107.178 0 5.087 5.087 0 00-7.178 0zm50.7 15.706a5.076 5.076 0 100 7.176 5.082 5.082 0 00-.004-7.176zm59.226-192.021a5.075 5.075 0 10-7.175 0 5.08 5.08 0 007.17 0zm-4.485 38.581a5.075 5.075 0 100 7.178 5.081 5.081 0 00-.004-7.178zm1.8 37.684a5.076 5.076 0 100 7.18 5.087 5.087 0 00-.009-7.18zm15.7 43.518a5.075 5.075 0 100 7.176 5.078 5.078 0 00-.008-7.176zm121-127.522a5.076 5.076 0 100 7.178 5.081 5.081 0 00-.003-7.18zm4.484 52.936a5.075 5.075 0 10-7.178 0 5.079 5.079 0 007.174 0zm-1.793 37.687a5.076 5.076 0 10-7.179 0 5.081 5.081 0 007.175 0zm-15.7 43.515a5.075 5.075 0 10-7.178 0 5.08 5.08 0 007.171 0zm198.191 58.22a5.076 5.076 0 10-7.179 0 5.085 5.085 0 007.172 0zm-45.758-4.487a5.076 5.076 0 10-7.181 0 5.081 5.081 0 007.174 0zm-37.688 1.8a5.075 5.075 0 10-7.179 0 5.081 5.081 0 007.172-.005zm-43.515 15.7a5.076 5.076 0 10-7.179 0 5.085 5.085 0 007.172-.002zm126.4 121a5.076 5.076 0 10-7.177 0 5.081 5.081 0 007.17.002zm-45.76 4.486a5.076 5.076 0 10-7.177 0 5.084 5.084 0 007.17.001zm-37.685-1.8a5.076 5.076 0 10-7.179 0 5.08 5.08 0 007.172.005zm-50.693-15.7a5.076 5.076 0 100-7.179 5.081 5.081 0 00-.008 7.183zm-59.226 192.021a5.075 5.075 0 107.177 0 5.078 5.078 0 00-7.185.004zm4.483-38.583a5.075 5.075 0 100-7.178 5.078 5.078 0 00-.004 7.181zm-1.804-37.682a5.076 5.076 0 100-7.178 5.08 5.08 0 000 7.178zm-15.7-43.516a5.075 5.075 0 100-7.177 5.078 5.078 0 000 7.178zm-121 127.523a5.077 5.077 0 100-7.176 5.085 5.085 0 000 7.176zm-4.484-52.937a5.076 5.076 0 107.178 0 5.086 5.086 0 00-7.182-.001zm1.8-37.684a5.075 5.075 0 107.176 0 5.076 5.076 0 00-7.183-.001zm15.7-43.517a5.076 5.076 0 107.178 0 5.079 5.079 0 00-7.183-.001zm77.432 31.975a112.509 112.509 0 007.8-18.142c-15.378-2.954-20.754-17.5-22.636-27.242a301.731 301.731 0 01-2.924 8.34c.006.31.006.81 0 1.415.145 5.851 1.869 25.896 17.754 35.628zm99.646-153.095a33.3 33.3 0 01-1.357 0 309.618 309.618 0 01-8.339 2.924c9.742 1.88 24.286 7.257 27.24 22.635a112.793 112.793 0 0018.143-7.8c-9.755-15.899-29.91-17.608-35.693-17.76zm-137.773-155.7a112.728 112.728 0 00-7.8 18.142c15.379 2.952 20.753 17.5 22.636 27.24a303.14 303.14 0 012.926-8.341c-.008-.323-.011-.82 0-1.477-.172-5.928-1.939-25.865-17.768-35.561zM969.9 1621.56a34.55 34.55 0 011.423 0 306.589 306.589 0 018.339-2.925c-9.743-1.879-24.287-7.257-27.239-22.634a112.056 112.056 0 00-18.141 7.8c9.718 15.84 29.755 17.599 35.618 17.759zm11.061 33.72c11.489-2.092 19.422-6.116 22.927-11.64a12.138 12.138 0 001.981-7.669c-6.223-1.513-12.269-3.246-17.545-4.872-3.318.056-28.753 1.159-32.224 20.959a83.224 83.224 0 0022.354 3.278c.846.006 1.677-.036 2.511-.055zm87.13 30.36a102.47 102.47 0 013.356-4.467v-.012l.147-.178c1-1.244 2.04-2.478 3.11-3.7a74.5 74.5 0 0011.106-26.936 28.357 28.357 0 01-10.2-3.8c-24.624 34.255-62.024 50.925-62.024 50.925s16.859-37.811 51.5-62.43a28.148 28.148 0 01-2.856-10.092 76.2 76.2 0 00-25 9.212q-.7.654-1.4 1.287c-.2.182-.4.355-.6.532q-1.919 1.719-3.867 3.307c-.132.107-.265.232-.4.339l-.582.469h-.013c-2.605 2.075-5.247 4-7.928 5.734-23.172 24.04-25.958 60.356-26.286 69.079 8.838-.328 45.979-3.143 70.026-27.2.664-.668 1.276-1.376 1.915-2.068zm19.976 48.589c3.561-10.29 11.332-34.322 12.717-51.815-.3-.372-.616-.74-.927-1.107-.582-.688-1.16-1.38-1.768-2.065-.385-.434-.791-.865-1.185-1.3-.652-.714-1.3-1.426-1.973-2.131-.428-.444-.881-.884-1.319-1.328-.669-.675-1.329-1.351-2.021-2.02-.861-.829-1.753-1.65-2.651-2.469-.3-.269-.573-.542-.872-.811-.182.164-.35.331-.53.492q-1.56 1.413-3.047 2.842c-.691.667-1.35 1.342-2.015 2.015-.452.457-.915.911-1.355 1.372-.713.744-1.4 1.5-2.086 2.249-.36.4-.725.791-1.077 1.189a72.784 72.784 0 01-2.557 3.556c1.492 17.45 9.141 41.132 12.67 51.331zm46.934-111.975c.267.3.542.579.811.873.818.9 1.639 1.789 2.468 2.648.667.695 1.345 1.354 2.021 2.023.443.438.881.89 1.327 1.317.7.68 1.418 1.324 2.129 1.973.432.395.861.8 1.3 1.186.687.609 1.378 1.187 2.068 1.769l1.1.926c17.489-1.386 41.525-9.156 51.816-12.718-10.292-3.561-34.324-11.328-51.816-12.713l-.492.4q-1.193.989-2.375 2.03c-.317.28-.634.561-.953.846q-1.195 1.08-2.379 2.206c-.336.32-.672.64-1 .968-.611.6-1.219 1.207-1.825 1.823-1.38 1.4-2.761 2.843-4.117 4.354zm1.742-82.8l-.3-.288a82.531 82.531 0 00-23.581 16.181c-.481.481-.914 1-1.379 1.49q-2.55 3.91-5.585 7.707v.017l-.469.581c-.119.146-.256.292-.376.438q-1.244 1.526-2.564 3.03a76.006 76.006 0 00-9.56 25.624 28.062 28.062 0 0110.092 2.853c24.62-34.642 62.435-51.5 62.435-51.5s-16.673 37.4-50.926 62.026a28.4 28.4 0 013.8 10.208c14.781-3.018 27.344-9.617 37.362-19.635 24.023-24.024 26.858-61.189 27.19-70.028-6.13.227-25.882 1.66-45.433 10.54-.378.422-.628.682-.702.757zm-47.458-27.959c-3.562 10.29-11.334 34.32-12.718 51.813.3.37.616.739.926 1.106.585.693 1.161 1.382 1.769 2.069.384.434.789.864 1.185 1.3.65.712 1.294 1.423 1.973 2.127.428.446.881.887 1.319 1.328.667.676 1.329 1.354 2.021 2.022.86.827 1.753 1.65 2.65 2.467.3.27.575.544.874.811.147-.133.281-.267.43-.4a132.023 132.023 0 003.178-2.966c.574-.559 1.121-1.121 1.68-1.681.582-.584 1.167-1.165 1.731-1.753.594-.621 1.166-1.249 1.741-1.878.443-.485.888-.97 1.317-1.456a74.692 74.692 0 012.556-3.9c-1.549-17.419-9.125-40.872-12.628-51.004zm26.808 110.618l-1.1.2-.183-2.073a24.445 24.445 0 00-24.136-22.3l-2.211-.022.009-.072-.242.023a24.44 24.44 0 00-22.3 24.133v.687a24.461 24.461 0 0022.306 24.133l.9.079 1.683-.015a24.459 24.459 0 0024.135-22.307l.186-2.073.966.175c-.006-.195-.006-.381-.006-.567zm-81.16 8.927c.855-.8 1.717-1.6 2.555-2.436 1.63-1.63 3.26-3.354 4.862-5.136-.268-.3-.546-.576-.812-.872-.819-.9-1.64-1.79-2.468-2.651-.669-.693-1.345-1.352-2.023-2.021-.44-.438-.88-.89-1.327-1.318-.7-.677-1.416-1.322-2.127-1.973-.433-.394-.863-.8-1.3-1.184-.685-.61-1.378-1.189-2.068-1.771-.367-.31-.736-.623-1.1-.927-17.49 1.385-41.525 9.157-51.816 12.718 10 3.46 32.972 10.879 50.315 12.565a73.371 73.371 0 017.313-4.993zm-55.279-2.737a298.275 298.275 0 01-8.331-2.921c-.315.006-.79.008-1.417 0-5.858.166-25.9 1.911-35.62 17.742a113 113 0 0018.137 7.809c2.961-15.371 17.492-20.748 27.235-22.633zm8.682-12.468c5.271-1.624 11.313-3.355 17.533-4.871a12.144 12.144 0 00-1.981-7.671c-3.511-5.534-11.456-9.56-22.969-11.648a82.724 82.724 0 00-24.819 3.239c3.485 19.809 28.958 20.899 32.24 20.953zm18.837-14.466a16.22 16.22 0 012.542 8.7c5.105-1.15 10.238-2.108 15.072-2.7a82.784 82.784 0 00-23.779-12.3 21.9 21.9 0 016.169 6.302zm34.473 15.787c.3.308.6.6.9.911.016.02.035.036.052.055q1.88 1.983 3.729 4.093l1.1 1.255-1.1 1.251c-.357.408-.722.8-1.081 1.2a82.267 82.267 0 0111.092-3.583 79.58 79.58 0 01-14.688-5.18zm52.125-39.569c-.486.451-.992.894-1.487 1.342-.583.529-1.153 1.061-1.747 1.581l-1.252 1.1-1.256-1.1a143.2 143.2 0 01-3.61-3.284 81.368 81.368 0 014.932 15.486 83.792 83.792 0 014.424-15.123zm-17.889-33.688a16.218 16.218 0 01-8.7-2.539 21.935 21.935 0 01-6.3-6.169 82.589 82.589 0 0012.3 23.78c.595-4.83 1.555-9.964 2.704-15.071zm-18.42-28.794c2.086 11.513 6.113 19.457 11.648 22.968a12.146 12.146 0 007.671 1.98c1.514-6.219 3.246-12.264 4.871-17.532-.056-3.283-1.146-28.757-20.952-32.237a82.541 82.541 0 00-3.234 24.823zm33.736-9.6a313.181 313.181 0 012.921 8.333c1.882-9.741 7.258-24.275 22.624-27.231a112.835 112.835 0 00-7.807-18.137c-15.828 9.713-17.577 29.753-17.739 35.615.013.634.01 1.109.003 1.423zm5.715 17c1.625 5.273 3.356 11.315 4.869 17.536a12.254 12.254 0 007.58-1.914c5.572-3.48 9.618-11.408 11.722-22.935.025-.855.066-1.705.063-2.565a83.319 83.319 0 00-3.276-22.348c-19.793 3.478-20.897 28.915-20.954 32.232zm18.005 16.02a20.046 20.046 0 01-3.539 2.832 16.22 16.22 0 01-8.695 2.537c1.077 4.8 1.984 9.619 2.581 14.193q1.6-1.952 3.34-3.8a80.138 80.138 0 009.092-19.155 24.894 24.894 0 01-2.775 3.399zm52.718 70.323a16.222 16.222 0 012.538-8.693 21.883 21.883 0 016.167-6.3 82.758 82.758 0 00-23.763 12.3c4.834.595 9.961 1.55 15.063 2.698zm28.734-18.406c-11.48 2.091-19.407 6.112-22.909 11.637a12.138 12.138 0 00-1.979 7.668c6.222 1.514 12.271 3.245 17.541 4.873 3.318-.058 28.758-1.164 32.228-20.96a83.347 83.347 0 00-22.348-3.274c-.843.001-1.685.036-2.528.061zm21.785 17.2c-5.883 5.885-14.172 8.551-20.464 9.765a299.59 299.59 0 018.336 2.923c.316-.006.8-.01 1.432 0 5.88-.164 25.89-1.922 35.6-17.74a112.864 112.864 0 00-18.139-7.81 24.261 24.261 0 01-6.76 12.871zm-29.142 22.235c-5.269 1.626-11.314 3.357-17.532 4.869a12.149 12.149 0 001.979 7.673c3.513 5.534 11.457 9.56 22.969 11.648a82.649 82.649 0 0024.819-3.238c-3.475-19.797-28.948-20.888-32.229-20.943zm-18.84 14.466a16.237 16.237 0 01-2.539-8.7c-5.106 1.148-10.238 2.1-15.072 2.7a82.68 82.68 0 0023.78 12.3 21.906 21.906 0 01-6.163-6.291zm-34.7-16.014c-.223-.232-.45-.449-.673-.684-.017-.019-.035-.035-.052-.051q-1.879-1.988-3.729-4.1l-1.1-1.255 1.1-1.254c.51-.582 1.036-1.133 1.55-1.7.818-.9 1.632-1.813 2.458-2.68a83.454 83.454 0 01-17.6 5.249c.007.35.008.7 0 1.056a82.5 82.5 0 0118.057 5.428zm-51 39c.169-.156.338-.312.508-.465.612-.554 1.2-1.118 1.827-1.665l1.254-1.1 1.253 1.1q2.113 1.848 4.095 3.732c.018.015.034.034.053.052.74.7 1.445 1.415 2.16 2.125a81.354 81.354 0 01-6.214-19.447 82.44 82.44 0 01-4.927 15.681zm16.992 34.482a16.2 16.2 0 018.7 2.539 21.864 21.864 0 016.3 6.166 82.67 82.67 0 00-12.3-23.779c-.585 4.847-1.542 9.978-2.692 15.087zm18.419 28.792c-2.087-11.513-6.113-19.457-11.649-22.968a12.118 12.118 0 00-7.668-1.978c-1.515 6.219-3.248 12.26-4.873 17.53.056 3.282 1.146 28.757 20.953 32.236a82.629 82.629 0 003.246-24.806zm-33.737 9.6a318.854 318.854 0 01-2.923-8.337c-1.214 6.294-3.879 14.58-9.764 20.466a24.29 24.29 0 01-12.858 6.768 112.813 112.813 0 007.808 18.139c15.824-9.712 17.576-29.739 17.74-35.61-.003-.622.001-1.1.006-1.414zm-5.714-17.005c-1.625-5.269-3.357-11.313-4.871-17.532a12.264 12.264 0 00-7.581 1.912c-5.571 3.474-9.618 11.408-11.72 22.936-.026.854-.068 1.7-.064 2.565a83.3 83.3 0 003.275 22.345c19.811-3.459 20.912-28.895 20.97-32.214zm-14.466-18.847a16.2 16.2 0 018.694-2.539c-1.126-5.009-2.068-10.036-2.66-14.787-.4.455-.8.909-1.212 1.358a81.614 81.614 0 00-11.124 22.133 21.862 21.862 0 016.311-6.153zm-45.325-62.179a76.832 76.832 0 012.944-2.773c-4.481-.594-9.19-1.488-13.877-2.541a16.218 16.218 0 01-2.542 8.7 19.837 19.837 0 01-2.83 3.539 24.863 24.863 0 01-3.4 2.788 80.429 80.429 0 0019.066-9.034c.223-.216.427-.451.648-.668zm-89.691-.91c6.421-10.609 16.7-15.535 25.337-17.8-8.644-2.272-18.927-7.2-25.345-17.825a137.063 137.063 0 00-24.394 17.823 138.086 138.086 0 0024.412 17.814zm65.192-111.5c.475 12.252 5.849 78.752 66.075 89.956a28.076 28.076 0 012.856-10.094c-34.642-24.623-51.5-62.431-51.5-62.431s37.4 16.671 62.027 50.926a28.373 28.373 0 0110.2-3.8c-11.996-58.732-77.501-64.064-89.648-64.543zm75.308-64.64c10.626 6.42 15.556 16.7 17.828 25.342 2.267-8.637 7.192-18.914 17.8-25.334a137.692 137.692 0 00-17.807-24.4 136.81 136.81 0 00-17.812 24.405zm174.925 139.307a36.13 36.13 0 01-5.352 6.871c-6.023 6.022-13.465 9.228-19.976 10.939 8.643 2.27 18.926 7.2 25.349 17.829a136.911 136.911 0 0024.391-17.823 137.6 137.6 0 00-24.403-17.802zm-63.353 112.213c-.472-12.152-5.754-77.655-64.556-89.66a28.428 28.428 0 01-3.8 10.2c34.252 24.621 50.925 62.025 50.925 62.025s-37.814-16.859-62.43-51.5a28.133 28.133 0 01-10.093 2.856c11.202 60.19 77.711 65.607 89.963 66.092zm-77.135 63.934c-10.626-6.423-15.557-16.7-17.827-25.347a43.669 43.669 0 01-10.941 19.975 36.15 36.15 0 01-6.869 5.353 137.783 137.783 0 0017.813 24.41 136.821 136.821 0 0017.836-24.378z" class="prefix__cls-1" data-name="Path 5159" transform="translate(-808.12 -1342.3)"/><path id="prefix__Path_5160-2" d="M1138.99 1860.741l-8.569-12.652 11.412 10.163c21.012 18.715 25.761 34.408 26.046 44.277.288 9.99-3.777 16.157-4.88 17.26l-.505.5-18.9 1.261 3.194-3.5c17.606-19.276-7.541-56.932-7.798-57.309zm17.252 46.4l7.257 2.13a28.763 28.763 0 00.564-6.51l-7.242.081a34.765 34.765 0 01-.579 4.294zm-.212-15.756a50.377 50.377 0 01.847 7.647l6.869-.075a39.326 39.326 0 00-1.981-7.759zm4.181-3.945a56.523 56.523 0 00-3.168-5.883l-3.751-.423a76.074 76.074 0 011.927 6.465zm-8.419-10.306l2.5.282a84.549 84.549 0 00-5.3-6.646 102.158 102.158 0 012.8 6.36zm8.9 39.472a18.1 18.1 0 001.776-3.67l-7.175-2.109a27.052 27.052 0 01-3 6.336z" class="prefix__cls-1" data-name="Path 5160" transform="translate(-911.2 -1370.56)"/><path id="prefix__Path_5161-2" d="M1112.049 1856.981a4.679 4.679 0 01.531-.466l.182-.132 13.056 1.3-1.171.916a20.845 20.845 0 00-1.838 1.63c-15.031 15.029-.086 48.147.067 48.479l2 4.367-3.011-3.742c-27.405-34.053-10.546-51.621-9.816-52.352zm-1.206 32.261l5.14 1.467a63.838 63.838 0 01-1.041-7.974l-6.508-.874a47.612 47.612 0 002.409 7.381zm-3.243-18.642l7.963 1.236a28.1 28.1 0 011.575-5.158l-7.557-3.659a25.418 25.418 0 00-1.981 7.581zm15.2-12.021l-9.7-.961a7.077 7.077 0 00-.215.206 16.828 16.828 0 00-2.8 4.112l7.533 3.648a22.042 22.042 0 014.336-6.2c.281-.275.563-.54.853-.802zm-7.455 14.433l-7.854-1.219a33.453 33.453 0 00.654 8.82l6.722.9a41.752 41.752 0 01.485-8.497zm.9 19.01l-4.78-1.36a77.712 77.712 0 008.632 14.431 90.9 90.9 0 01-3.846-13.067z" class="prefix__cls-1" data-name="Path 5161" transform="translate(-846.32 -1371.03)"/><path id="prefix__Path_5162-2" d="M1111.069 1469.645a14.474 14.474 0 01-4.672 10.475q-.505.506-1.082 1.009l-1.253 1.1-1.254-1.1c-3.674-3.213-5.608-6.9-5.742-10.969-.235-7.023 5.034-12.5 5.664-13.135l1.335-1.312 1.334 1.312c.229.225 5.636 5.617 5.67 12.62zm-10.2.39a10.7 10.7 0 003.194 7.025 10.626 10.626 0 003.2-7.374 14.734 14.734 0 00-3.2-8.368c-1.382 1.834-3.313 5.072-3.192 8.717z" class="prefix__cls-1" data-name="Path 5162" transform="translate(-822.9 -1348.38)"/><path id="prefix__Path_5163-2" d="M1145.632 1411.449c-1.7 1.7-3.523 3.42-5.428 5.117l-11.412 10.164 8.57-12.653c.256-.379 25.4-38.032 7.8-57.317l-3.191-3.5 18.9 1.26.5.507c4.029 4.038 13.918 26.764-15.739 56.422zm14.458-27.827a38.806 38.806 0 001.946-7.758l-6.789-.076a50.208 50.208 0 01-.849 7.651zm-6.5 3.6a75.426 75.426 0 01-1.924 6.464l3.754-.422a56.022 56.022 0 003.143-5.883zm8.747-15.162a29.283 29.283 0 00-.56-6.484l-7.163 2.1a33.761 33.761 0 01.579 4.3zm-9.655 25.343l-2.52.284a99.98 99.98 0 01-2.8 6.378 83.707 83.707 0 005.316-6.66zm-2.026-39.747a26.966 26.966 0 013.006 6.337l7.1-2.084a20.113 20.113 0 00-1.744-3.7z" class="prefix__cls-1" data-name="Path 5163" transform="translate(-908 -1342.58)"/><path id="prefix__Path_5164-2" d="M1122.993 1417.224l1.168.918-13.056 1.3-.182-.131c-.941-.672-4.973-5.107-6.06-13.045-1.107-8.071.662-21.524 15.349-39.77l3.015-3.744-2 4.367c-.17.355-16.237 35.974 1.766 50.105zm-8.676-32.1l-5.084 1.449a48.338 48.338 0 00-2.432 7.392l6.467-.868a64.2 64.2 0 011.049-7.978zm-2.865 33.085l9.7-.963a21.9 21.9 0 01-5.193-7l-7.531 3.646a15.43 15.43 0 003.024 4.308zm-3.548-5.389l7.561-3.661a28 28 0 01-1.563-5.167l-7.951 1.236c.031.293.059.594.095.876a25.353 25.353 0 001.854 6.71zm-2.051-8.788l7.823-1.216a41.4 41.4 0 01-.465-8.5l-6.672.894a33.848 33.848 0 00-.686 8.816zm3.989-18.876l4.744-1.348a90.92 90.92 0 013.859-13.067 77.387 77.387 0 00-8.603 14.409z" class="prefix__cls-1" data-name="Path 5164" transform="translate(-843.1 -1343.12)"/><path id="prefix__Path_5165-2" d="M1069.02 1413.485l8.57 12.652-11.412-10.166c-21.01-18.714-25.761-34.407-26.046-44.276-.288-9.992 3.777-16.156 4.881-17.262l.506-.5 18.9-1.261-3.193 3.5c-17.609 19.279 7.538 56.933 7.794 57.313zm-17.249-46.4l-7.258-2.134a28.632 28.632 0 00-.564 6.511l7.24-.078a34.093 34.093 0 01.582-4.295zm.21 15.755a50.51 50.51 0 01-.848-7.648l-6.869.076a39.142 39.142 0 001.982 7.759zm-4.181 3.944a57.278 57.278 0 003.166 5.882l3.752.422a75.959 75.959 0 01-1.925-6.465zm8.418 10.305l-2.5-.282a84.577 84.577 0 005.3 6.644 100.193 100.193 0 01-2.799-6.357zm-8.895-39.47a18.12 18.12 0 00-1.777 3.668l7.175 2.109a27.035 27.035 0 013-6.337z" class="prefix__cls-1" data-name="Path 5165" transform="translate(-735.69 -1342.55)"/><path id="prefix__Path_5166-2" d="M1097.033 1418.248a4.709 4.709 0 01-.527.466l-.184.129-13.056-1.294 1.17-.917a21.5 21.5 0 001.84-1.63c15.029-15.03.083-48.147-.069-48.48l-2-4.368 3.013 3.743c27.405 34.051 10.544 51.618 9.813 52.351zm1.208-32.262l-5.14-1.465a63.239 63.239 0 011.041 7.975l6.508.872a47.488 47.488 0 00-2.409-7.382zm3.238 18.64l-7.962-1.237a28 28 0 01-1.575 5.158l7.557 3.66a25.34 25.34 0 001.98-7.581zm-15.2 12.021l9.7.962c.064-.057.136-.126.216-.206a16.905 16.905 0 002.8-4.113l-7.531-3.646a22.149 22.149 0 01-4.337 6.2c-.279.277-.561.541-.851.803zm7.455-14.434l7.855 1.221a33.425 33.425 0 00-.652-8.823l-6.725-.9a41.46 41.46 0 01-.481 8.501zm-.9-19.01l4.776 1.359a77.8 77.8 0 00-8.631-14.431 91.069 91.069 0 013.857 13.069z" class="prefix__cls-1" data-name="Path 5166" transform="translate(-801.64 -1343.09)"/><path id="prefix__Path_5167-2" d="M1287.14 1639.535l-1.1 1.253q-.5.578-1.011 1.086a14.481 14.481 0 01-10.476 4.669c-7-.032-12.395-5.44-12.62-5.669l-1.312-1.357 1.333-1.336c.6-.6 6.085-5.875 13.115-5.641 4.063.137 7.754 2.067 10.968 5.744zm-12.193-3.19c-3.645-.123-6.883 1.808-8.714 3.189a14.7 14.7 0 008.362 3.2 4.314 4.314 0 10.352-6.391z" class="prefix__cls-1" data-name="Path 5167" transform="translate(-1153.29 -1358.37)"/><path id="prefix__Path_5168-2" d="M1386.776 1575.962l-10.166 11.414c-1.7 1.9-3.418 3.731-5.117 5.43-29.658 29.659-52.382 19.772-56.421 15.735l-.507-.505-1.257-18.9 3.5 3.192c19.288 17.608 56.939-7.541 57.315-7.795zm-50.869 33.247a39.063 39.063 0 007.761-1.943l-.186-5.693a50.049 50.049 0 01-7.649.851zm11.522-3.474a56.432 56.432 0 005.88-3.142l.423-3.757a75.376 75.376 0 01-6.466 1.928zm-15.324 3.774l-.078-7.144a34.205 34.205 0 01-4.3-.579l-2.1 7.163a29.277 29.277 0 006.473.561zm-13.846-3.325a20.116 20.116 0 003.695 1.744l2.086-7.1a26.971 26.971 0 01-6.339-3zm39.476-8.851l-.287 2.518a83.342 83.342 0 006.668-5.323 101.14 101.14 0 01-6.382 2.806z" class="prefix__cls-1" data-name="Path 5168" transform="translate(-1302.63 -1355.17)"/><path id="prefix__Path_5169-2" d="M1365.119 1619.377c7.94 1.086 12.376 5.121 13.048 6.061l.13.183-1.3 13.058-.917-1.174c-14.132-18-49.752-1.933-50.11-1.771l-4.369 2.005 3.745-3.014c18.254-14.687 31.703-16.453 39.773-15.348zm-.161 1.184c-.283-.039-.583-.065-.877-.1l-1.236 7.953a28.078 28.078 0 015.167 1.561l3.66-7.562a25.147 25.147 0 00-6.714-1.852zm11.139 15.1l.967-9.7a15.366 15.366 0 00-4.316-3.024l-3.647 7.531a21.923 21.923 0 016.999 5.197zm-24.146-7.883l.867-6.468a49.028 49.028 0 00-7.391 2.43l-1.447 5.089a63.443 63.443 0 017.971-1.047zm-9.292 1.318l1.35-4.742a77.336 77.336 0 00-14.417 8.6 91.206 91.206 0 0113.068-3.854zm11.4-8.047l-.892 6.67a41.4 41.4 0 018.5.469l1.217-7.826a33.729 33.729 0 00-8.826.692z" class="prefix__cls-1" data-name="Path 5169" transform="translate(-1301.98 -1357.61)"/><path id="prefix__Path_5170-2" d="M1377.184 1690.667l10.187 11.439-12.675-8.6c-.378-.258-38.012-25.421-57.315-7.8l-3.5 3.191 1.262-18.9.506-.5c1.1-1.1 7.269-5.169 17.257-4.88 9.87.288 25.563 5.038 44.278 26.05zm-19.158-12.461l.281 2.5c2.254.9 4.4 1.854 6.363 2.8a84.233 84.233 0 00-6.644-5.3zm-21.618-2.584a50.325 50.325 0 017.649.848l.184-5.734a39.081 39.081 0 00-7.758-1.98zm11.431 1.66a75.72 75.72 0 016.466 1.923l-.42-3.75a57.131 57.131 0 00-5.885-3.167zm-15.239-1.6l.078-7.24a28.744 28.744 0 00-6.511.564l2.134 7.257a34.421 34.421 0 014.299-.586zm-14.324 4.536a27.051 27.051 0 016.337-3l-2.11-7.179a18.2 18.2 0 00-3.668 1.779z" class="prefix__cls-1" data-name="Path 5170" transform="translate(-1303.76 -1360.18)"/><path id="prefix__Path_5171-2" d="M1375.047 1643.448a20.439 20.439 0 001.625-1.836l.922-1.171 1.3 13.055-.134.185a4.318 4.318 0 01-.465.528c-.736.734-18.3 17.592-52.35-9.818l-3.745-3.016 4.37 2.008c.33.15 33.439 15.098 48.477.065zm-11.611 7.24l1.235 7.966a25.457 25.457 0 007.584-1.981l-3.659-7.557a28.163 28.163 0 01-5.16 1.572zm14.217 2.458l-.961-9.7q-.391.436-.8.842a22.123 22.123 0 01-6.2 4.337l3.648 7.531a16.938 16.938 0 004.111-2.8c.08-.075.149-.148.202-.21zm-24.241 4.675l-.871-6.506a64.107 64.107 0 01-7.974-1.043l1.466 5.142a47.209 47.209 0 007.379 2.407zm-8.8-3.034l-1.361-4.78a90.851 90.851 0 01-13.07-3.854 77.647 77.647 0 0014.429 8.634zm9.147-3.4l.9 6.726a33.526 33.526 0 008.824.653l-1.221-7.858a41.344 41.344 0 01-8.505.474z" class="prefix__cls-1" data-name="Path 5171" transform="translate(-1303.13 -1358.82)"/><path id="prefix__Path_5172-2" d="M1203.3 1786.211c7.271-12.909 17.949-21.423 29.848-16.857 14.366 5.511 11.354 25.5 2.936 34.756s-20.069 16.7-31.308 7.469c.002 0-10.864-8.697-1.476-25.368zm25.105.26c2.773-9.625 8.294-13.571 8.294-13.571-7.8 1.4-10.867 5.916-15.723 19.644s-15.118 17.708-15.118 17.708c15.936 1.18 19.777-14.152 22.549-23.782z" class="prefix__cls-1" data-name="Path 5172" transform="translate(-1051.62 -1366.04)"/><path id="prefix__Path_5173-2" d="M1310.809 1796.772c-14.974.246-31.031-3.815-32.187-21.193 0 0-1.325-16.61 20.923-22.09 17.233-4.244 33.415-1.908 39.19 12.219 6.972 17.056-12.946 30.823-27.926 31.064zm27.741-25.058c-7.622-5.66-14.074-4.633-30.033 2.389s-27.851 1.333-27.851 1.333c12.034 14.868 28.566 5.641 39.244.172s18.64-3.893 18.64-3.893z" class="prefix__cls-1" data-name="Path 5173" transform="translate(-1223.28 -1365.1)"/><path id="prefix__Path_5174-2" d="M1267.35 1872.858c-5.529-9.657-5.079-21.7 1.1-29.287 6.769-8.324 16.391-8.589 22.928-5.173 5.912 3.095 10.751 10.138 8.226 18.907-2.608 9.065-8.883 11.576-13.881 10.9-5.473-.74-9.8-4.976-9.851-9.641l3.807-.041c.033 2.726 3.032 5.433 6.553 5.91 2.132.288 7.342.067 9.714-8.181 2.06-7.163-2.124-12.276-6.333-14.479-5.162-2.7-12.784-2.458-18.212 4.2-5.207 6.4-5.517 16.671-.752 24.991 4.448 7.766 11.809 11.48 20.2 10.184a22.512 22.512 0 0018.554-17.174c2.681-10.739-1.9-21.784-12.266-29.547-22.122-16.564-50.386-5.059-50.834-4.883-.559.176-13.829 4.25-22.389-2.218-4.724-3.571-7-9.536-6.761-17.73l3.806.107c-.2 6.888 1.565 11.79 5.242 14.577 6.973 5.281 18.809 1.68 18.795 1.691 1.235-.517 30.532-12.481 54.421 5.411 11.633 8.712 16.745 21.239 13.678 33.514a27.134 27.134 0 01-7.09 12.689 26.1 26.1 0 01-14.578 7.328c-9.875 1.524-18.88-2.983-24.077-12.055z" class="prefix__cls-1" data-name="Path 5174" transform="translate(-1139.1 -1368.38)"/><path id="prefix__Path_5175-2" d="M1221.869 1785.515c3.844.114 6.548-.828 8.061-2.81 2.9-3.808.919-10.446.926-10.456-.319-.76-7.593-18.634 3.353-33.217 5.4-7.186 13.166-10.334 20.794-8.421a16.417 16.417 0 0112.5 13.566 14.173 14.173 0 01-4.026 12.444 16.9 16.9 0 01-3.552 2.691c-6.033 3.449-13.574 3.141-18.336-.744a11.613 11.613 0 01-3.266-14.634 10.278 10.278 0 0112.173-5.273c5.878 1.7 7.491 5.829 7.043 9.13-.5 3.629-3.354 6.5-6.508 6.528l-.037-3.807c1.238-.013 2.535-1.524 2.772-3.238.31-2.268-1.267-4.074-4.326-4.957a6.488 6.488 0 00-7.745 3.385 7.792 7.792 0 002.3 9.917c3.573 2.91 9.345 3.074 14.04.391a10.815 10.815 0 005.709-11.257 12.675 12.675 0 00-9.662-10.451c-6.094-1.527-12.38 1.09-16.827 7.013-9.619 12.823-2.951 29.3-2.823 29.628.111.35 2.643 8.634-1.455 14.046-2.3 3.019-6.066 4.479-11.218 4.326z" class="prefix__cls-1" data-name="Path 5175" transform="translate(-1097.16 -1363.89)"/><path id="prefix__Path_5176-2" d="M943.883 1502.481c16.669-9.387 25.366 1.478 25.366 1.478 9.23 11.24 1.786 22.888-7.466 31.3s-29.245 11.432-34.759-2.932c-4.565-11.897 3.949-22.571 16.859-29.846zm-13.312 33.4s3.945-5.517 13.57-8.291 24.964-6.615 23.783-22.547c0 0-3.988 10.259-17.708 15.117s-18.245 7.918-19.645 15.72z" class="prefix__cls-1" data-name="Path 5176" transform="translate(-523.7 -1350.8)"/><path id="prefix__Path_5177-2" d="M946.855 1421.518c5.479-22.245 22.087-20.922 22.087-20.922 17.382 1.157 21.442 17.213 21.2 32.187s-14.007 34.9-31.066 27.925c-14.128-5.774-16.466-21.958-12.221-39.19zm22.121 20.365c5.468-10.676 14.7-27.207-.172-39.241 0 0 5.68 11.892-1.335 27.852s-8.048 22.409-2.389 30.033c0 0-1.58-7.97 3.895-18.644z" class="prefix__cls-1" data-name="Path 5177" transform="translate(-558.46 -1345.26)"/><path id="prefix__Path_5178-2" d="M910.008 1520.621c-12.275 3.068-24.8-2.046-33.516-13.677-17.892-23.889-5.927-53.185-5.467-54.255.037-.118 3.657-11.98-1.631-18.96-2.788-3.677-7.692-5.443-14.579-5.244l-.11-3.8c8.2-.238 14.161 2.038 17.731 6.761 6.469 8.556 2.394 21.825 2.16 22.55-.119.282-11.622 28.55 4.944 50.67 7.761 10.363 18.806 14.948 29.545 12.264a22.51 22.51 0 0017.175-18.552c1.3-8.388-2.417-15.749-10.184-20.2-8.32-4.765-18.6-4.456-24.991.751-6.652 5.434-6.9 13.051-4.2 18.214 2.2 4.209 7.316 8.395 14.479 6.332 8.249-2.378 8.47-7.585 8.182-9.716-.477-3.519-3.183-6.521-5.909-6.552l.043-3.807c4.665.053 8.9 4.38 9.639 9.848.677 5-1.831 11.272-10.9 13.883-8.768 2.523-15.814-2.312-18.905-8.225-3.417-6.533-3.138-16.159 5.171-22.93 7.589-6.18 19.632-6.631 29.289-1.1 9.072 5.2 13.578 14.2 12.054 24.08a26.1 26.1 0 01-7.325 14.579 27.118 27.118 0 01-12.695 7.086z" class="prefix__cls-1" data-name="Path 5178" transform="translate(-413.49 -1346.62)"/><path id="prefix__Path_5179-2" d="M965.671 1519.751a16.42 16.42 0 01-13.564-12.5c-1.912-7.629 1.242-15.4 8.42-20.8 14.587-10.947 32.464-3.667 33.05-3.413.067.023 6.781 2.052 10.62-.863 1.979-1.506 2.925-4.219 2.811-8.061l3.805-.115c.153 5.151-1.294 8.921-4.326 11.216-5.413 4.1-13.7 1.567-14.211 1.4-.165-.069-16.6-6.769-29.462 2.883-5.921 4.448-8.541 10.735-7.014 16.825a12.677 12.677 0 0010.45 9.664 10.822 10.822 0 0011.256-5.708c2.684-4.7 2.523-10.47-.391-14.039a7.789 7.789 0 00-9.918-2.3 6.491 6.491 0 00-3.385 7.745c.885 3.059 2.694 4.635 4.96 4.326 1.713-.235 3.226-1.534 3.239-2.773l3.805.037c-.029 3.155-2.9 6.013-6.529 6.508-3.3.449-7.432-1.163-9.131-7.04a10.277 10.277 0 015.275-12.175 11.612 11.612 0 0114.633 3.266c3.886 4.764 4.193 12.3.746 18.335a16.814 16.814 0 01-2.693 3.554 14.182 14.182 0 01-12.446 4.028z" class="prefix__cls-1" data-name="Path 5179" transform="translate(-585.37 -1349.41)"/><path id="prefix__Path_5180-2" d="M943.885 1778.105c-12.909-7.274-21.424-17.949-16.861-29.851 5.515-14.365 25.5-11.353 34.759-2.931s16.7 20.066 7.468 31.3c0 .005-8.698 10.87-25.366 1.482zm.259-25.11c-9.627-2.773-13.57-8.291-13.57-8.291 1.4 7.8 5.916 10.867 19.642 15.721s17.711 15.117 17.711 15.117c1.18-15.93-14.16-19.769-23.783-22.542z" class="prefix__cls-1" data-name="Path 5180" transform="translate(-523.71 -1364.35)"/><path id="prefix__Path_5181-2" d="M959.075 1818.807c17.058-6.973 30.822 12.945 31.063 27.926s-3.812 31.03-21.192 32.187c0 0-16.611 1.323-22.089-20.922-4.244-17.232-1.907-33.416 12.218-39.191zm9.9 18.826c-5.472-10.675-3.9-18.642-3.9-18.642-5.659 7.62-4.632 14.072 2.389 30.032s1.334 27.852 1.334 27.852c14.877-12.034 5.65-28.568.179-39.242z" class="prefix__cls-1" data-name="Path 5181" transform="translate(-558.47 -1368.82)"/><path id="prefix__Path_5182-2" d="M869.393 1843.672c5.277-6.963 1.684-18.785 1.693-18.793-.519-1.239-12.486-30.535 5.408-54.423 8.711-11.635 21.239-16.745 33.516-13.679a26.26 26.26 0 0120.013 21.666 22.528 22.528 0 01-6.405 19.8 26.723 26.723 0 01-5.65 4.282c-9.656 5.531-21.7 5.077-29.288-1.1-8.313-6.771-8.587-16.393-5.17-22.927 3.091-5.914 10.136-10.75 18.9-8.226 9.07 2.608 11.579 8.882 10.9 13.88-.74 5.471-4.973 9.8-9.638 9.852l-.043-3.806c2.726-.033 5.435-3.033 5.911-6.555.287-2.13.068-7.337-8.183-9.713-7.164-2.061-12.281 2.124-14.479 6.332-2.7 5.164-2.448 12.8 4.2 18.214 6.394 5.208 16.671 5.517 24.99.752 7.763-4.447 11.479-11.81 10.186-20.2a22.511 22.511 0 00-17.176-18.553c-10.738-2.681-21.782 1.9-29.546 12.267-16.566 22.118-5.063 50.386-4.883 50.832.174.559 4.248 13.831-2.218 22.387-3.564 4.723-9.536 7-17.733 6.761l.109-3.806c6.893.2 11.803-1.577 14.586-5.244z" class="prefix__cls-1" data-name="Path 5182" transform="translate(-413.49 -1365.35)"/><path id="prefix__Path_5183-2" d="M960.528 1793.993c-7.187-5.393-10.334-13.167-8.42-20.8a16.424 16.424 0 0113.563-12.5c6.223-.954 11.882 1.882 15.139 7.581 3.447 6.031 3.141 13.571-.745 18.334a11.625 11.625 0 01-14.635 3.267 10.277 10.277 0 01-5.275-12.176c1.7-5.875 5.834-7.491 9.133-7.04 3.631.5 6.5 3.355 6.529 6.506l-3.806.039c-.013-1.244-1.525-2.538-3.238-2.773-2.268-.313-4.075 1.263-4.962 4.325a6.494 6.494 0 003.387 7.746 7.793 7.793 0 009.916-2.3c2.916-3.571 3.075-9.344.392-14.039a10.818 10.818 0 00-11.258-5.708 12.666 12.666 0 00-10.448 9.663c-1.53 6.092 1.092 12.382 7.014 16.824 12.819 9.619 29.3 2.951 29.626 2.824.35-.11 8.633-2.643 14.046 1.458 3.025 2.29 4.48 6.064 4.326 11.217l-3.8-.115c.114-3.843-.83-6.555-2.812-8.061-3.813-2.9-10.468-.913-10.453-.926-.765.326-18.636 7.6-33.219-3.346z" class="prefix__cls-1" data-name="Path 5183" transform="translate(-585.38 -1365.61)"/><path id="prefix__Path_5184-2" d="M1204.781 1468.768c11.237-9.232 22.888-1.784 31.3 7.467s11.434 29.245-2.932 34.758c-11.9 4.565-22.577-3.948-29.85-16.859-9.384-16.67 1.482-25.366 1.482-25.366zm31.923 38.678s-5.521-3.945-8.291-13.571-6.618-24.963-22.551-23.785c0 0 10.26 3.99 15.118 17.71s7.92 18.244 15.72 19.646z" class="prefix__cls-1" data-name="Path 5184" transform="translate(-1051.62 -1348.87)"/><path id="prefix__Path_5185-2" d="M1338.737 1514.787c-5.773 14.126-21.959 16.464-39.19 12.221-22.246-5.482-20.923-22.091-20.923-22.091 1.158-17.381 17.213-21.441 32.187-21.194s34.897 14.008 27.926 31.064zm-18.826-9.9c-10.675-5.473-27.208-14.7-39.243.172 0 0 11.893-5.682 27.853 1.334s22.41 8.046 30.032 2.389c-.001-.001-7.967 1.577-18.642-3.896z" class="prefix__cls-1" data-name="Path 5185" transform="translate(-1223.29 -1349.96)"/><path id="prefix__Path_5186-2" d="M1304.027 1443.313a42.8 42.8 0 01-4.6 3.978c-23.889 17.89-53.185 5.926-54.255 5.467-.118-.035-11.979-3.655-18.961 1.634-3.671 2.791-5.443 7.687-5.245 14.576l-3.8.109c-.24-8.193 2.033-14.162 6.761-17.73 8.557-6.469 21.829-2.4 22.552-2.159.283.119 28.5 11.655 50.668-4.944 10.36-7.757 14.947-18.807 12.264-29.546a22.5 22.5 0 00-18.55-17.174c-8.391-1.3-15.754 2.418-20.2 10.183-4.766 8.32-4.457 18.6.75 24.992 5.419 6.65 13.053 6.9 18.215 4.2 4.2-2.2 8.39-7.314 6.333-14.48-2.379-8.249-7.583-8.469-9.714-8.182-3.521.475-6.526 3.182-6.555 5.911l-3.806-.042c.053-4.667 4.379-8.9 9.852-9.642 5-.675 11.27 1.831 13.879 10.9 2.522 8.769-2.312 15.815-8.226 18.906-6.534 3.415-16.155 3.141-22.93-5.172-6.177-7.588-6.63-19.631-1.1-29.287 5.193-9.072 14.2-13.578 24.084-12.057a26.256 26.256 0 0121.663 20.015c2.623 10.519-.75 21.218-9.079 29.544z" class="prefix__cls-1" data-name="Path 5186" transform="translate(-1139.1 -1344.86)"/><path id="prefix__Path_5187-2" d="M1251.03 1525.328c3.151.031 6.01 2.9 6.5 6.529.452 3.3-1.161 7.434-7.042 9.131a10.271 10.271 0 01-12.173-5.274 11.618 11.618 0 013.267-14.635c4.763-3.884 12.3-4.191 18.333-.744 5.7 3.258 8.536 8.918 7.583 15.141a16.329 16.329 0 01-4.584 9.136 16.991 16.991 0 01-7.914 4.426c-7.628 1.914-15.4-1.235-20.8-8.423-10.946-14.587-3.667-32.461-3.412-33.047.02-.069 2.05-6.783-.866-10.62-1.5-1.98-4.218-2.927-8.061-2.812l-.114-3.8c5.15-.153 8.924 1.3 11.213 4.327 4.1 5.412 1.57 13.7 1.4 14.21-.068.166-6.771 16.6 2.883 29.463 4.443 5.921 10.733 8.544 16.827 7.013a12.674 12.674 0 009.662-10.448 10.822 10.822 0 00-5.708-11.259c-4.695-2.682-10.47-2.521-14.04.392a7.774 7.774 0 00-2.3 9.918 6.493 6.493 0 007.745 3.384c3.061-.886 4.637-2.695 4.325-4.959-.234-1.713-1.528-3.226-2.771-3.237z" class="prefix__cls-1" data-name="Path 5187" transform="translate(-1097.16 -1350.33)"/></g></svg>