<svg xmlns="http://www.w3.org/2000/svg" width="307.484" height="91" viewBox="0 0 307.484 91">
    <g id="prefix__Group_3567" data-name="Group 3567" transform="translate(-1249 -2468.001)">
        <text id="prefix__Bitcoffeen" transform="translate(1249 2527.001)" style="font-size:62px;font-family:NewYorkExtraLarge-Medium,New York Extra Large;font-weight:500;fill:#f9b034">
            <tspan x="0" y="0">Bitcoffeen</tspan>
        </text>
        <text id="prefix__franchise" transform="translate(1534 2555.001)" style="font-size:19px;font-family:GoodTimesRg-Regular,Good Times">
            <tspan x="-134.159" y="0">franchise</tspan>
        </text>
        <g id="prefix__Group_3566" data-name="Group 3566" transform="translate(1538.547 2476.687)">
            <path id="prefix__Path_15" d="M199.9 265.421c1.937.368 3.577 2.127 4.474 4.59a3.419 3.419 0 00-2.553.407 2.267 2.267 0 00-.244.145 6.062 6.062 0 00-1.013.819c.083-.336.162-.673.236-1.013.392-1.8.492-3.732-.9-4.948zm-1.046 18.114c-3.26-.147-5.838-4.2-5.786-9.154a12.534 12.534 0 011.08-5.072 8.814 8.814 0 01.941-1.56 6.593 6.593 0 01.5-.589c2.067-2.137 4.033-1.2 3.9 1.637a7.937 7.937 0 01-.13 1.084c-.638 3.407-1.776 6.108-1.839 9.786-.023 1.368.12 3 1.33 3.87z" data-name="Path 15" transform="translate(-193.065 -265.421)" style="fill-rule:evenodd;fill:#f9b034"/>
            <path id="prefix__Path_16" d="M205.018 270.092c2.039.365 3.766 2.272 4.655 4.927a12.909 12.909 0 01.639 3.725 12.334 12.334 0 01-1.646 6.631c-1.782 2.957-4.235 2.7-4.361-.763-.122-3.367.994-6.368 1.663-9.589.373-1.8.452-3.729-.95-4.931zm-.854 18.1c-3.255-.113-5.872-4.134-5.872-9.079a12.528 12.528 0 011.025-5.074 8.76 8.76 0 01.924-1.568 6.307 6.307 0 01.494-.593c2.041-2.156 4.013-1.24 3.913 1.591a7.817 7.817 0 01-.12 1.084c-.6 3.408-1.708 6.117-1.733 9.788-.008 1.366.152 3 1.369 3.85z" data-name="Path 16" transform="translate(-192.38 -264.808)" style="fill-rule:evenodd"/>
        </g>
    </g>
</svg>
