<svg xmlns="http://www.w3.org/2000/svg" width="307.484" height="87.171" viewBox="0 0 307.484 87.171">
  <g id="Group_3567" data-name="Group 3567" transform="translate(-1249 -2468.001)">
    <text id="Bitcoffeen" transform="translate(1249 2527.001)" fill="#f9b034" font-size="62" font-family="NewYorkExtraLarge-Medium, New York Extra Large" font-weight="500"><tspan x="0" y="0">Bitcoffeen</tspan></text>
    <path id="Path_6118" data-name="Path 6118" d="M-132.962,0V-13.813h11.723V-11.4h-9.329V0Zm4.161-5.719V-7.828h6.992v2.109ZM-106.742,0l-3.5-3.838h-5.168V-5.966h5.757a2.574,2.574,0,0,0,1.976-.713,2.913,2.913,0,0,0,.665-2.061,2.636,2.636,0,0,0-.693-2,2.724,2.724,0,0,0-1.948-.656h-7.524V0h-2.394V-13.813h9.918a5.939,5.939,0,0,1,2.109.351,4.323,4.323,0,0,1,1.577,1.007,4.375,4.375,0,0,1,.988,1.587,6.028,6.028,0,0,1,.342,2.09,5.257,5.257,0,0,1-.75,2.9,4.2,4.2,0,0,1-2.1,1.682l4.161,4.2Zm19.076,0-2.071-3.477h-6.536l1.14-1.957H-90.9L-93.974-10.6-100.244,0H-103l7.942-13.224a1.829,1.829,0,0,1,.494-.57A1.125,1.125,0,0,1-93.879-14a1.084,1.084,0,0,1,.674.209,1.891,1.891,0,0,1,.484.57L-84.759,0Zm6.631-10.108V0h-2.3V-12.54A1.571,1.571,0,0,1-83-13.594a1.125,1.125,0,0,1,.9-.39,1.211,1.211,0,0,1,.513.114,1.84,1.84,0,0,1,.513.38l9.747,9.671V-13.927h2.3V-1.273a1.563,1.563,0,0,1-.332,1.064,1.1,1.1,0,0,1-.865.38,1.543,1.543,0,0,1-1.1-.513ZM-60.382,0a6.531,6.531,0,0,1-2.67-.541,6.631,6.631,0,0,1-2.128-1.482,6.694,6.694,0,0,1-1.406-2.233,7.625,7.625,0,0,1-.5-2.793,7.381,7.381,0,0,1,.5-2.774,6.161,6.161,0,0,1,1.406-2.137,6.334,6.334,0,0,1,2.128-1.368,7.2,7.2,0,0,1,2.67-.484H-52.9V-11.4h-7.486a4.38,4.38,0,0,0-1.72.333,4.064,4.064,0,0,0-1.358.921,4.234,4.234,0,0,0-.893,1.406,4.869,4.869,0,0,0-.323,1.8,4.965,4.965,0,0,0,.323,1.805A4.3,4.3,0,0,0-63.46-3.7a4.113,4.113,0,0,0,1.358.941,4.275,4.275,0,0,0,1.72.342H-52.9V0Zm20.558.057v-6h-6.954V-8.094h6.954v-5.719h2.413V.057Zm-11.115,0v-13.87h2.413V.057ZM-34.884,0V-13.813h2.413V0Zm4.94,0V-2.413h10.355A2.088,2.088,0,0,0-18.1-2.907a1.72,1.72,0,0,0,.523-1.311A1.665,1.665,0,0,0-18.1-5.557,2.231,2.231,0,0,0-19.589-6h-6.346A4.991,4.991,0,0,1-27.692-6.3a3.8,3.8,0,0,1-1.33-.817,3.593,3.593,0,0,1-.836-1.244,4.136,4.136,0,0,1-.294-1.577,4.258,4.258,0,0,1,.275-1.549,3.309,3.309,0,0,1,.817-1.226,3.863,3.863,0,0,1,1.34-.807,5.247,5.247,0,0,1,1.824-.295h9.918V-11.4H-25.9a1.769,1.769,0,0,0-1.292.447,1.662,1.662,0,0,0-.456,1.245,1.611,1.611,0,0,0,.465,1.235,1.772,1.772,0,0,0,1.264.437h6.327a4.625,4.625,0,0,1,3.2.988,3.848,3.848,0,0,1,1.092,3,4.747,4.747,0,0,1-.266,1.615,3.485,3.485,0,0,1-.8,1.283A3.646,3.646,0,0,1-17.7-.3a5.356,5.356,0,0,1-1.89.3Zm16.72,0V-13.813H-.893V-11.4H-10.83v8.987H-.874V0Zm4.161-6V-8.037h7.657V-6Z" transform="translate(1534 2555.001)"/>
    <g id="Group_3566" data-name="Group 3566" transform="translate(1538.547 2476.687)">
      <path id="Path_15" data-name="Path 15" d="M199.9,265.421c1.937.368,3.577,2.127,4.474,4.59a3.419,3.419,0,0,0-2.553.407,2.267,2.267,0,0,0-.244.145,6.062,6.062,0,0,0-1.013.819c.083-.336.162-.673.236-1.013.392-1.8.492-3.732-.9-4.948Zm-1.046,18.114c-3.26-.147-5.838-4.2-5.786-9.154a12.534,12.534,0,0,1,1.08-5.072,8.814,8.814,0,0,1,.941-1.56,6.593,6.593,0,0,1,.5-.589c2.067-2.137,4.033-1.2,3.9,1.637a7.937,7.937,0,0,1-.13,1.084c-.638,3.407-1.776,6.108-1.839,9.786-.023,1.368.12,3,1.33,3.87Z" transform="translate(-193.065 -265.421)" fill="#f9b034" fill-rule="evenodd"/>
      <path id="Path_16" data-name="Path 16" d="M205.018,270.092c2.039.365,3.766,2.272,4.655,4.927a12.909,12.909,0,0,1,.639,3.725,12.334,12.334,0,0,1-1.646,6.631c-1.782,2.957-4.235,2.7-4.361-.763-.122-3.367.994-6.368,1.663-9.589.373-1.8.452-3.729-.95-4.931Zm-.854,18.1c-3.255-.113-5.872-4.134-5.872-9.079a12.528,12.528,0,0,1,1.025-5.074,8.76,8.76,0,0,1,.924-1.568,6.307,6.307,0,0,1,.494-.593c2.041-2.156,4.013-1.24,3.913,1.591a7.817,7.817,0,0,1-.12,1.084c-.6,3.408-1.708,6.117-1.733,9.788-.008,1.366.152,3,1.369,3.85Z" transform="translate(-192.38 -264.808)" fill-rule="evenodd"/>
    </g>
  </g>
</svg>
