<svg xmlns="http://www.w3.org/2000/svg" width="40" height="40" viewBox="0 0 30 30"><path d="M25.566 9.785c-.125.078-3.05 1.703-3.05 5.305.136 4.11 3.695 5.55 3.754 5.55-.06.079-.536 1.962-1.946 3.938-1.12 1.703-2.363 3.422-4.25 3.422-1.793 0-2.437-1.137-4.508-1.137-2.222 0-2.851 1.137-4.55 1.137-1.887 0-3.223-1.809-4.403-3.496-1.531-2.207-2.836-5.672-2.883-9-.03-1.762.31-3.496 1.168-4.969C6.11 8.48 8.27 7.085 10.633 7.04c1.808-.059 3.418 1.242 4.52 1.242 1.058 0 3.038-1.242 5.277-1.242.965 0 3.539.293 5.136 2.746zM15 6.687c-.32-1.609.566-3.218 1.395-4.246C17.453 1.2 19.125.355 20.566.355a6.01 6.01 0 01-1.535 4.34C18.098 5.937 16.488 6.871 15 6.687zm0 0" fill="#fff"/></svg>