<svg xmlns="http://www.w3.org/2000/svg" id="prefix__Group_8" width="21.484" height="28.004" data-name="Group 8"><defs><style>.prefix__cls-1{fill:#2e1a1a;fill-rule:evenodd}</style></defs><path id="prefix__Path_15" d="M201.25 265.421c2.32.441 4.284 2.547 5.359 5.5a4.1 4.1 0 00-3.058.488 2.719 2.719 0 00-.293.173 7.26 7.26 0 00-1.214.981c.1-.4.194-.806.283-1.214.47-2.151.589-4.47-1.077-5.926zM200 287.118c-3.9-.176-6.992-5.033-6.93-10.965a15.013 15.013 0 011.294-6.075 10.559 10.559 0 011.127-1.868 7.9 7.9 0 01.6-.706c2.475-2.559 4.83-1.436 4.673 1.96a9.506 9.506 0 01-.156 1.3c-.764 4.081-2.127 7.316-2.2 11.721-.027 1.638.144 3.6 1.593 4.635z" class="prefix__cls-1" data-name="Path 15" transform="translate(-193.065 -265.421)"/><path id="prefix__Path_16" d="M206.348 270.092c2.443.438 4.51 2.722 5.575 5.9a15.462 15.462 0 01.766 4.462 14.773 14.773 0 01-1.971 7.942c-2.134 3.542-5.073 3.229-5.223-.914-.146-4.034 1.191-7.628 1.992-11.485.447-2.152.542-4.467-1.138-5.906zm-1.023 21.675c-3.9-.136-7.033-4.952-7.033-10.874a15.006 15.006 0 011.227-6.078 10.494 10.494 0 011.107-1.878 7.554 7.554 0 01.592-.71c2.444-2.582 4.807-1.485 4.686 1.906a9.363 9.363 0 01-.144 1.3c-.719 4.082-2.046 7.327-2.076 11.724-.009 1.637.182 3.592 1.639 4.612z" class="prefix__cls-1" data-name="Path 16" transform="translate(-191.211 -263.763)"/></svg>