<svg xmlns="http://www.w3.org/2000/svg" width="133" height="55"><g data-name="Group 3577"><path d="M28.95 23.897a5.23 5.23 0 00-2.555 4.447 5.231 5.231 0 003.146 4.648 12.484 12.484 0 01-1.631 3.3c-.937 1.423-1.978 2.862-3.557 2.862-1.5 0-2.042-.951-3.776-.951-1.862 0-2.389.951-3.814.951-1.58 0-2.7-1.515-3.685-2.928a14.431 14.431 0 01-2.414-7.538 7.946 7.946 0 01.976-4.161 5.8 5.8 0 014.8-2.928c1.515-.051 2.864 1.04 3.788 1.04.886 0 2.543-1.04 4.417-1.04a5.15 5.15 0 014.3 2.3zm-8.848-2.594a4.573 4.573 0 011.169-3.559A4.929 4.929 0 0124.763 16a5.028 5.028 0 01-1.284 3.634 3.946 3.946 0 01-3.377 1.669z" data-name="Path 5146" fill="#fff"/><g data-name="Rectangle 2832" stroke="#fff" stroke-width="2" fill="none"><rect width="133" height="55" rx="9" stroke="none"/><rect width="131" height="53" x="1" y="1" rx="8"/></g><text data-name="App Store" transform="translate(78 34)" font-size="17" font-family="NewYorkExtraLarge-Medium,New York Extra Large" font-weight="500" fill="#fff"><tspan x="-37.852" y="0">App Store</tspan></text></g></svg>