<svg xmlns="http://www.w3.org/2000/svg" id="prefix__Group_3182" width="144.041" height="201.81" data-name="Group 3182"><defs><clipPath id="prefix__clip-path-2"><path id="prefix__Path_2582" d="M-660-158.432h973.527V-919H-660z" data-name="Path 2582" transform="translate(660 919)" fill="none"/></clipPath><clipPath id="prefix__clip-path-79"><path id="prefix__Path_2700" d="M76.078-100.876a14.672 14.672 0 01-2.341-1.74 2.611 2.611 0 00-.471 3.524c-.294.4-.75 1.041-1.34 1.987-1.059 1.7-5.835-7.165-5.835-7.165l-1.584-.241c-.526.33-2.539.754-3.355 2.8a5.082 5.082 0 01-.644 1.065c-.241.358-1.564 1.551-1.762 2.816s.045 1.724-.165 2.1a9.48 9.48 0 00-.272 5.8c.348 2.216 5.481 5.4 9.708 2.172 1.043-.085 2.5-.036 4.159-2.644L77-98.389a1.953 1.953 0 00-.92-2.488" class="prefix__cls-1" data-name="Path 2700" transform="translate(-57.977 104.512)"/></clipPath><clipPath id="prefix__clip-path-3"><path id="prefix__Path_2586" d="M101.951-209l4.049 2.619 3.865 12.055-3.865-.379-2.9-5.559-1.149-8.736" class="prefix__cls-1" data-name="Path 2586" transform="translate(-101.951 209)"/></clipPath><clipPath id="prefix__clip-path-5"><path id="prefix__Path_2589" d="M147.162-165.183a12.2 12.2 0 00-3.376-.418c-1.036.174.862 2.552.862 2.552s2.332-1.3 2.514-2.135" class="prefix__cls-1" data-name="Path 2589" transform="translate(-143.476 165.633)"/></clipPath><clipPath id="prefix__clip-path-7"><path id="prefix__Path_2592" d="M140.331-161.572c-4.679-1.612-6.937-6.39-6.625-9.376.122-1.163 1.108-9.277 1.108-9.277-5.918 2.865-10.782 5.014-10.782 5.014s-4.609-2.708-10.084-5.636c0 0-1 8.332-1.1 9.051-1.155 8.766-6.358 9.042-12.476 10.233l7.174 31.045 32.783-31.055" class="prefix__cls-1" data-name="Path 2592" transform="translate(-100.375 180.846)"/></clipPath><clipPath id="prefix__clip-path-9"><path id="prefix__Path_2595" d="M118.544-185.148l-.649 5.29a57.715 57.715 0 007.946 5.961 2.849 2.849 0 002.237.357 67.823 67.823 0 0010.464-3.874l.639-5.2-20.636-2.53" class="prefix__cls-1" data-name="Path 2595" transform="translate(-117.895 185.148)"/></clipPath><clipPath id="prefix__clip-path-11"><path id="prefix__Path_2598" d="M152.048-224.145a2.868 2.868 0 00-2.126-.079c1.609-6.98 2.9-14.055 2.029-15.875a28.525 28.525 0 00-21-15.818 28.527 28.527 0 00-24.2 10.275c-1.27 1.539-1.731 8.592-1.863 15.682a2.626 2.626 0 00-1.506-.16c-2.166.446-3.314 3.764-2.564 7.409.618 3 2.327 5.281 4.118 5.752.043 2.017.087 3.284.087 3.284 2.891 11.884 13.512 18.858 17 20.858a2.976 2.976 0 002.241.321c3.745-1.047 15.919-5.221 21.651-16.164 0 0 .348-1.215.876-3.156 1.945.377 4.476-1.488 5.939-4.516 1.621-3.354 1.319-6.85-.673-7.813" class="prefix__cls-1" data-name="Path 2598" transform="translate(-100.577 256.013)"/></clipPath><clipPath id="prefix__clip-path-13"><path id="prefix__Path_2601" d="M143.91-221.176a13.7 13.7 0 017.423-1.336 7.737 7.737 0 013.966 2.306c-1-.263-2.5-1.287-3.833-1.434a13.288 13.288 0 00-7.132 1.658c-.9.474-1.319-.721-.425-1.195" class="prefix__cls-1" data-name="Path 2601" transform="translate(-143.415 222.63)"/></clipPath><clipPath id="prefix__clip-path-15"><path id="prefix__Path_2604" d="M125.1-223.476c-.405-.373-4.4-2.871-6.775-2.846a8.643 8.643 0 00-3.831 1.16c-3.5 1.961 1.306-.775 3.66-.223a16.177 16.177 0 016.253 2.969c.723.665 1.417-.4.694-1.06" class="prefix__cls-1" data-name="Path 2604" transform="translate(-113.256 226.322)"/></clipPath><clipPath id="prefix__clip-path-17"><path id="prefix__Path_2607" d="M125.518-215.516c-2.732.552-3.81.974-5.24.857-2.084-.17-3.638-1.554-3.479-2.851s1.971-2.144 4.046-1.89 4.5 2.873 4.672 3.883" class="prefix__cls-1" data-name="Path 2607" transform="translate(-116.788 219.444)"/></clipPath><clipPath id="prefix__clip-path-19"><path id="prefix__Path_2610" d="M123.02-216.7a2.267 2.267 0 01-2.47 2.04 2.268 2.268 0 01-1.908-2.576 2.268 2.268 0 012.473-2.042 2.268 2.268 0 011.9 2.578" class="prefix__cls-1" data-name="Path 2610" transform="translate(-118.624 219.294)"/></clipPath><clipPath id="prefix__clip-path-21"><path id="prefix__Path_2613" d="M122.672-216.843a1.536 1.536 0 01-1.672 1.381 1.536 1.536 0 01-1.292-1.744 1.538 1.538 0 011.677-1.386 1.538 1.538 0 011.292 1.749" class="prefix__cls-1" data-name="Path 2613" transform="translate(-119.691 218.602)"/></clipPath><clipPath id="prefix__clip-path-23"><path id="prefix__Path_2616" d="M123.518-216.723a.645.645 0 01-.773.46c-.389-.048-.674-.332-.637-.633a.646.646 0 01.773-.461c.389.049.675.33.637.634" class="prefix__cls-1" data-name="Path 2616" transform="translate(-122.105 217.363)"/></clipPath><clipPath id="prefix__clip-path-25"><path id="prefix__Path_2619" d="M124.686-216.145c-1.331-3.249-5.142-3.837-7.746-3.216-2.289.547-2.662.064-2.738-.053-.071.851.834 2.714 3.084 3.868a2.608 2.608 0 01-1.078-1.491c.4-1.351 3.445-1.817 5.357-.975 2.752 1.214 3.335 2.479 3.335 2.479a2.323 2.323 0 00-.213-.611" class="prefix__cls-1" data-name="Path 2619" transform="translate(-114.198 219.581)"/></clipPath><clipPath id="prefix__clip-path-27"><path id="prefix__Path_2622" d="M142.615-213.355c2.557 1.2 3.516 1.872 4.95 2.107 2.093.341 3.959-.624 4.118-1.919s-1.418-2.56-3.525-2.817-5.128 1.691-5.542 2.629" class="prefix__cls-1" data-name="Path 2622" transform="translate(-142.615 216.008)"/></clipPath><clipPath id="prefix__clip-path-29"><path id="prefix__Path_2625" d="M146.8-213.784a2.283 2.283 0 001.937 2.581 2.282 2.282 0 002.5-2.037 2.284 2.284 0 00-1.938-2.583 2.285 2.285 0 00-2.5 2.039" class="prefix__cls-1" data-name="Path 2625" transform="translate(-146.783 215.839)"/></clipPath><clipPath id="prefix__clip-path-31"><path id="prefix__Path_2628" d="M147.684-213.776a1.546 1.546 0 001.316 1.748 1.546 1.546 0 001.7-1.379 1.547 1.547 0 00-1.314-1.751 1.547 1.547 0 00-1.7 1.381" class="prefix__cls-1" data-name="Path 2628" transform="translate(-147.671 215.168)"/></clipPath><clipPath id="prefix__clip-path-33"><path id="prefix__Path_2631" d="M150.427-213.262c-.037.3.253.586.649.634a.657.657 0 00.783-.458c.036-.3-.256-.588-.651-.637a.654.654 0 00-.781.461" class="prefix__cls-1" data-name="Path 2631" transform="translate(-150.424 213.73)"/></clipPath><clipPath id="prefix__clip-path-35"><path id="prefix__Path_2634" d="M154.084-214.517c-.1.1-.586.474-2.708-.612-2.414-1.236-6.309-1.593-8.411 1.236a2.359 2.359 0 00-.358.539s.883-1.085 3.887-1.593c2.087-.353 4.97.84 5.039 2.246a2.611 2.611 0 01-1.425 1.187c1.5-.345 3.731-1.5 3.976-3" class="prefix__cls-1" data-name="Path 2634" transform="translate(-142.607 216.053)"/></clipPath><clipPath id="prefix__clip-path-37"><path id="prefix__Path_2637" d="M159.113-234.43c1.844-15.033-10.217-28.886-26.938-30.935s-31.766 8.479-33.609 23.514a29.483 29.483 0 001.474 14.214c.107-2.494 1.158-4.447 2.785-4.783a2.55 2.55 0 011.108.033c.422 3.259 1.009 5.547 1.225 3.784.256-2.081 1.144-5.857 1.836-8.631 1.364-3.715 1.452-10.277 12.069-9.577-.141-8.867 31.406-6.3 29.928 15.549-.025 2.72-.106 6.016-.335 7.876-.214 1.744.839-.273 1.978-3.283a2.456 2.456 0 01.869.224c1.566.756 2.081 3.08 1.447 5.669a25.365 25.365 0 006.164-13.653" class="prefix__cls-1" data-name="Path 2637" transform="translate(-98.296 265.62)"/></clipPath><clipPath id="prefix__clip-path-39"><path id="prefix__Path_2640" d="M133.846-199.6l-2.834-.346a2.25 2.25 0 01-1.868-1.828 2.749 2.749 0 00-.261.866c-.167 1.358 1.436 2 2.659 2.148l1.5.185c1.221.148 2.931-.084 3.1-1.444a2.694 2.694 0 00-.045-.9 2.246 2.246 0 01-2.252 1.322" class="prefix__cls-1" data-name="Path 2640" transform="translate(-128.871 201.771)"/></clipPath><clipPath id="prefix__clip-path-41"><path id="prefix__Path_2643" d="M101.96-219.215c.013-.285.72-1.484 1.383-1.183 1.013.462 1.426 2.6 1.619 4.7s-.2 3.575-.367 2.994a30.228 30.228 0 00-1.2-5.832c-.642-1.654-1.542 1.558-1.437-.68" class="prefix__cls-1" data-name="Path 2643" transform="translate(-101.952 220.446)"/></clipPath><clipPath id="prefix__clip-path-43"><path id="prefix__Path_2646" d="M168.372-210.99c.059-.278-.34-1.615-1.056-1.482-1.1.2-2.012 2.174-2.707 4.172s-.672 3.516-.367 2.993a29.908 29.908 0 012.571-5.368c1.021-1.45 1.12 1.882 1.558-.315" class="prefix__cls-1" data-name="Path 2646" transform="translate(-164.041 212.481)"/></clipPath><clipPath id="prefix__clip-path-45"><path id="prefix__Path_2649" d="M119.8-204.937c-.766 1.685-3.583 2.051-6.289.82s-4.277-3.6-3.508-5.281 3.581-2.051 6.288-.818 4.277 3.6 3.51 5.279" class="prefix__cls-1" data-name="Path 2649" transform="translate(-109.807 210.945)"/></clipPath><clipPath id="prefix__clip-path-47"><path id="prefix__Path_2652" d="M144.528-201.788c.335 1.819 2.981 2.856 5.9 2.313s5.019-2.457 4.681-4.277-2.981-2.854-5.9-2.311-5.019 2.456-4.681 4.276" class="prefix__cls-1" data-name="Path 2652" transform="translate(-144.492 206.208)"/></clipPath><clipPath id="prefix__clip-path-49"><path id="prefix__Path_2655" d="M123.16-193.289c-.8-.458-.954-.319-1.072-.213-.159.151-.208.131.248.933.221.385.982 1.7.982 1.7s1.817 4.742 6.282 5.09a7.786 7.786 0 007.169-3.721c.248-.4.808-.991.967-1.208.528-.722.461-.751.366-.879-.26-.36-.316-.187-.9.024a32.091 32.091 0 01-7.308-.256 31.509 31.509 0 01-6.731-1.469" class="prefix__cls-1" data-name="Path 2655" transform="translate(-121.975 193.609)"/></clipPath><clipPath id="prefix__clip-path-51"><path id="prefix__Path_2658" d="M134.508-189.112c1.1-.2 1.537-1.094 1.95-2.235a35.337 35.337 0 01-6.418-.421 52.518 52.518 0 01-5.477-1.059 2.24 2.24 0 001.375 2.243c-.884-.059-1.152.751-1.154 1.739a9.143 9.143 0 005.271 2.9c2.794.253 4.6-.352 5.693-1.546-.155-.642-.492-1.5-1.24-1.618" class="prefix__cls-1" data-name="Path 2658" transform="translate(-124.563 192.826)"/></clipPath><clipPath id="prefix__clip-path-53"><path id="prefix__Path_2661" d="M123.795-193.053s.137 1.233 6.068 1.915c5.883.677 7.233-.233 7.233-.233s-4.372-1.062-6.789-1.316c-2.229-.235-6.512-.366-6.512-.366" class="prefix__cls-1" data-name="Path 2661" transform="translate(-123.795 193.053)"/></clipPath><clipPath id="prefix__clip-path-55"><path id="prefix__Path_2664" d="M133.005-92.068c.06-.383.132-.78.2-1.175q.173-.971.388-1.986a109.574 109.574 0 0110.421-27.714c.3-.47 3.788-31.258.206-31.258l-10.8-1.923c-.071.046-.138.092-.209.139L128-157.131c-7.05 1.785-13.692 1.952-16.939 7.609-1.161 2.022-8.389 13.961-8.389 13.961s-4.475-21.462-7.069-22.187c0 0-19.377 2.62-20.948 3.55s-2.911 2.1-4.338 5.156a95.738 95.738 0 00-5.748 19.842c-1.518 8.528-4.551 21.464-4.551 21.464l13.082 2.96 1.434-6.876a16.086 16.086 0 008.778 8.707 86.684 86.684 0 012.262 10.878c.181 1.272.34 2.533.489 3.79q.178 1.5.322 2.978.283 2.906.426 5.737.051 1 .082 1.986a87.766 87.766 0 01-.034 6.778 39.689 39.689 0 00-7.886 7.981 83.965 83.965 0 009.413 2.4c3.735.359 6.181-3.491 6.181-3.491s-1.4 5.6 8.637 6.417c10.084.821 30.372-1.364 38.677-2.349a39.969 39.969 0 00-10.17-11.149c-.036-.792-.058-2.525-.071-3.333-.012-.623-.009-.318-.008-.949a111.817 111.817 0 011.374-16.791" class="prefix__cls-1" data-name="Path 2664" transform="translate(-60.018 157.748)"/></clipPath><clipPath id="prefix__clip-path-57"><path id="prefix__Path_2667" d="M122.9-191.525a7.262 7.262 0 006.238 6.641c5.538.859 8.393-4.871 8.393-4.871s-2.53 2.965-7.695 2.5a8.428 8.428 0 01-6.936-4.272" class="prefix__cls-1" data-name="Path 2667" transform="translate(-122.898 191.525)"/></clipPath><clipPath id="prefix__clip-path-59"><path id="prefix__Path_2670" d="M80.583-126.029s-3.234 14.32-3.718 18.966c-.134 1.281-1.719-1.434-1.719-1.434s.869-10.513 5.437-17.533" class="prefix__cls-1" data-name="Path 2670" transform="translate(-75.146 126.029)"/></clipPath><clipPath id="prefix__clip-path-61"><path id="prefix__Path_2673" d="M123.514-87.362c-2.5-.386-6.974-2.271-8.444-4.487a9.589 9.589 0 005.9 6.334c12.94 4.171 19.681-7.866 19.681-7.866-3.867 2.977-10.576 7.038-17.139 6.019" class="prefix__cls-1" data-name="Path 2673" transform="translate(-115.07 93.381)"/></clipPath><clipPath id="prefix__clip-path-63"><path id="prefix__Path_2676" d="M115.176-132.453s-8.136 12.768-8.8 23.808c-1.564 17.571-1.263 50.788-1.263 50.788s-.945-10.7-1.034-18.775c-.07-6.415.349-17.436.9-29.639.4-8.879 3.684-16.38 8.248-23.233a25.2 25.2 0 011.952-2.949" class="prefix__cls-1" data-name="Path 2676" transform="translate(-104.072 132.453)"/></clipPath><clipPath id="prefix__clip-path-65"><path id="prefix__Path_2679" d="M111.621-67.245c1.11-1.793 26.6-4.89 32.918-6.317q.173-.971.388-1.986c-.2.034-.392.071-.578.115-2 .478-6.7 1.2-11.67 1.974-14.786 2.292-20.709-2.619-22.607-1.577-4.446-.329-3.12 7.531 1.549 7.791" class="prefix__cls-1" data-name="Path 2679" transform="translate(-107.344 75.547)"/></clipPath><clipPath id="prefix__clip-path-67"><path id="prefix__Path_2682" d="M116.105-137.111l6.888-15.553 17.484-11.91 8.72 7.788-21.787 17.627-4.225-8.956-7.08 11" class="prefix__cls-1" data-name="Path 2682" transform="translate(-116.105 164.574)"/></clipPath><clipPath id="prefix__clip-path-69"><path id="prefix__Path_2685" d="M142.777-165.041l9.5 7.5-22.21 15.643-4.9-10.881 17.615-12.266" class="prefix__cls-1" data-name="Path 2685" transform="translate(-125.162 165.041)"/></clipPath><clipPath id="prefix__clip-path-71"><path id="prefix__Path_2688" d="M111.856-166.023A47.556 47.556 0 00110-154.8l1.761 17.342-7.4-17.215-6.386-3.939 13.877-7.411" class="prefix__cls-1" data-name="Path 2688" transform="translate(-97.979 166.023)"/></clipPath><clipPath id="prefix__clip-path-73"><path id="prefix__Path_2691" d="M150.873-16.577A94.032 94.032 0 01112.5-8.442a94.064 94.064 0 01-37.392-7.705 41.607 41.607 0 014.477-12.5 41.467 41.467 0 013-4.63A83.965 83.965 0 0092-30.882c3.735.359 6.181-3.491 6.181-3.491s-1.4 5.6 8.637 6.417c10.084.821 30.372-1.364 38.677-2.349.28.453.558.906.821 1.369a41.67 41.67 0 014.56 12.359" class="prefix__cls-1" data-name="Path 2691" transform="translate(-75.107 34.373)"/></clipPath><clipPath id="prefix__clip-path-75"><path id="prefix__Path_2694" d="M111.139-165.514l-13.207 7.009 7.472 3.176 5.735-10.185" class="prefix__cls-1" data-name="Path 2694" transform="translate(-97.932 165.514)"/></clipPath><clipPath id="prefix__clip-path-77"><path id="prefix__Path_2697" d="M56.66-78.51l.211-.427 23.664 10.232-4.179 1.442-15.191-7.42-4.505-3.827" class="prefix__cls-1" data-name="Path 2697" transform="translate(-56.66 78.937)"/></clipPath><clipPath id="prefix__clip-path"><path id="prefix__Path_2583" d="M182.53-149.322c-4.048-2.521-3.194-5.762-1.94-9.7a25.948 25.948 0 002.646-7.723c2.133-11.669-4.356-17.615-9.176-21.974-6.211-5.611-1.333-8.314-.317-13.9 1.793-9.866-6.6-12.952-5.442-18.4 2.111-9.906-6.221-21.635-16.457-31.635-4.778-6.544-12.168-9.415-20.65-10.456-16.72-2.051-27.318 9.528-33.537 25.975-7.939 20.993 1.754 45.821 23.084 48.553 3.477.447 28.484 35.695 29.947 41.948s25.309 2.562 20.942 13.534c-1.97 4.948.9 6.083 2.683 5.834 4.316-.6 2.212-4.492 2.212-4.492s.167 3.258-2.1 2.858c-1-.177-1.981-1.19-.134-3.461 3.137-3.867 4.822-5.367 1.1-11.5-2.368-3.9-1.367-6.033.634-8.67a9.062 9.062 0 00.313 1.247c1.082 3.308 6.035 5.118 6.761 7.459s-6.008 3.46-3.069 8.633c-.195-4.283 2.243-3.563 4.372-4.8 3.728-2.163 2.652-6.52-1.869-9.335" class="prefix__cls-1" data-name="Path 2583" transform="translate(-94.9 263.34)"/></clipPath><clipPath id="prefix__clip-path-81"><path id="prefix__Path_2703" d="M70.628-89.724s-2.841-2.1-3.549-2.509a16.766 16.766 0 00-4.392-1.815c-1.442-.223-1.607 2.686-.708 3.384.474.369.481.195.98.232-1.037.573-2.108 1.144-1.415 1.012a15.044 15.044 0 012.5-.759 20.445 20.445 0 012.187.909c4.161 1.951 4.429.078 4.4-.453" class="prefix__cls-1" data-name="Path 2703" transform="translate(-61.325 94.061)"/></clipPath><clipPath id="prefix__clip-path-83"><path id="prefix__Path_2706" d="M70.1-90.287c.033.531.246 2.386-3.941.5-2.9-1.31-4.518-.307-5.418-1s.434-4 1.875-3.775a16.906 16.906 0 014.394 1.815c.709.405 3.09 2.466 3.09 2.466" class="prefix__cls-1" data-name="Path 2706" transform="translate(-60.454 94.578)"/></clipPath><clipPath id="prefix__clip-path-85"><path id="prefix__Path_2709" d="M69.969-89.081a3.964 3.964 0 01.569-1.024 6.222 6.222 0 011.769.856c.341.271.444 1.025-.335 1.031a6.256 6.256 0 01-2-.863" class="prefix__cls-1" data-name="Path 2709" transform="translate(-69.969 90.105)"/></clipPath><clipPath id="prefix__clip-path-87"><path id="prefix__Path_2712" d="M70.025-94.232a74.428 74.428 0 00-7.489-.686 9.083 9.083 0 00-1.923-.034c-.34-.2-.631-.008-.593.193s-.027.176.735.119a4.913 4.913 0 011.761-.037 4.531 4.531 0 01.524.16c1.418.947 4.183 2.367 4.531 2.6s2.686 4.578 5.96 1.335l-3.505-3.648" class="prefix__cls-1" data-name="Path 2712" transform="translate(-60.017 95.037)"/></clipPath><clipPath id="prefix__clip-path-89"><path id="prefix__Path_2715" d="M72.345-98.428c-.679-.691-6.3-1.72-7.816-1.576a3.541 3.541 0 00-1.361.047c-.345.07-.759-.164-.856.21s.826.075 1.025.038a3 3 0 011.12.03 32.109 32.109 0 015.2 3.85c.669.617 3.192 4.495 6.041 1.475 0 0-2.673-3.382-3.353-4.074" class="prefix__cls-1" data-name="Path 2715" transform="translate(-62.305 100.05)"/></clipPath><clipPath id="prefix__clip-path-91"><path id="prefix__Path_2718" d="M69.515-113.391c-.156-.357-.1-.728.123-.823l1-.434c.224-.1.532.116.686.474l.645 1.485c.154.357.1.725-.123.823l-1 .432c-.223.1-.53-.116-.685-.472l-.645-1.484" class="prefix__cls-1" data-name="Path 2718" transform="translate(-69.427 114.671)"/></clipPath><clipPath id="prefix__clip-path-93"><path id="prefix__Path_2721" d="M70.764-112.777l7.508 17.3-.906.392-7.507-17.3.905-.39" class="prefix__cls-1" data-name="Path 2721" transform="translate(-69.859 112.777)"/></clipPath><clipPath id="prefix__clip-path-95"><path id="prefix__Path_2724" d="M71.945-113.3L79.453-96l-.9.392-7.508-17.3.9-.388" class="prefix__cls-1" data-name="Path 2724" transform="translate(-71.049 113.297)"/></clipPath><clipPath id="prefix__clip-path-97"><path id="prefix__Path_2727" d="M71.377-113.082l7.508 17.3-.906.394-7.506-17.3.9-.391" class="prefix__cls-1" data-name="Path 2727" transform="translate(-70.473 113.082)"/></clipPath><clipPath id="prefix__clip-path-99"><path id="prefix__Path_2730" d="M81.527-90.568l-1.808.786 2.43 3.122-.622-3.908" class="prefix__cls-1" data-name="Path 2730" transform="translate(-79.719 90.568)"/></clipPath><clipPath id="prefix__clip-path-101"><path id="prefix__Path_2733" d="M81.836-86.895l.82 1.05-.208-1.316-.612.265" class="prefix__cls-1" data-name="Path 2733" transform="translate(-81.836 87.16)"/></clipPath><clipPath id="prefix__clip-path-103"><path id="prefix__Path_2736" d="M70.255-111.6l1.8-.781-.421-.967-1.8.785.419.964" class="prefix__cls-1" data-name="Path 2736" transform="translate(-69.836 113.344)"/></clipPath><clipPath id="prefix__clip-path-105"><path id="prefix__Path_2739" d="M72.8-100.694c-.606-.618-3.242-2.921-3.945-3.562.046-.162-.052-.532.236-.345.767.5 2.076 1.622 2.459 1.93 1.927 1.552 3.069.965 4.118-.291-3.94-4.509-5.742-5.275-6.516-5.7a1.847 1.847 0 00-2.469 1.074c-.481 1.127-.854 2.254-.9 2.387-.033.093.539.049 1.271.122a1.435 1.435 0 00-.723.41c-.744.739-1.551 1.806-1.429 2.433.049.253.6.132.883.334a50.105 50.105 0 014.684 3.451c.664.617 2.975 4.4 5.511 2.012 0 0-2.5-3.563-3.179-4.252" class="prefix__cls-1" data-name="Path 2739" transform="translate(-64.886 108.836)"/></clipPath><clipPath id="prefix__clip-path-107"><path id="prefix__Path_2742" d="M73.885-91.652L70.378-95.3s-4.6-3.709-4.958-3.95-.7-.624-1.532.335c-.673.779-1.906 1.869-1.417 2.626.117.18.6.293 1.005.456a50.054 50.054 0 014.8 2.444c.359.242 2.7 4.135 5.611 1.735" class="prefix__cls-1" data-name="Path 2742" transform="translate(-62.359 99.531)"/></clipPath><clipPath id="prefix__clip-path-109"><path id="prefix__Path_2745" d="M74.383-102.689a5.041 5.041 0 011.041-1.061 7.875 7.875 0 011.876 1.65c.326.444.2 1.4-.761 1.145a7.948 7.948 0 01-2.157-1.732" class="prefix__cls-1" data-name="Path 2745" transform="translate(-74.383 103.75)"/></clipPath><clipPath id="prefix__clip-path-111"><path id="prefix__Path_2748" d="M78.848-93.128l-1.574-2.151a1.538 1.538 0 00-.716.224c-.321.212.875 1.873 1.237 1.984a2.7 2.7 0 001.053-.058" class="prefix__cls-1" data-name="Path 2748" transform="translate(-76.503 95.279)"/></clipPath><clipPath id="prefix__clip-path-113"><path id="prefix__Path_2751" d="M76.744-89.844l-1.893-1.879a1.567 1.567 0 00-.672.335c-.284.26 1.161 1.711 1.535 1.765a2.686 2.686 0 001.03-.22" class="prefix__cls-1" data-name="Path 2751" transform="translate(-74.143 91.723)"/></clipPath><clipPath id="prefix__clip-path-115"><path id="prefix__Path_2754" d="M28.041-94.923s.907-1.044 3.331-1.038 16.128 8.61 16.128 8.61l22.264-2.982-.432 5.447-21.078.866-2.051-.39-1.053-.461-.172-.707-16.937-9.166v-.179" class="prefix__cls-1" data-name="Path 2754" transform="translate(-28.041 95.961)"/></clipPath><clipPath id="prefix__clip-path-117"><path id="prefix__Path_2757" d="M82.815-88.562l32.47 13.921v2.047L82.557-85.58l.258-2.982" class="prefix__cls-1" data-name="Path 2757" transform="translate(-82.557 88.562)"/></clipPath><clipPath id="prefix__clip-path-119"><path id="prefix__Path_2760" d="M27.418-94.93l17.811 9.512s.346 1.211 3.027.865 20.925-2.335 20.925-2.335l33.117 13.4-21.877 4.239-33.289-14.18s-1.968-.432-2.422-1.469-17.292-9.427-17.292-9.427v-.6" class="prefix__cls-1" data-name="Path 2760" transform="translate(-27.418 94.93)"/></clipPath><clipPath id="prefix__clip-path-121"><path id="prefix__Path_2763" d="M108.81-71.938v.779l-33.117-13.4-21.078 2.347 21.311-3 32.884 13.274" class="prefix__cls-1" data-name="Path 2763" transform="translate(-54.615 85.217)"/></clipPath><clipPath id="prefix__clip-path-123"><path id="prefix__Path_2766" d="M56.487-78.416S66-73.034 67.16-72.532c2.958 1.282 7.358 3.836 9.4 4.081.879.1-9.085-4.249-10.262-5.638a1.252 1.252 0 011.094-2.131c3.921-.03 6.976 2.882 13.166 3.418 7.05.611 7.592 5.287 7.592 5.287s3.45 4.568-2.15 5.462c-6.872 1.1-16.945-2.434-20.051-4.484-.679-.449-8.2-10.131-10.011-12.009l.548.129" class="prefix__cls-1" data-name="Path 2766" transform="translate(-55.939 78.545)"/></clipPath><clipPath id="prefix__clip-path-125"><path id="prefix__Path_2769" d="M72.18-73.691a5.378 5.378 0 01-.775 1.378 8.3 8.3 0 01-2.386-1.172c-.461-.368-.591-1.389.463-1.39a8.476 8.476 0 012.7 1.184" class="prefix__cls-1" data-name="Path 2769" transform="translate(-68.675 74.875)"/></clipPath><clipPath id="prefix__clip-path-127"><path id="prefix__Path_2772" d="M160.883-143.667c-2.032-7.646-6.36-10.489-12.485-9.881-11.575 1.108-9.535 18.451-8.988 20.919 1.033 4.647 2.272 9.217 4.747 11.924 1.414 9.757 2.033 18.676 1.5 22.229-.319 2.151-.7 4.223-.869 5.929a12.6 12.6 0 00-3.39.234c-5.879 1.4-32.036 4.556-33.16 6.373a103.055 103.055 0 01-11.413-1.6 10.441 10.441 0 00-3.592 8.412c5.015 1.987 13.4 3.261 13.4 3.261s-.172 1.9 4.15 2.249 31.821 2.251 48.249-6.184a8.409 8.409 0 00.5-1.368c7.891-18.877 3.2-55.534 1.343-62.5" class="prefix__cls-1" data-name="Path 2772" transform="translate(-93.23 153.627)"/></clipPath><clipPath id="prefix__clip-path-129"><path id="prefix__Path_2775" d="M122.668-49.566c-5.626 0-9.9-.306-11.394-.425-4.322-.348-4.15-2.249-4.15-2.249a87.053 87.053 0 01-11.879-2.709q.051 1 .082 1.986c3.834 1.2 13.257 5.071 15.656 5.265 2.017.162 6.339 0 11.686 0 5.15 0 11.251-1.189 17.406-2.016-.012-.623-.009-.318-.008-.949a130.516 130.516 0 01-17.4 1.1" class="prefix__cls-1" data-name="Path 2775" transform="translate(-95.244 54.949)"/></clipPath><clipPath id="prefix__clip-path-131"><path id="prefix__Path_2778" d="M67.262-67.819c.67.24-.763.8-2.192-.691s-5.92-6.267-5.92-6.267 6.45 6.377 8.112 6.958" class="prefix__cls-1" data-name="Path 2778" transform="translate(-59.15 74.777)"/></clipPath><clipPath id="prefix__clip-path-133"><path id="prefix__Path_2781" d="M110.182-128.285a1.3 1.3 0 01-1.187 1.39 1.3 1.3 0 01-1.19-1.39 1.3 1.3 0 011.19-1.389 1.3 1.3 0 011.187 1.389" class="prefix__cls-1" data-name="Path 2781" transform="translate(-107.805 129.674)"/></clipPath><clipPath id="prefix__clip-path-135"><path id="prefix__Path_2784" d="M103.67-107.168a1.285 1.285 0 01-1.147 1.389 1.286 1.286 0 01-1.148-1.389 1.287 1.287 0 011.148-1.391 1.286 1.286 0 011.147 1.391" class="prefix__cls-1" data-name="Path 2784" transform="translate(-101.375 108.559)"/></clipPath><clipPath id="prefix__clip-path-137"><path id="prefix__Path_2787" d="M102.8-85.868a1.272 1.272 0 01-1.11 1.39 1.272 1.272 0 01-1.111-1.39 1.274 1.274 0 011.111-1.39 1.274 1.274 0 011.11 1.39" class="prefix__cls-1" data-name="Path 2787" transform="translate(-100.578 87.258)"/></clipPath><clipPath id="prefix__clip-path-139"><path id="prefix__Path_2790" d="M102.8-47.124a1.275 1.275 0 01-1.11 1.391 1.275 1.275 0 01-1.111-1.391 1.274 1.274 0 011.111-1.39 1.274 1.274 0 011.11 1.39" class="prefix__cls-1" data-name="Path 2790" transform="translate(-100.578 48.514)"/></clipPath><clipPath id="prefix__clip-path-141"><path id="prefix__Path_2793" d="M113.69-245.808c-3.181-.979-8.635-2.087-11.319 4.447-2.673 6.5-5.03 12.828-4.522 23.788.434 9.357 4.5 23.209 10.618 27.875-2.879-1.34-11.551-9.632-13.562-22.789-2.05-13.4 3.873-29.572 7.319-34.182 4.186-5.6 11.466.862 11.466.862" class="prefix__cls-1" data-name="Path 2793" transform="translate(-94.484 248.953)"/></clipPath><clipPath id="prefix__clip-path-143"><path id="prefix__Path_2796" d="M107.592-204.358a11.593 11.593 0 01-4.989-8.858c-.8-11.621 1-18.14 3.315-24.64 2.324-6.534 6-6.768 9.063-7.234 0 0-5.526-3.112-9.147 2.488-2.983 4.613-7.537 19.772-5.408 31.489s8.892 14.2 12.52 13.8a33.786 33.786 0 01-5.353-7.046" class="prefix__cls-1" data-name="Path 2796" transform="translate(-99.877 245.952)"/></clipPath><clipPath id="prefix__clip-path-145"><path id="prefix__Path_2799" d="M190.244-153.261c.387 1.928 4.4 4.557 4.416 8.482s-3.6 6.9-5.815 10.983c-2.1 3.877-1.634 7.448.932 10.229s3.447 6.808-.466 10.306c-2.773 2.479-.224 6.83 2.487 5.48a2.908 2.908 0 001.479-3.127c-.129 1.582-1.34 2.728-2.364 2.4a2.15 2.15 0 01-.98-3.334 31.814 31.814 0 003.111-3.21c1.867-2.672 1.806-5.875.329-9.119s-2.35-5.872.527-9.761 4.808-6.012 5.29-10.847c.271-2.726-1.42-4.22-5.29-6.732-2.962-1.924-3.267-4.433-2.8-5.366a4.5 4.5 0 00-.856 3.616" class="prefix__cls-1" data-name="Path 2799" transform="translate(-187.521 156.877)"/></clipPath><clipPath id="prefix__clip-path-147"><path id="prefix__Path_2802" d="M112.232-245.779a8.993 8.993 0 00-6.656 3.953c-2.1 2.861-5.4 15.485-5.443 21.392s2.294 16.06 5.036 20.086c-2.689-2.744-6.71-9.335-7.277-19.894-1.4-26.115 9.258-26.134 10.135-26.251a22.761 22.761 0 014.205.714" class="prefix__cls-1" data-name="Path 2802" transform="translate(-97.765 246.505)"/></clipPath><clipPath id="prefix__clip-path-149"><path id="prefix__Path_2805" d="M188.054-172.8c-.351 2.294-2.45 11.611 7.428 17.694 6.494 4 4.576 8.721 2.6 12.135s1.5 6.2 4.4 7.466c3.374 1.476 3.374 7.35-2.332 7.2-7.254-.187-3.638 10.548 2.02 3.983-1.186.655-2.676 1.325-3.782.3s-.745-3.125 2.539-2.9 7.778-.313 8.711-4.649c1.167-5.422-3.584-5.857-6.221-8.638-3.112-3.28 4.236-9.191-.312-17.59-3.048-5.629-12.134-5.155-10.492-21.525s-4.559 6.513-4.559 6.513" class="prefix__cls-1" data-name="Path 2805" transform="translate(-187.629 185.215)"/></clipPath><clipPath id="prefix__clip-path-151"><path id="prefix__Path_2808" d="M123.991-247.34c.678-4.59 3.432-5.335 8.589-4.884S151-246.74 153.557-238.1a121.008 121.008 0 0010.5 23.778c3.083 5.251 7.67 8.427 9.041 13.943s-.6 9.01-.474 10.483 4.783-6.926 4.55-10.483-2.765-5.811-5.776-11.285-1.8-3.273-3.558-15.684-7.723-17.71-10.655-20.224-10.63-6.88-18.567-8.586c-7.463-1.6-18.565.885-14.623 8.82" class="prefix__cls-1" data-name="Path 2808" transform="translate(-123.168 256.62)"/></clipPath><clipPath id="prefix__clip-path-153"><path id="prefix__Path_2811" d="M158.5-239.723c13.173 12.762 8.432 25.773 17.487 32.922 8.162 6.442 12.053 16.552 5.694 24.6-2.88 3.645-7 9.121-4.712 11.8 4.25 4.97 10.43 3.471 4.122 13.867.427-.5 2.531-5.447-.195-7.188-8.566-3.8-15.509-9.289-12.762-18.322s8.638-5.452-1.962-18.958c-6.644-8.463-3.792-8.753-3.142-21.7.548-10.9-4.531-17.025-4.531-17.025" class="prefix__cls-1" data-name="Path 2811" transform="translate(-158.502 239.723)"/></clipPath><clipPath id="prefix__clip-path-155"><path id="prefix__Path_2814" d="M163.49-205.991c.523-2.371-3.993 6.524-2.623 10.823s3.65 4.249 3.764 6.9-.569 4.587-3.535 8.581-.572 5.989.456 6.7 3.308 1.228 4.792 3.137a4.569 4.569 0 010 5.675c-1.142 1.371-3.183 2.826-2.846 5.064s3 2.575 3.834 2.457a3.236 3.236 0 002.548-1.878 4.149 4.149 0 01-2.866.924 1.907 1.907 0 01-1.583-2.956c.685-.986 3.9-3.254 4.449-4.636a6.141 6.141 0 00-2.144-7.189c-1.849-1.369-3.1-2.444-1.506-5.215s3.081-4.749 3.194-8.267-1.71-6.139-3.764-8.536-3.766-4.348-2.169-11.585" class="prefix__cls-1" data-name="Path 2814" transform="translate(-159.662 206.386)"/></clipPath><clipPath id="prefix__clip-path-157"><path id="prefix__Path_2817" d="M144.314-258.07c12.34 3.28 22.321 11.161 25.793 20.6 2.978 8.106 2.252 11.837 2.664 17.8s2.394 8.592 5.261 11.471 4.161 6.27 1.5 12.981 2.422-.322 3.892-3.855c1.434-3.446 1.845-9.657-4.3-14.164-4.012-2.941-1.64-8.051-1.64-13.787s-1.242-9.35-4.916-14.751c-5.93-8.718-18.622-16.119-28.251-16.3" class="prefix__cls-1" data-name="Path 2817" transform="translate(-144.314 258.07)"/></clipPath><style>.prefix__cls-1{fill:none;clip-rule:evenodd}.prefix__cls-4{clip-path:url(#prefix__clip-path-2)}.prefix__cls-9{fill:#3d5068}.prefix__cls-11{fill:#fbc396}.prefix__cls-13{fill:#ea9f6c}.prefix__cls-16{fill:#663412}.prefix__cls-19{fill:#fff}.prefix__cls-21{fill:#7a9268}.prefix__cls-31{fill:#b7632c}.prefix__cls-36{fill:#ffb089}.prefix__cls-42{fill:#fb7364}.prefix__cls-44{fill:#5a6c92}.prefix__cls-61{fill:#e16953}.prefix__cls-100{fill:#d77736}.prefix__cls-104{fill:#dfa33a}</style></defs><g id="prefix__Group_973" data-name="Group 973" transform="translate(51.324 1.734)"><g id="prefix__Group_972" class="prefix__cls-4" data-name="Group 972" transform="translate(-574.152 -498.674)"><path id="prefix__Path_2581" d="M89.9-268.34h99.361v143.717H89.9z" data-name="Path 2581" transform="translate(480.45 763.211)" fill="#953e04"/></g></g><g id="prefix__Group_975" data-name="Group 975" transform="translate(56.687 43.063)"><g id="prefix__Group_974" class="prefix__cls-4" data-name="Group 974" transform="translate(-579.515 -540.003)"><path id="prefix__Path_2584" d="M96.951-214h15.52v22.279h-15.52z" data-name="Path 2584" transform="translate(478.761 750.2)" fill="#e17c39"/></g></g><g id="prefix__Group_977" data-name="Group 977" transform="translate(88.27 76.047)"><g id="prefix__Group_976" class="prefix__cls-4" data-name="Group 976" transform="translate(-611.098 -572.987)"><path id="prefix__Path_2587" d="M138.476-170.633h11.291v10.191h-11.291z" class="prefix__cls-9" data-name="Path 2587" transform="translate(468.819 739.817)"/></g></g><g id="prefix__Group_979" data-name="Group 979" transform="translate(55.489 64.476)"><g id="prefix__Group_978" class="prefix__cls-4" data-name="Group 978" transform="translate(-578.317 -561.416)"><path id="prefix__Path_2590" d="M95.375-185.846h47.562v57.935H95.375z" class="prefix__cls-11" data-name="Path 2590" transform="translate(479.139 743.459)"/></g></g><g id="prefix__Group_981" data-name="Group 981" transform="translate(68.814 61.205)"><g id="prefix__Group_980" class="prefix__cls-4" data-name="Group 980" transform="translate(-591.642 -558.144)"><path id="prefix__Path_2593" d="M112.895-190.148h28.891v19.306h-28.891z" class="prefix__cls-13" data-name="Path 2593" transform="translate(474.944 744.489)"/></g></g><g id="prefix__Group_983" data-name="Group 983" transform="translate(55.642 7.307)"><g id="prefix__Group_982" class="prefix__cls-4" data-name="Group 982" transform="translate(-578.47 -504.246)"><path id="prefix__Path_2596" d="M95.577-261.013h60.793v71.213H95.577z" class="prefix__cls-11" data-name="Path 2596" transform="translate(479.09 761.457)"/></g></g><g id="prefix__Group_985" data-name="Group 985" transform="translate(88.224 32.697)"><g id="prefix__Group_984" class="prefix__cls-4" data-name="Group 984" transform="translate(-611.052 -529.637)"><path id="prefix__Path_2599" d="M138.415-227.63h19.49v10.363h-19.49z" class="prefix__cls-16" data-name="Path 2599" transform="translate(468.834 753.464)"/></g></g><g id="prefix__Group_987" data-name="Group 987" transform="translate(65.285 29.889)"><g id="prefix__Group_986" class="prefix__cls-4" data-name="Group 986" transform="translate(-588.113 -526.828)"><path id="prefix__Path_2602" d="M108.256-231.322h19.752v11.722h-19.752z" class="prefix__cls-16" data-name="Path 2602" transform="translate(476.055 754.348)"/></g></g><g id="prefix__Group_989" data-name="Group 989" transform="translate(67.972 35.12)"><g id="prefix__Group_988" class="prefix__cls-4" data-name="Group 988" transform="translate(-590.8 -532.06)"><path id="prefix__Path_2605" d="M111.788-224.444h16.335v12.411h-16.335z" class="prefix__cls-19" data-name="Path 2605" transform="translate(475.209 752.701)"/></g></g><g id="prefix__Group_991" data-name="Group 991" transform="translate(69.368 35.234)"><g id="prefix__Group_990" class="prefix__cls-4" data-name="Group 990" transform="translate(-592.196 -532.174)"><path id="prefix__Path_2608" d="M113.624-224.294h12.02v12.256h-12.02z" class="prefix__cls-21" data-name="Path 2608" transform="translate(474.769 752.665)"/></g></g><g id="prefix__Group_993" data-name="Group 993" transform="translate(70.18 35.761)"><g id="prefix__Group_992" class="prefix__cls-4" data-name="Group 992" transform="translate(-593.007 -532.7)"><path id="prefix__Path_2611" d="M114.691-223.6h10.6v10.757h-10.6z" data-name="Path 2611" transform="translate(474.514 752.499)"/></g></g><g id="prefix__Group_995" data-name="Group 995" transform="translate(72.016 36.703)"><g id="prefix__Group_994" class="prefix__cls-4" data-name="Group 994" transform="translate(-594.844 -533.643)"><path id="prefix__Path_2614" d="M117.1-222.363h9.022v8.713H117.1z" class="prefix__cls-19" data-name="Path 2614" transform="translate(473.936 752.203)"/></g></g><g id="prefix__Group_997" data-name="Group 997" transform="translate(66.002 35.016)"><g id="prefix__Group_996" class="prefix__cls-4" data-name="Group 996" transform="translate(-588.83 -531.956)"><path id="prefix__Path_2617" d="M109.2-224.581h18.3v11.652h-18.3z" data-name="Path 2617" transform="translate(475.829 752.734)"/></g></g><g id="prefix__Group_999" data-name="Group 999" transform="translate(87.615 37.734)"><g id="prefix__Group_998" class="prefix__cls-4" data-name="Group 998" transform="translate(-610.443 -534.673)"><path id="prefix__Path_2620" d="M137.615-221.008H154.3v12.434h-16.685z" class="prefix__cls-19" data-name="Path 2620" transform="translate(469.025 751.878)"/></g></g><g id="prefix__Group_1001" data-name="Group 1001" transform="translate(90.785 37.862)"><g id="prefix__Group_1000" class="prefix__cls-4" data-name="Group 1000" transform="translate(-613.613 -534.801)"><path id="prefix__Path_2623" d="M141.783-220.839h12.083v12.258h-12.083z" class="prefix__cls-21" data-name="Path 2623" transform="translate(468.027 751.838)"/></g></g><g id="prefix__Group_1003" data-name="Group 1003" transform="translate(91.461 38.372)"><g id="prefix__Group_1002" class="prefix__cls-4" data-name="Group 1002" transform="translate(-614.289 -535.312)"><path id="prefix__Path_2626" d="M142.671-220.168h10.64v10.757h-10.64z" data-name="Path 2626" transform="translate(467.815 751.677)"/></g></g><g id="prefix__Group_1005" data-name="Group 1005" transform="translate(93.554 39.466)"><g id="prefix__Group_1004" class="prefix__cls-4" data-name="Group 1004" transform="translate(-616.382 -536.406)"><path id="prefix__Path_2629" d="M145.424-218.73h9.044v8.714h-9.044z" class="prefix__cls-19" data-name="Path 2629" transform="translate(467.156 751.333)"/></g></g><g id="prefix__Group_1007" data-name="Group 1007" transform="translate(87.609 37.699)"><g id="prefix__Group_1006" class="prefix__cls-4" data-name="Group 1006" transform="translate(-610.437 -534.638)"><path id="prefix__Path_2632" d="M137.607-221.053h19.083v12.146h-19.083z" data-name="Path 2632" transform="translate(469.027 751.889)"/></g></g><g id="prefix__Group_1009" data-name="Group 1009" transform="translate(53.908)"><g id="prefix__Group_1008" class="prefix__cls-4" data-name="Group 1008" transform="translate(-576.736 -496.94)"><path id="prefix__Path_2635" d="M93.3-270.62h68.6v52.449H93.3z" class="prefix__cls-31" data-name="Path 2635" transform="translate(479.637 763.757)"/></g></g><g id="prefix__Group_1011" data-name="Group 1011" transform="translate(77.162 48.562)"><g id="prefix__Group_1010" class="prefix__cls-4" data-name="Group 1010" transform="translate(-599.99 -545.501)"><path id="prefix__Path_2638" d="M123.871-206.771h14.9v10.843h-14.9z" class="prefix__cls-13" data-name="Path 2638" transform="translate(472.316 748.469)"/></g></g><g id="prefix__Group_1013" data-name="Group 1013" transform="translate(56.688 34.358)"><g id="prefix__Group_1012" class="prefix__cls-4" data-name="Group 1012" transform="translate(-579.516 -531.297)"><path id="prefix__Path_2641" d="M96.952-225.446h10.668v15.476H96.952z" class="prefix__cls-13" data-name="Path 2641" transform="translate(478.761 752.941)"/></g></g><g id="prefix__Group_1015" data-name="Group 1015" transform="translate(103.911 40.416)"><g id="prefix__Group_1014" class="prefix__cls-4" data-name="Group 1014" transform="translate(-626.739 -537.355)"><path id="prefix__Path_2644" d="M159.041-217.481h11.943v14.881h-11.943z" class="prefix__cls-13" data-name="Path 2644" transform="translate(463.895 751.034)"/></g></g><g id="prefix__Group_1017" data-name="Group 1017" transform="translate(62.662 41.584)"><g id="prefix__Group_1016" class="prefix__cls-4" data-name="Group 1016" transform="translate(-585.49 -538.523)"><path id="prefix__Path_2647" d="M104.807-215.945H122.6v15.163h-17.793z" class="prefix__cls-36" data-name="Path 2647" transform="translate(476.88 750.666)"/></g></g><g id="prefix__Group_1019" data-name="Group 1019" transform="translate(89.043 45.187)"><g id="prefix__Group_1018" class="prefix__cls-4" data-name="Group 1018" transform="translate(-611.87 -542.127)"><path id="prefix__Path_2650" d="M139.492-211.208h18.26v14.483h-18.26z" class="prefix__cls-36" data-name="Path 2650" transform="translate(468.576 749.532)"/></g></g><g id="prefix__Group_1021" data-name="Group 1021" transform="translate(71.917 54.77)"><g id="prefix__Group_1020" class="prefix__cls-4" data-name="Group 1020" transform="translate(-594.745 -551.709)"><path id="prefix__Path_2653" d="M116.975-198.609h23.8v15.458h-23.8z" data-name="Path 2653" transform="translate(473.967 746.515)" fill="#c5523b"/></g></g><g id="prefix__Group_1023" data-name="Group 1023" transform="translate(73.885 55.365)"><g id="prefix__Group_1022" class="prefix__cls-4" data-name="Group 1022" transform="translate(-596.713 -552.305)"><path id="prefix__Path_2656" d="M119.563-197.826h19.5v14.54h-19.5z" class="prefix__cls-19" data-name="Path 2656" transform="translate(473.347 746.328)"/></g></g><g id="prefix__Group_1025" data-name="Group 1025" transform="translate(73.301 55.192)"><g id="prefix__Group_1024" class="prefix__cls-4" data-name="Group 1024" transform="translate(-596.129 -552.132)"><path id="prefix__Path_2659" d="M118.795-198.053H139.7v9.771h-20.905z" class="prefix__cls-42" data-name="Path 2659" transform="translate(473.531 746.382)"/></g></g><g id="prefix__Group_1027" data-name="Group 1027" transform="translate(24.795 82.044)"><g id="prefix__Group_1026" class="prefix__cls-4" data-name="Group 1026" transform="translate(-547.622 -578.984)"><path id="prefix__Path_2662" d="M55.018-162.748h93.415V-54.71H55.018z" class="prefix__cls-44" data-name="Path 2662" transform="translate(488.802 737.929)"/></g></g><g id="prefix__Group_1029" data-name="Group 1029" transform="translate(72.619 56.354)"><g id="prefix__Group_1028" class="prefix__cls-4" data-name="Group 1028" transform="translate(-595.447 -553.294)"><path id="prefix__Path_2665" d="M117.9-196.525h22.237v14.335H117.9z" class="prefix__cls-42" data-name="Path 2665" transform="translate(473.746 746.016)"/></g></g><g id="prefix__Group_1031" data-name="Group 1031" transform="translate(36.3 106.169)"><g id="prefix__Group_1030" class="prefix__cls-4" data-name="Group 1030" transform="translate(-559.128 -603.108)"><path id="prefix__Path_2668" d="M70.146-131.029h13.043v26.915H70.146z" class="prefix__cls-9" data-name="Path 2668" transform="translate(485.179 730.334)"/></g></g><g id="prefix__Group_1033" data-name="Group 1033" transform="translate(66.665 131)"><g id="prefix__Group_1032" class="prefix__cls-4" data-name="Group 1032" transform="translate(-589.493 -627.939)"><path id="prefix__Path_2671" d="M110.07-98.381h33.189v16.35H110.07z" class="prefix__cls-9" data-name="Path 2671" transform="translate(475.62 722.517)"/></g></g><g id="prefix__Group_1035" data-name="Group 1035" transform="translate(58.301 101.283)"><g id="prefix__Group_1034" class="prefix__cls-4" data-name="Group 1034" transform="translate(-581.128 -598.222)"><path id="prefix__Path_2674" d="M99.072-137.453h18.71v82.2h-18.71z" class="prefix__cls-9" data-name="Path 2674" transform="translate(478.254 731.872)"/></g></g><g id="prefix__Group_1037" data-name="Group 1037" transform="translate(60.789 144.563)"><g id="prefix__Group_1036" class="prefix__cls-4" data-name="Group 1036" transform="translate(-583.617 -641.503)"><path id="prefix__Path_2677" d="M102.344-80.547h45.189v15.908h-45.189z" class="prefix__cls-9" data-name="Path 2677" transform="translate(477.47 718.247)"/></g></g><g id="prefix__Group_1039" data-name="Group 1039" transform="translate(67.452 76.852)"><g id="prefix__Group_1038" class="prefix__cls-4" data-name="Group 1038" transform="translate(-590.28 -573.792)"><path id="prefix__Path_2680" d="M111.105-169.574h40.7v35.074h-40.7z" class="prefix__cls-9" data-name="Path 2680" transform="translate(475.373 739.563)"/></g></g><g id="prefix__Group_1041" data-name="Group 1041" transform="translate(74.341 76.497)"><g id="prefix__Group_1040" class="prefix__cls-4" data-name="Group 1040" transform="translate(-597.169 -573.437)"><path id="prefix__Path_2683" d="M120.162-170.041h34.718v30.753h-34.718z" class="prefix__cls-44" data-name="Path 2683" transform="translate(473.204 739.675)"/></g></g><g id="prefix__Group_1043" data-name="Group 1043" transform="translate(53.666 75.75)"><g id="prefix__Group_1042" class="prefix__cls-4" data-name="Group 1042" transform="translate(-576.494 -572.69)"><path id="prefix__Path_2686" d="M92.979-171.023h21.483v36.171H92.979z" class="prefix__cls-9" data-name="Path 2686" transform="translate(479.712 739.91)"/></g></g><g id="prefix__Group_1045" data-name="Group 1045" transform="translate(36.271 175.879)"><g id="prefix__Group_1044" class="prefix__cls-4" data-name="Group 1044" transform="translate(-559.099 -672.819)"><path id="prefix__Path_2689" d="M70.107-39.373h83.372v33.536H70.107z" data-name="Path 2689" transform="translate(485.189 708.389)" fill="#3e3e3e"/></g></g><g id="prefix__Group_1047" data-name="Group 1047" transform="translate(53.631 76.137)"><g id="prefix__Group_1046" class="prefix__cls-4" data-name="Group 1046" transform="translate(-576.459 -573.077)"><path id="prefix__Path_2692" d="M92.932-170.514h20.813v17.79H92.932z" class="prefix__cls-44" data-name="Path 2692" transform="translate(479.724 739.788)"/></g></g><g id="prefix__Group_1049" data-name="Group 1049" transform="translate(22.241 141.985)"><g id="prefix__Group_1048" class="prefix__cls-4" data-name="Group 1048" transform="translate(-545.068 -638.925)"><path id="prefix__Path_2695" d="M51.66-83.937h31.481v19.28H51.66z" class="prefix__cls-13" data-name="Path 2695" transform="translate(489.606 719.059)"/></g></g><g id="prefix__Group_1051" data-name="Group 1051" transform="translate(23.242 122.534)"><g id="prefix__Group_1050" class="prefix__cls-4" data-name="Group 1050" transform="translate(-546.07 -619.473)"><path id="prefix__Path_2698" d="M52.977-109.512h26.769v25.73H52.977z" class="prefix__cls-11" data-name="Path 2698" transform="translate(489.29 725.182)"/></g></g><g id="prefix__Group_1053" data-name="Group 1053" transform="translate(25.788 130.482)"><g id="prefix__Group_1052" class="prefix__cls-4" data-name="Group 1052" transform="translate(-548.616 -627.422)"><path id="prefix__Path_2701" d="M56.325-99.061h16.911V-85.8H56.325z" class="prefix__cls-13" data-name="Path 2701" transform="translate(488.489 722.68)"/></g></g><g id="prefix__Group_1055" data-name="Group 1055" transform="translate(25.126 130.089)"><g id="prefix__Group_1054" class="prefix__cls-4" data-name="Group 1054" transform="translate(-547.954 -627.028)"><path id="prefix__Path_2704" d="M55.454-99.578h17.268v13.223H55.454z" class="prefix__cls-11" data-name="Path 2704" transform="translate(488.697 722.804)"/></g></g><g id="prefix__Group_1057" data-name="Group 1057" transform="translate(32.363 133.491)"><g id="prefix__Group_1056" class="prefix__cls-4" data-name="Group 1056" transform="translate(-555.191 -630.431)"><path id="prefix__Path_2707" d="M64.969-95.105h10.2v9.493h-10.2z" class="prefix__cls-61" data-name="Path 2707" transform="translate(486.419 721.733)"/></g></g><g id="prefix__Group_1059" data-name="Group 1059" transform="translate(24.793 129.74)"><g id="prefix__Group_1058" class="prefix__cls-4" data-name="Group 1058" transform="translate(-547.621 -626.68)"><path id="prefix__Path_2710" d="M55.017-100.037h21.12v13.258h-21.12z" class="prefix__cls-13" data-name="Path 2710" transform="translate(488.802 722.914)"/></g></g><g id="prefix__Group_1061" data-name="Group 1061" transform="translate(26.534 125.928)"><g id="prefix__Group_1060" class="prefix__cls-4" data-name="Group 1060" transform="translate(-549.362 -622.867)"><path id="prefix__Path_2713" d="M57.3-105.05h21v14.44h-21z" class="prefix__cls-13" data-name="Path 2713" transform="translate(488.254 724.114)"/></g></g><g id="prefix__Group_1063" data-name="Group 1063" transform="translate(31.951 114.807)"><g id="prefix__Group_1062" class="prefix__cls-4" data-name="Group 1062" transform="translate(-554.779 -611.747)"><path id="prefix__Path_2716" d="M64.427-119.671h10.232v10.865H64.427z" data-name="Path 2716" transform="translate(486.549 727.615)" fill="#c2c4c2"/></g></g><g id="prefix__Group_1065" data-name="Group 1065" transform="translate(32.279 116.248)"><g id="prefix__Group_1064" class="prefix__cls-4" data-name="Group 1064" transform="translate(-555.107 -613.187)"><path id="prefix__Path_2719" d="M64.859-117.777h16.018v25.294H64.859z" data-name="Path 2719" transform="translate(486.445 727.161)" fill="#369e3a"/></g></g><g id="prefix__Group_1067" data-name="Group 1067" transform="translate(33.184 115.852)"><g id="prefix__Group_1066" class="prefix__cls-4" data-name="Group 1066" transform="translate(-556.012 -612.792)"><path id="prefix__Path_2722" d="M66.049-118.3h16.009V-93H66.049z" data-name="Path 2722" transform="translate(486.16 727.286)" fill="#71dd5b"/></g></g><g id="prefix__Group_1069" data-name="Group 1069" transform="translate(32.746 116.016)"><g id="prefix__Group_1068" class="prefix__cls-4" data-name="Group 1068" transform="translate(-555.574 -612.955)"><path id="prefix__Path_2725" d="M65.473-118.082h16.018v25.295H65.473z" data-name="Path 2725" transform="translate(486.298 727.234)" fill="#40c140"/></g></g><g id="prefix__Group_1071" data-name="Group 1071" transform="translate(39.778 133.139)"><g id="prefix__Group_1070" class="prefix__cls-4" data-name="Group 1070" transform="translate(-562.606 -630.079)"><path id="prefix__Path_2728" d="M74.719-95.568h10.036v11.513H74.719z" data-name="Path 2728" transform="translate(484.085 721.844)" fill="#fbea9d"/></g></g><g id="prefix__Group_1073" data-name="Group 1073" transform="translate(41.389 135.731)"><g id="prefix__Group_1072" class="prefix__cls-4" data-name="Group 1072" transform="translate(-564.216 -632.671)"><path id="prefix__Path_2731" d="M76.836-92.16h8.426v8.921h-8.426z" data-name="Path 2731" transform="translate(483.578 721.028)" fill="#515151"/></g></g><g id="prefix__Group_1075" data-name="Group 1075" transform="translate(32.262 115.816)"><g id="prefix__Group_1074" class="prefix__cls-4" data-name="Group 1074" transform="translate(-555.09 -612.756)"><path id="prefix__Path_2734" d="M64.836-118.344h9.83v9.354h-9.83z" data-name="Path 2734" transform="translate(486.451 727.297)" fill="#393939"/></g></g><g id="prefix__Group_1077" data-name="Group 1077" transform="translate(28.497 119.245)"><g id="prefix__Group_1076" class="prefix__cls-4" data-name="Group 1076" transform="translate(-551.325 -616.185)"><path id="prefix__Path_2737" d="M59.886-113.836h18.7v20.781h-18.7z" class="prefix__cls-11" data-name="Path 2737" transform="translate(487.636 726.218)"/></g></g><g id="prefix__Group_1079" data-name="Group 1079" transform="translate(26.575 126.322)"><g id="prefix__Group_1078" class="prefix__cls-4" data-name="Group 1078" transform="translate(-549.403 -623.261)"><path id="prefix__Path_2740" d="M57.359-104.532h19.132v16.263H57.359z" class="prefix__cls-11" data-name="Path 2740" transform="translate(488.241 723.99)"/></g></g><g id="prefix__Group_1081" data-name="Group 1081" transform="translate(35.72 123.113)"><g id="prefix__Group_1080" class="prefix__cls-4" data-name="Group 1080" transform="translate(-558.548 -620.053)"><path id="prefix__Path_2743" d="M69.383-108.75h10.684v10.442H69.383z" class="prefix__cls-61" data-name="Path 2743" transform="translate(485.362 725)"/></g></g><g id="prefix__Group_1083" data-name="Group 1083" transform="translate(37.332 129.556)"><g id="prefix__Group_1082" class="prefix__cls-4" data-name="Group 1082" transform="translate(-560.16 -626.496)"><path id="prefix__Path_2746" d="M71.5-100.279h9.951v9.852H71.5z" class="prefix__cls-61" data-name="Path 2746" transform="translate(484.855 722.972)"/></g></g><g id="prefix__Group_1085" data-name="Group 1085" transform="translate(35.537 132.261)"><g id="prefix__Group_1084" class="prefix__cls-4" data-name="Group 1084" transform="translate(-558.365 -629.2)"><path id="prefix__Path_2749" d="M69.143-96.723H79.35v9.712H69.143z" class="prefix__cls-61" data-name="Path 2749" transform="translate(485.42 722.12)"/></g></g><g id="prefix__Group_1087" data-name="Group 1087" transform="translate(.474 129.037)"><g id="prefix__Group_1086" class="prefix__cls-4" data-name="Group 1086" transform="translate(-523.302 -625.977)"><path id="prefix__Path_2752" d="M23.041-100.961h49.327v19.546H23.041z" class="prefix__cls-19" data-name="Path 2752" transform="translate(496.458 723.135)"/></g></g><g id="prefix__Group_1089" data-name="Group 1089" transform="translate(41.937 134.665)"><g id="prefix__Group_1088" class="prefix__cls-4" data-name="Group 1088" transform="translate(-564.765 -631.604)"><path id="prefix__Path_2755" d="M77.557-93.562h40.334v23.575H77.557z" data-name="Path 2755" transform="translate(483.405 721.363)" fill="#dbdbdb"/></g></g><g id="prefix__Group_1091" data-name="Group 1091" transform="translate(0 129.821)"><g id="prefix__Group_1090" class="prefix__cls-4" data-name="Group 1090" transform="translate(-522.828 -626.761)"><path id="prefix__Path_2758" d="M22.418-99.93H104.9v33.287H22.418z" data-name="Path 2758" transform="translate(496.607 722.888)" fill="#752b0a"/></g></g><g id="prefix__Group_1093" data-name="Group 1093" transform="translate(20.685 137.209)"><g id="prefix__Group_1092" class="prefix__cls-4" data-name="Group 1092" transform="translate(-543.513 -634.148)"><path id="prefix__Path_2761" d="M49.615-90.217h61.8v21.663h-61.8z" data-name="Path 2761" transform="translate(490.095 720.563)" fill="#9b5e25"/></g></g><g id="prefix__Group_1095" data-name="Group 1095" transform="translate(21.692 142.283)"><g id="prefix__Group_1094" class="prefix__cls-4" data-name="Group 1094" transform="translate(-544.52 -639.223)"><path id="prefix__Path_2764" d="M50.939-83.545h40.866v24.305H50.939z" class="prefix__cls-11" data-name="Path 2764" transform="translate(489.778 718.965)"/></g></g><g id="prefix__Group_1097" data-name="Group 1097" transform="translate(31.379 145.075)"><g id="prefix__Group_1096" class="prefix__cls-4" data-name="Group 1096" transform="translate(-554.207 -642.014)"><path id="prefix__Path_2767" d="M63.675-79.875h11.11v10.168h-11.11z" class="prefix__cls-61" data-name="Path 2767" transform="translate(486.729 718.086)"/></g></g><g id="prefix__Group_1099" data-name="Group 1099" transform="translate(50.055 85.178)"><g id="prefix__Group_1098" class="prefix__cls-4" data-name="Group 1098" transform="translate(-572.883 -582.118)"><path id="prefix__Path_2770" d="M88.23-158.627h78.34v88.041H88.23z" class="prefix__cls-44" data-name="Path 2770" transform="translate(480.849 736.942)"/></g></g><g id="prefix__Group_1101" data-name="Group 1101" transform="translate(51.586 160.23)"><g id="prefix__Group_1100" class="prefix__cls-4" data-name="Group 1100" transform="translate(-574.414 -657.169)"><path id="prefix__Path_2773" d="M90.244-59.949h52.435v14.928H90.244z" class="prefix__cls-9" data-name="Path 2773" transform="translate(480.367 713.315)"/></g></g><g id="prefix__Group_1103" data-name="Group 1103" transform="translate(24.134 145.149)"><g id="prefix__Group_1102" class="prefix__cls-4" data-name="Group 1102" transform="translate(-546.962 -642.089)"><path id="prefix__Path_2776" d="M54.15-79.777h15.888v14.867H54.15z" class="prefix__cls-13" data-name="Path 2776" transform="translate(489.009 718.063)"/></g></g><g id="prefix__Group_1105" data-name="Group 1105" transform="translate(61.14 103.396)"><g id="prefix__Group_1104" class="prefix__cls-4" data-name="Group 1104" transform="translate(-583.968 -600.336)"><path id="prefix__Path_2779" d="M102.805-134.674h9.982v10.384h-9.982z" class="prefix__cls-9" data-name="Path 2779" transform="translate(477.36 731.207)"/></g></g><g id="prefix__Group_1107" data-name="Group 1107" transform="translate(56.249 119.456)"><g id="prefix__Group_1106" class="prefix__cls-4" data-name="Group 1106" transform="translate(-579.077 -616.395)"><path id="prefix__Path_2782" d="M96.375-113.559h9.9v10.386h-9.9z" class="prefix__cls-9" data-name="Path 2782" transform="translate(478.899 726.151)"/></g></g><g id="prefix__Group_1109" data-name="Group 1109" transform="translate(55.643 135.656)"><g id="prefix__Group_1108" class="prefix__cls-4" data-name="Group 1108" transform="translate(-578.471 -632.596)"><path id="prefix__Path_2785" d="M95.578-92.258h9.822v10.386h-9.822z" class="prefix__cls-9" data-name="Path 2785" transform="translate(479.09 721.051)"/></g></g><g id="prefix__Group_1111" data-name="Group 1111" transform="translate(55.643 165.124)"><g id="prefix__Group_1110" class="prefix__cls-4" data-name="Group 1110" transform="translate(-578.471 -662.064)"><path id="prefix__Path_2788" d="M95.578-53.514h9.822v10.387h-9.822z" class="prefix__cls-9" data-name="Path 2788" transform="translate(479.09 711.775)"/></g></g><g id="prefix__Group_1113" data-name="Group 1113" transform="translate(51.008 12.676)"><g id="prefix__Group_1112" class="prefix__cls-4" data-name="Group 1112" transform="translate(-573.836 -509.616)"><path id="prefix__Path_2791" d="M89.484-253.953H116.3v66.86H89.484z" class="prefix__cls-100" data-name="Path 2791" transform="translate(480.549 759.766)"/></g></g><g id="prefix__Group_1115" data-name="Group 1115" transform="translate(55.11 14.959)"><g id="prefix__Group_1114" class="prefix__cls-4" data-name="Group 1114" transform="translate(-577.938 -511.899)"><path id="prefix__Path_2794" d="M94.877-250.952h22.71v56.285h-22.71z" class="prefix__cls-100" data-name="Path 2794" transform="translate(479.258 759.048)"/></g></g><g id="prefix__Group_1117" data-name="Group 1117" transform="translate(121.769 82.707)"><g id="prefix__Group_1116" class="prefix__cls-4" data-name="Group 1116" transform="translate(-644.597 -579.646)"><path id="prefix__Path_2797" d="M182.52-161.877h19.3v56.955h-19.3z" class="prefix__cls-31" data-name="Path 2797" transform="translate(458.273 737.72)"/></g></g><g id="prefix__Group_1119" data-name="Group 1119" transform="translate(53.503 14.539)"><g id="prefix__Group_1118" class="prefix__cls-4" data-name="Group 1118" transform="translate(-576.331 -511.478)"><path id="prefix__Path_2800" d="M92.765-251.5h22.073v53.762H92.765z" class="prefix__cls-104" data-name="Path 2800" transform="translate(479.764 759.18)"/></g></g><g id="prefix__Group_1121" data-name="Group 1121" transform="translate(121.851 61.154)"><g id="prefix__Group_1120" class="prefix__cls-4" data-name="Group 1120" transform="translate(-644.679 -558.093)"><path id="prefix__Path_2803" d="M182.629-190.215h29.8v70.631h-29.8z" class="prefix__cls-100" data-name="Path 2803" transform="translate(458.247 744.505)"/></g></g><g id="prefix__Group_1123" data-name="Group 1123" transform="translate(72.825 6.845)"><g id="prefix__Group_1122" class="prefix__cls-4" data-name="Group 1122" transform="translate(-595.653 -503.785)"><path id="prefix__Path_2806" d="M118.168-261.62h61.616v74.5h-61.616z" class="prefix__cls-104" data-name="Path 2806" transform="translate(473.681 761.602)"/></g></g><g id="prefix__Group_1125" data-name="Group 1125" transform="translate(99.698 19.697)"><g id="prefix__Group_1124" class="prefix__cls-4" data-name="Group 1124" transform="translate(-622.526 -516.636)"><path id="prefix__Path_2809" d="M153.5-244.723h33.954v90.8H153.5z" class="prefix__cls-100" data-name="Path 2809" transform="translate(465.221 757.556)"/></g></g><g id="prefix__Group_1127" data-name="Group 1127" transform="translate(100.581 45.051)"><g id="prefix__Group_1126" class="prefix__cls-4" data-name="Group 1126" transform="translate(-623.408 -541.991)"><path id="prefix__Path_2812" d="M154.662-211.386h18.254v57.358h-18.254z" class="prefix__cls-100" data-name="Path 2812" transform="translate(464.944 749.574)"/></g></g><g id="prefix__Group_1129" data-name="Group 1129" transform="translate(88.907 5.742)"><g id="prefix__Group_1128" class="prefix__cls-4" data-name="Group 1128" transform="translate(-611.735 -502.682)"><path id="prefix__Path_2815" d="M139.314-263.07h47.607v73.258h-47.607z" class="prefix__cls-100" data-name="Path 2815" transform="translate(468.618 761.949)"/></g></g></svg>