<svg xmlns="http://www.w3.org/2000/svg" width="40" height="40" viewBox="0 0 30 30"><path d="M7.625 3.21L18 13.587l2.676-2.676c-3.656-2.223-8.559-5.2-10.762-6.539l-1.476-.894a1.798 1.798 0 00-.817-.266zM6.039 4.454c-.02.113-.039.23-.039.352V25.31c0 .086.016.168.031.25L16.586 15zm16.398 7.524L19.415 15l2.973 2.969c1.57-.953 2.664-1.614 2.785-1.688.531-.328.836-.82.828-1.36-.012-.526-.313-1.003-.824-1.292-.117-.066-1.192-.715-2.738-1.652zM18 16.414L7.656 26.762c.2-.035.399-.098.594-.215.266-.16 7.45-4.52 12.375-7.508zm0 0" fill="#fff"/></svg>