<svg xmlns="http://www.w3.org/2000/svg" width="379" height="757"><defs><filter id="prefix__Path_5057" width="54.525" height="37.297" x="133.876" y="362.014" filterUnits="userSpaceOnUse"><feOffset dx="3" dy="3"/><feGaussianBlur result="blur-2" stdDeviation="3"/><feFlood flood-opacity=".063"/><feComposite in2="blur-2" operator="in"/><feComposite in="SourceGraphic"/></filter><filter id="prefix__Path_5076" width="119.237" height="69.658" x="643.813" y="405.372" filterUnits="userSpaceOnUse"><feOffset dx="3" dy="3"/><feGaussianBlur result="blur-21" stdDeviation="3"/><feFlood flood-opacity=".063"/><feComposite in2="blur-21" operator="in"/><feComposite in="SourceGraphic"/></filter><filter id="prefix__Path_5058" width="119.209" height="69.585" x=".722" y="403.25" filterUnits="userSpaceOnUse"><feOffset dx="3" dy="3"/><feGaussianBlur result="blur-3" stdDeviation="3"/><feFlood flood-opacity=".063"/><feComposite in2="blur-3" operator="in"/><feComposite in="SourceGraphic"/></filter><filter id="prefix__Path_5059" width="96.097" height="44.957" x="13.047" y="371.802" filterUnits="userSpaceOnUse"><feOffset dx="3" dy="3"/><feGaussianBlur result="blur-4" stdDeviation="3"/><feFlood flood-opacity=".063"/><feComposite in2="blur-4" operator="in"/><feComposite in="SourceGraphic"/></filter><filter id="prefix__Path_5060" width="119.243" height="69.656" x="-.052" y="287.97" filterUnits="userSpaceOnUse"><feOffset dx="3" dy="3"/><feGaussianBlur result="blur-5" stdDeviation="3"/><feFlood flood-opacity=".063"/><feComposite in2="blur-5" operator="in"/><feComposite in="SourceGraphic"/></filter><filter id="prefix__Path_5061" width="96.096" height="44.949" x="12.278" y="344.084" filterUnits="userSpaceOnUse"><feOffset dx="3" dy="3"/><feGaussianBlur result="blur-6" stdDeviation="3"/><feFlood flood-opacity=".063"/><feComposite in2="blur-6" operator="in"/><feComposite in="SourceGraphic"/></filter><filter id="prefix__Path_5062" width="37.301" height="54.524" x="363.685" y="574.598" filterUnits="userSpaceOnUse"><feOffset dx="3" dy="3"/><feGaussianBlur result="blur-7" stdDeviation="3"/><feFlood flood-opacity=".063"/><feComposite in2="blur-7" operator="in"/><feComposite in="SourceGraphic"/></filter><filter id="prefix__Path_5063" width="69.584" height="119.208" x="290.166" y="643.07" filterUnits="userSpaceOnUse"><feOffset dx="3" dy="3"/><feGaussianBlur result="blur-8" stdDeviation="3"/><feFlood flood-opacity=".063"/><feComposite in2="blur-8" operator="in"/><feComposite in="SourceGraphic"/></filter><filter id="prefix__Path_5064" width="44.958" height="96.097" x="346.239" y="653.854" filterUnits="userSpaceOnUse"><feOffset dx="3" dy="3"/><feGaussianBlur result="blur-9" stdDeviation="3"/><feFlood flood-opacity=".063"/><feComposite in2="blur-9" operator="in"/><feComposite in="SourceGraphic"/></filter><filter id="prefix__Path_5065" width="774.448" height="774.449" x="-5.723" y="-5.724" filterUnits="userSpaceOnUse"><feOffset dx="3" dy="3"/><feGaussianBlur result="blur-10" stdDeviation="3"/><feFlood flood-opacity=".063"/><feComposite in2="blur-10" operator="in"/><feComposite in="SourceGraphic"/></filter><filter id="prefix__Path_5066" width="69.621" height="119.205" x="405.373" y="643.843" filterUnits="userSpaceOnUse"><feOffset dx="3" dy="3"/><feGaussianBlur result="blur-11" stdDeviation="3"/><feFlood flood-opacity=".063"/><feComposite in2="blur-11" operator="in"/><feComposite in="SourceGraphic"/></filter><filter id="prefix__Path_5067" width="44.951" height="96.096" x="373.963" y="654.624" filterUnits="userSpaceOnUse"><feOffset dx="3" dy="3"/><feGaussianBlur result="blur-12" stdDeviation="3"/><feFlood flood-opacity=".063"/><feComposite in2="blur-12" operator="in"/><feComposite in="SourceGraphic"/></filter><filter id="prefix__Path_5068" width="37.3" height="54.523" x="362.012" y="133.876" filterUnits="userSpaceOnUse"><feOffset dx="3" dy="3"/><feGaussianBlur result="blur-13" stdDeviation="3"/><feFlood flood-opacity=".063"/><feComposite in2="blur-13" operator="in"/><feComposite in="SourceGraphic"/></filter><filter id="prefix__Path_5069" width="69.584" height="119.208" x="403.25" y=".721" filterUnits="userSpaceOnUse"><feOffset dx="3" dy="3"/><feGaussianBlur result="blur-14" stdDeviation="3"/><feFlood flood-opacity=".063"/><feComposite in2="blur-14" operator="in"/><feComposite in="SourceGraphic"/></filter><filter id="prefix__Path_5070" width="44.958" height="96.094" x="371.803" y="13.05" filterUnits="userSpaceOnUse"><feOffset dx="3" dy="3"/><feGaussianBlur result="blur-15" stdDeviation="3"/><feFlood flood-opacity=".063"/><feComposite in2="blur-15" operator="in"/><feComposite in="SourceGraphic"/></filter><filter id="prefix__Path_5071" width="69.622" height="119.209" x="288.005" y="-.052" filterUnits="userSpaceOnUse"><feOffset dx="3" dy="3"/><feGaussianBlur result="blur-16" stdDeviation="3"/><feFlood flood-opacity=".063"/><feComposite in2="blur-16" operator="in"/><feComposite in="SourceGraphic"/></filter><filter id="prefix__Path_5072" width="44.95" height="96.093" x="344.086" y="12.276" filterUnits="userSpaceOnUse"><feOffset dx="3" dy="3"/><feGaussianBlur result="blur-17" stdDeviation="3"/><feFlood flood-opacity=".063"/><feComposite in2="blur-17" operator="in"/><feComposite in="SourceGraphic"/></filter><filter id="prefix__Path_5073" width="54.526" height="37.3" x="574.597" y="363.685" filterUnits="userSpaceOnUse"><feOffset dx="3" dy="3"/><feGaussianBlur result="blur-18" stdDeviation="3"/><feFlood flood-opacity=".063"/><feComposite in2="blur-18" operator="in"/><feComposite in="SourceGraphic"/></filter><filter id="prefix__Path_5074" width="119.207" height="69.586" x="643.069" y="290.163" filterUnits="userSpaceOnUse"><feOffset dx="3" dy="3"/><feGaussianBlur result="blur-19" stdDeviation="3"/><feFlood flood-opacity=".063"/><feComposite in2="blur-19" operator="in"/><feComposite in="SourceGraphic"/></filter><filter id="prefix__Path_5075" width="96.096" height="44.961" x="653.855" y="346.238" filterUnits="userSpaceOnUse"><feOffset dx="3" dy="3"/><feGaussianBlur result="blur-20" stdDeviation="3"/><feFlood flood-opacity=".063"/><feComposite in2="blur-20" operator="in"/><feComposite in="SourceGraphic"/></filter><filter id="prefix__Rectangle_2892" width="398" height="776" x="-9.5" y="-9.5" filterUnits="userSpaceOnUse"><feOffset/><feGaussianBlur result="blur" stdDeviation="3"/><feFlood flood-opacity=".161"/><feComposite in2="blur" operator="in"/><feComposite in="SourceGraphic"/></filter><filter id="prefix__Path_5077" width="96.099" height="44.953" x="654.626" y="373.963" filterUnits="userSpaceOnUse"><feOffset dx="3" dy="3"/><feGaussianBlur result="blur-22" stdDeviation="3"/><feFlood flood-opacity=".063"/><feComposite in2="blur-22" operator="in"/><feComposite in="SourceGraphic"/></filter><filter id="prefix__Path_5078" width="78.176" height="83.705" x="495.129" y="539.892" filterUnits="userSpaceOnUse"><feOffset dx="3" dy="3"/><feGaussianBlur result="blur-23" stdDeviation="3"/><feFlood flood-opacity=".063"/><feComposite in2="blur-23" operator="in"/><feComposite in="SourceGraphic"/></filter><filter id="prefix__Path_5079" width="102.807" height="80.265" x="597.969" y="518.416" filterUnits="userSpaceOnUse"><feOffset dx="3" dy="3"/><feGaussianBlur result="blur-24" stdDeviation="3"/><feFlood flood-opacity=".063"/><feComposite in2="blur-24" operator="in"/><feComposite in="SourceGraphic"/></filter><filter id="prefix__Path_5080" width="151.393" height="122.156" x="518.083" y="593.817" filterUnits="userSpaceOnUse"><feOffset dx="3" dy="3"/><feGaussianBlur result="blur-25" stdDeviation="3"/><feFlood flood-opacity=".063"/><feComposite in2="blur-25" operator="in"/><feComposite in="SourceGraphic"/></filter><filter id="prefix__Path_5081" width="81.27" height="99.642" x="524.079" y="490.45" filterUnits="userSpaceOnUse"><feOffset dx="3" dy="3"/><feGaussianBlur result="blur-26" stdDeviation="3"/><feFlood flood-opacity=".063"/><feComposite in2="blur-26" operator="in"/><feComposite in="SourceGraphic"/></filter><filter id="prefix__Path_5082" width="83.706" height="78.174" x="139.399" y="189.694" filterUnits="userSpaceOnUse"><feOffset dx="3" dy="3"/><feGaussianBlur result="blur-27" stdDeviation="3"/><feFlood flood-opacity=".063"/><feComposite in2="blur-27" operator="in"/><feComposite in="SourceGraphic"/></filter><filter id="prefix__Path_5083" width="80.264" height="102.805" x="164.316" y="62.221" filterUnits="userSpaceOnUse"><feOffset dx="3" dy="3"/><feGaussianBlur result="blur-28" stdDeviation="3"/><feFlood flood-opacity=".063"/><feComposite in2="blur-28" operator="in"/><feComposite in="SourceGraphic"/></filter><filter id="prefix__Path_5084" width="122.158" height="151.389" x="47.026" y="93.523" filterUnits="userSpaceOnUse"><feOffset dx="3" dy="3"/><feGaussianBlur result="blur-29" stdDeviation="3"/><feFlood flood-opacity=".063"/><feComposite in2="blur-29" operator="in"/><feComposite in="SourceGraphic"/></filter><filter id="prefix__Path_5085" width="99.641" height="81.27" x="172.905" y="157.649" filterUnits="userSpaceOnUse"><feOffset dx="3" dy="3"/><feGaussianBlur result="blur-30" stdDeviation="3"/><feFlood flood-opacity=".063"/><feComposite in2="blur-30" operator="in"/><feComposite in="SourceGraphic"/></filter><filter id="prefix__Path_5086" width="83.707" height="78.175" x="139.401" y="501.078" filterUnits="userSpaceOnUse"><feOffset dx="3" dy="3"/><feGaussianBlur result="blur-31" stdDeviation="3"/><feFlood flood-opacity=".063"/><feComposite in2="blur-31" operator="in"/><feComposite in="SourceGraphic"/></filter><filter id="prefix__Path_5087" width="80.261" height="102.806" x="164.32" y="603.921" filterUnits="userSpaceOnUse"><feOffset dx="3" dy="3"/><feGaussianBlur result="blur-32" stdDeviation="3"/><feFlood flood-opacity=".063"/><feComposite in2="blur-32" operator="in"/><feComposite in="SourceGraphic"/></filter><filter id="prefix__Path_5088" width="122.158" height="151.392" x="47.028" y="524.034" filterUnits="userSpaceOnUse"><feOffset dx="3" dy="3"/><feGaussianBlur result="blur-33" stdDeviation="3"/><feFlood flood-opacity=".063"/><feComposite in2="blur-33" operator="in"/><feComposite in="SourceGraphic"/></filter><filter id="prefix__Path_5089" width="99.642" height="81.27" x="172.906" y="530.029" filterUnits="userSpaceOnUse"><feOffset dx="3" dy="3"/><feGaussianBlur result="blur-34" stdDeviation="3"/><feFlood flood-opacity=".063"/><feComposite in2="blur-34" operator="in"/><feComposite in="SourceGraphic"/></filter><filter id="prefix__Path_5090" width="78.174" height="83.706" x="495.13" y="145.35" filterUnits="userSpaceOnUse"><feOffset dx="3" dy="3"/><feGaussianBlur result="blur-35" stdDeviation="3"/><feFlood flood-opacity=".063"/><feComposite in2="blur-35" operator="in"/><feComposite in="SourceGraphic"/></filter><filter id="prefix__Path_5091" width="102.806" height="80.264" x="597.972" y="170.267" filterUnits="userSpaceOnUse"><feOffset dx="3" dy="3"/><feGaussianBlur result="blur-36" stdDeviation="3"/><feFlood flood-opacity=".063"/><feComposite in2="blur-36" operator="in"/><feComposite in="SourceGraphic"/></filter><filter id="prefix__Path_5092" width="151.39" height="122.157" x="518.087" y="52.976" filterUnits="userSpaceOnUse"><feOffset dx="3" dy="3"/><feGaussianBlur result="blur-37" stdDeviation="3"/><feFlood flood-opacity=".063"/><feComposite in2="blur-37" operator="in"/><feComposite in="SourceGraphic"/></filter><filter id="prefix__Path_5093" width="81.27" height="99.644" x="524.08" y="178.855" filterUnits="userSpaceOnUse"><feOffset dx="3" dy="3"/><feGaussianBlur result="blur-38" stdDeviation="3"/><feFlood flood-opacity=".063"/><feComposite in2="blur-38" operator="in"/><feComposite in="SourceGraphic"/></filter><linearGradient id="prefix__linear-gradient" x1=".5" x2=".5" y2="1" gradientUnits="objectBoundingBox"><stop offset="0" stop-color="#6400ff"/><stop offset="1" stop-color="#320080"/></linearGradient><clipPath id="prefix__clip-path"/><style>.prefix__cls-3{fill:url(#prefix__linear-gradient)}</style></defs><g id="prefix__Mask_Group_25" data-name="Mask Group 25" transform="translate(-1234 -168)"><g id="prefix__Group_3736" data-name="Group 3736"><g transform="translate(1233.998 168.003)"><path id="prefix__Path_5057-2" d="M958.053 1640.895l-1.511-1.727c-4.722-5.393-9.967-7.947-15.82-7.922-9.648.04-17.078 7.492-17.387 7.811l-1.807 1.835 1.838 1.867c.83.833 8.383 8.1 18.065 7.773 5.6-.185 10.682-2.846 15.112-7.912zm-16.8 4.4c-5.025.167-9.487-2.5-12.011-4.4 2.434-1.833 6.684-4.382 11.5-4.405a14.635 14.635 0 0110.191 4.407 14.772 14.772 0 01-9.677 4.395z" class="prefix__cls-3" data-name="Path 5057" transform="translate(-781.65 -1263.23)"/></g><g transform="translate(1233.998 168.003)"><path id="prefix__Path_5058-2" d="M920.287 1714.558l-14-15.724a176.774 176.774 0 00-7.048-7.478c-40.857-40.857-72.164-27.238-77.724-21.677l-.7.7-1.735 26.036 4.818-4.4c26.568-24.259 78.436 10.385 78.959 10.738zm-70.073-45.8a53.882 53.882 0 0110.688 2.676l-.255 7.843a69.14 69.14 0 00-10.536-1.169zm15.867 4.787a77.5 77.5 0 018.1 4.327l.585 5.175c-2.883-1-5.864-1.9-8.908-2.653zm-21.106-5.2l-.109 9.843a46.375 46.375 0 00-5.927.8l-2.894-9.868a40.422 40.422 0 018.93-.776zm-19.076 4.583a27.438 27.438 0 015.092-2.4l2.871 9.777a37.116 37.116 0 00-8.73 4.133zm54.378 12.19l-.39-3.469a115.758 115.758 0 019.18 7.329 140.578 140.578 0 00-8.79-3.86z" class="prefix__cls-3" data-name="Path 5058" transform="translate(-812.36 -1253.72)"/></g><g transform="translate(1233.998 168.003)"><path id="prefix__Path_5059-2" d="M888.509 1665.362c10.934-1.5 17.044-7.051 17.971-8.344l.179-.253-1.786-17.988-1.263 1.611c-19.468 24.8-68.536 2.666-69.029 2.441l-6.02-2.764 5.16 4.153c25.135 20.233 43.668 22.667 54.788 21.144zm-.225-1.63c-.387.053-.8.089-1.209.131l-1.7-10.955a38.541 38.541 0 007.12-2.151l5.044 10.419a34.977 34.977 0 01-9.256 2.556zm15.348-20.807l1.324 13.359a21.1 21.1 0 01-5.941 4.168l-5.025-10.376a30.256 30.256 0 009.642-7.151zm-33.267 10.856l1.194 8.91a67.124 67.124 0 01-10.181-3.344l-2-7.011a87.379 87.379 0 0010.987 1.446zm-12.8-1.813l1.862 6.535a106.646 106.646 0 01-19.859-11.85 125.337 125.337 0 0017.996 5.315zm15.7 11.086l-1.229-9.186a57.557 57.557 0 0011.715-.646l1.676 10.778a46.491 46.491 0 01-12.16-.946z" class="prefix__cls-3" data-name="Path 5059" transform="translate(-809.51 -1260.97)"/></g><g transform="translate(1233.998 168.003)"><path id="prefix__Path_5060-2" d="M905.689 1590.032l14.036-15.756-17.464 11.84c-.523.351-52.366 35.02-78.959 10.738l-4.819-4.4 1.738 26.034.7.7c1.523 1.523 10.017 7.122 23.78 6.724 13.59-.394 35.206-6.935 60.988-35.88zm-26.394 17.168l.387-3.45c3.11-1.246 6.067-2.55 8.765-3.851a115.209 115.209 0 01-9.152 7.301zm-29.779 3.558a69.863 69.863 0 0010.538-1.17l.254 7.9a53.719 53.719 0 01-10.689 2.731zm15.749-2.287a103.933 103.933 0 008.907-2.65l-.58 5.168a78.53 78.53 0 01-8.107 4.361zm-20.994 2.209l.109 9.975a39.574 39.574 0 01-8.968-.778l2.938-10a47.039 47.039 0 005.921.801zm-19.732-6.25a37.3 37.3 0 008.732 4.139l-2.9 9.884a24.975 24.975 0 01-5.056-2.45z" class="prefix__cls-3" data-name="Path 5060" transform="translate(-812.53 -1280.31)"/></g><g transform="translate(1233.998 168.003)"><path id="prefix__Path_5061-2" d="M900.768 1640.256a27.906 27.906 0 012.247 2.534l1.266 1.61 1.784-17.985-.183-.253a6.279 6.279 0 00-.64-.727c-1.007-1.008-25.21-24.233-72.116 13.528l-5.157 4.148 6.018-2.759c.46-.213 46.078-20.8 66.781-.096zm-15.994-9.977l1.7-10.968a35 35 0 0110.446 2.726l-5.043 10.411a38.918 38.918 0 00-7.103-2.168zm19.588-3.38l-1.325 13.356a29.68 29.68 0 00-1.1-1.165 30.449 30.449 0 00-8.548-5.976l5.026-10.374a23.269 23.269 0 015.665 3.858c.109.113.203.213.281.302zm-33.393-6.444l-1.2 8.963a87.262 87.262 0 00-10.985 1.437l2.017-7.083a65.587 65.587 0 0110.168-3.316zm-12.129 4.183l-1.875 6.582a125.443 125.443 0 00-18 5.309 107.049 107.049 0 0119.875-11.89zm12.6 4.688l1.244-9.264a46.132 46.132 0 0112.153-.9l-1.68 10.821a57.5 57.5 0 00-11.719-.656z" class="prefix__cls-3" data-name="Path 5061" transform="translate(-809.69 -1267.37)"/></g><g transform="translate(1233.998 168.003)"><path id="prefix__Path_5062-2" d="M1117.647 1812.143c.027-5.857-2.526-11.107-7.926-15.823l-1.727-1.509-1.723 1.513c-5.065 4.429-7.726 9.514-7.915 15.11-.321 9.682 6.943 17.234 7.774 18.063l1.868 1.837 1.838-1.8c.319-.315 7.764-7.747 7.811-17.391zm-14.048-.536a14.755 14.755 0 014.4-9.677 14.619 14.619 0 014.407 10.158c-.01 4.794-2.57 9.072-4.411 11.524-1.901-2.527-4.563-6.986-4.395-12.005z" class="prefix__cls-3" data-name="Path 5062" transform="translate(-728.66 -1214.21)"/></g><g transform="translate(1233.998 168.003)"><path id="prefix__Path_5063-2" d="M1064.984 1868.545a180.159 180.159 0 00-7.484-7.05l-15.721-14 11.808 17.431c.351.522 34.994 52.391 10.739 78.959l-4.4 4.818 26.032-1.735.7-.7c5.56-5.558 19.18-36.868-21.674-77.723zm19.917 38.333a53.692 53.692 0 012.679 10.686l-9.351.1a68.866 68.866 0 00-1.169-10.539zm-8.956-4.958a103.838 103.838 0 00-2.654-8.907l5.173.582a77.333 77.333 0 014.326 8.1zm12.047 20.888a40.369 40.369 0 01-.771 8.926l-9.867-2.894a47.578 47.578 0 00.8-5.927zm-13.3-34.915l-3.469-.392a138.924 138.924 0 00-3.866-8.789 114.723 114.723 0 017.331 9.18zm-2.786 54.752a37.151 37.151 0 004.137-8.729l9.774 2.874a27.542 27.542 0 01-2.4 5.09z" class="prefix__cls-3" data-name="Path 5063" transform="translate(-745.61 -1198.42)"/></g><g transform="translate(1233.998 168.003)"><path id="prefix__Path_5064-2" d="M1110.27 1858.842l1.61-1.267-17.985-1.785-.254.182c-1.292.926-6.851 7.036-8.348 17.973-1.52 11.12.911 29.645 21.146 54.782l4.15 5.16-2.762-6.016c-.227-.496-22.356-49.571 2.443-69.029zm-11.95 44.225l-7.007-2a66.794 66.794 0 01-3.35-10.182l8.91 1.195a87.48 87.48 0 001.448 10.987zm-3.948-45.573l13.36 1.326a30.215 30.215 0 00-7.151 9.64l-10.376-5.024a21.129 21.129 0 014.168-5.942zm-4.889 7.422l10.414 5.042a38.59 38.59 0 00-2.149 7.119l-10.957-1.7c.043-.408.082-.823.132-1.212a34.792 34.792 0 012.561-9.249zm-2.825 12.1l10.78 1.675a57.149 57.149 0 00-.647 11.718l-9.19-1.232a46.617 46.617 0 01-.942-12.157zm5.5 26l6.537 1.865a125.1 125.1 0 005.311 17.995 106.673 106.673 0 01-11.851-19.854z" class="prefix__cls-3" data-name="Path 5064" transform="translate(-732.68 -1195.94)"/></g><g transform="translate(1233.998 168.003)"><path id="prefix__Path_5065-2" d="M1301.136 1911.489c-13.284-32.642-29.3-54.376-37.384-64.157a176.561 176.561 0 0058.758 11.291l2.577-.022.021-2.574a176.62 176.62 0 00-10.632-57c10.346 8.374 31.592 23.586 62.827 36.294 41.254 16.786 108.271 31.932 193.264 8.752l-1.382-5.058c-159.723 43.561-257.318-49.084-258.283-50.025l-.361.367a128.8 128.8 0 00-13.842-23.816 106.5 106.5 0 0047.542 10.966c.349 0 .695-.024 1.046-.027-.388 7.193 4.728 13.7 8.485 17.458a44.1 44.1 0 001.76 1.66 12.2 12.2 0 0017.468 16.336c5.789 3.109 25.993 13.262 40.671 11.986a12.178 12.178 0 0023.974 2.84c5.317 1.78 16.424 4.526 28.129 1.607a12.179 12.179 0 0023.534 1.7c6.673 1.953 23.842 5.425 41.494-3.185a12.105 12.105 0 001.371 1.681 12.291 12.291 0 10-3.376-6.533c-16.928 8.385-33.861 4.278-38.908 2.713a12.106 12.106 0 00-3.448-7.3 12.248 12.248 0 00-17.305 0 12.088 12.088 0 00-3.081 5.385c-12.137 3.613-24.256-.11-28.178-1.557a12.175 12.175 0 00-23.07-2.77c-12.2 2.1-31.355-7.043-38.221-10.61a12.2 12.2 0 00-17.421-16.1c-2.995-2.682-9.273-9.147-8.6-15.509a129.725 129.725 0 0038.051-8.44 77.76 77.76 0 0014.476 20.233c7.827 7.823 18.859 15.188 33.564 17.13 16.55 2.184 30.815-4.009 38.165-16.574a30.269 30.269 0 00-1.73-33.948c-6.93-9.246-18-12.792-29.616-9.5-12.333 3.5-21.66 13.8-22.683 25.049-1.125 12.383 6.638 20.414 14.836 22.881a18.576 18.576 0 0022.221-9.042c5.22-9.689 2.008-16.925-2.745-20.453-5.206-3.876-12.347-3.853-16.25.055l3.707 3.7c2.038-2.037 6.349-1.833 9.414.45 3.947 2.926 4.389 7.944 1.26 13.76-3.883 7.2-11.1 8.007-16.1 6.5-5.7-1.717-12.037-7.3-11.121-17.385.829-9.138 8.6-17.561 18.892-20.479 4.534-1.287 15.937-3.138 23.985 7.6a25.1 25.1 0 011.4 28.156c-6.246 10.683-18.566 15.922-32.948 14.025-26.536-3.5-40.392-27.333-43.826-34.117a184.639 184.639 0 0055.356-36.692l1.713-1.959-1.838-1.841a189.65 189.65 0 00-55.742-36.609c3.847-7.418 17.621-30.161 43.56-33.588 14.385-1.895 26.707 3.348 32.953 14.027a25.1 25.1 0 01-1.4 28.156c-8.037 10.722-19.452 8.884-23.984 7.6-10.293-2.92-18.06-11.344-18.894-20.478-.915-10.085 5.419-15.667 11.121-17.385 5-1.5 12.215-.7 16.1 6.506 3.133 5.815 2.674 10.831-1.261 13.76-3.064 2.278-7.371 2.482-9.408.446l-3.705 3.71c3.9 3.9 11.037 3.924 16.243.051 4.752-3.536 7.966-10.76 2.747-20.456a18.575 18.575 0 00-22.221-9.038c-8.193 2.467-15.959 10.5-14.832 22.881 1.022 11.251 10.346 21.549 22.682 25.049 11.608 3.3 22.68-.255 29.615-9.5a30.26 30.26 0 001.728-33.947c-7.342-12.562-21.615-18.76-38.162-16.579-29.189 3.856-43.895 29.054-47.777 36.834a128.639 128.639 0 00-38.371-8.419c-.327-6.252 5.723-12.408 8.651-15.006a12.2 12.2 0 0017.427-16.089c6.862-3.569 26.009-12.717 38.219-10.614a12.205 12.205 0 0023.07-2.764c3.927-1.449 16.041-5.17 28.18-1.559a12.116 12.116 0 003.079 5.385 12.253 12.253 0 0017.307 0 12.1 12.1 0 003.448-7.314c5.035-1.57 21.922-5.7 38.911 2.72a12.657 12.657 0 102-4.852c-17.65-8.609-34.818-5.137-41.489-3.181a12.1 12.1 0 00-2.871-4.68 12.223 12.223 0 00-20.664 6.38c-11.709-2.916-22.815-.168-28.131 1.608a12.093 12.093 0 00-3.121-5.515 12.2 12.2 0 00-20.852 8.353c-14.68-1.273-34.887 8.877-40.674 11.987a12.2 12.2 0 00-17.469 16.336c-3.54 3.166-10.408 10.409-10.245 18.64a100.83 100.83 0 00-4.394.035 107.376 107.376 0 00-47.923 13.188 124.291 124.291 0 0016.751-26.464l1.182 1.209c.963-.942 98.423-93.62 258.283-50.023l1.379-5.059c-84.988-23.18-152.007-8.035-193.261 8.75-32.687 13.3-54.44 29.34-64.2 37.42a181.259 181.259 0 0012.778-61.727l-.021-2.574-2.575-.026a181.444 181.444 0 00-59.642 11.942c8.416-10.433 23.492-31.6 36.1-62.591 16.788-41.255 31.932-108.272 8.752-193.261l-5.054 1.38c43.557 159.725-49.087 257.316-50.029 258.287l.429.414a125.744 125.744 0 00-24.406 15.056 106.951 106.951 0 0011.914-45.467c.049-1.473.042-2.933.032-4.393 8.231.162 15.473-6.7 18.639-10.243a12.2 12.2 0 0016.339-17.471c3.108-5.786 13.26-25.994 11.985-40.672a12.179 12.179 0 002.838-23.973c1.776-5.317 4.525-16.423 1.609-28.131a12.221 12.221 0 006.378-20.662 12.018 12.018 0 00-4.679-2.872c1.957-6.672 5.426-23.839-3.182-41.49a12.125 12.125 0 001.684-1.372 12.3 12.3 0 10-6.536 3.375c8.385 16.926 4.278 33.862 2.714 38.91a12.091 12.091 0 00-7.3 3.45 12.248 12.248 0 000 17.3 12.11 12.11 0 005.388 3.08c3.607 12.137-.11 24.253-1.559 28.18a12.123 12.123 0 00-6.3 3.35 12.134 12.134 0 003.531 19.717c2.1 12.2-7.046 31.354-10.613 38.222a12.2 12.2 0 00-16.1 17.419c-2.611 2.913-8.8 8.95-15 8.65a128.477 128.477 0 00-8.422-38.36c7.777-3.884 32.982-18.587 36.835-47.781 2.186-16.548-4.01-30.814-16.575-38.164a30.26 30.26 0 00-33.95 1.731c-9.241 6.931-12.792 18-9.5 29.615 3.5 12.33 13.8 21.657 25.048 22.679 12.383 1.129 20.418-6.638 22.881-14.831a18.582 18.582 0 00-9.04-22.225c-9.692-5.216-16.918-2-20.451 2.747-3.877 5.209-3.853 12.344.05 16.25l3.709-3.71c-2.037-2.035-1.834-6.348.446-9.41 2.928-3.934 7.941-4.392 13.76-1.257 7.21 3.882 8.008 11.1 6.506 16.1-1.718 5.7-7.3 12.037-17.387 11.122-9.134-.832-17.559-8.6-20.479-18.893-1.284-4.531-3.119-15.946 7.6-23.987a25.1 25.1 0 0128.156-1.4c10.677 6.245 15.927 18.564 14.026 32.948-3.42 25.879-26.174 39.7-33.593 43.554a189.924 189.924 0 00-36.726-55.854l-1.838-1.807-1.837 1.807a184.609 184.609 0 00-36.688 55.359c-6.779-3.417-30.608-17.223-34.12-43.828-1.9-14.386 3.343-26.7 14.025-32.95a25.105 25.105 0 0128.156 1.4c10.721 8.04 8.886 19.454 7.6 23.99-2.919 10.291-11.342 18.058-20.48 18.892-10.084.915-15.67-5.418-17.386-11.124-1.5-5-.7-12.212 6.507-16.1 5.815-3.13 10.835-2.691 13.76 1.261 2.278 3.064 2.484 7.376.447 9.412l3.708 3.707c3.9-3.9 3.927-11.042.052-16.249-3.536-4.757-10.761-7.966-20.457-2.748a18.577 18.577 0 00-9.038 22.222c2.464 8.2 10.5 15.961 22.881 14.835 11.25-1.021 21.552-10.35 25.049-22.682 3.294-11.613-.252-22.678-9.5-29.615a30.261 30.261 0 00-33.947-1.73c-12.567 7.349-18.762 21.618-16.578 38.165 1.944 14.707 9.306 25.739 17.132 33.562a77.694 77.694 0 0020.239 14.479 129.526 129.526 0 00-8.439 38.054c-6.432.706-12.857-5.587-15.524-8.6a12.2 12.2 0 00-16.088-17.425c-3.57-6.864-12.716-26.012-10.615-38.221a12.122 12.122 0 003.534-2.416 12.228 12.228 0 00-6.306-20.656c-1.452-3.914-5.179-16-1.553-28.177a12.158 12.158 0 00-1.922-23.835c-1.574-5.032-5.7-21.921 2.717-38.907a12.737 12.737 0 10-4.85-2c-8.61 17.65-5.135 34.818-3.182 41.49a12.093 12.093 0 00-4.68 2.87 12.223 12.223 0 006.378 20.664c-2.918 11.707-.168 22.814 1.609 28.132a12.049 12.049 0 00-5.516 3.12 12.2 12.2 0 008.353 20.852c-1.272 14.681 8.877 34.882 11.987 40.672a12.2 12.2 0 0016.336 17.471 43.003 43.003 0 001.661 1.756c3.76 3.762 10.272 8.878 17.465 8.488-.005.348-.027.69-.031 1.037a106.458 106.458 0 0010.433 46.447 125.7 125.7 0 00-24.6-14.95c-12.441-14.141-88.661-108.6-48.345-256.432l-5.059-1.381c-23.179 84.99-8.034 152.008 8.752 193.262a255.46 255.46 0 0034.162 60.138 176.493 176.493 0 00-57.862-10.944l-2.575.02-.022 2.578a176.67 176.67 0 0011.621 59.6c-10.781-8.555-31.543-23.04-61.49-35.225-41.255-16.785-108.272-31.928-193.262-8.752l1.38 5.06c156.978-42.814 253.938 45.938 258.142 49.891a123.635 123.635 0 0015.188 23.993 106.639 106.639 0 00-48.4-11.371c-.351 0-.7.025-1.046.03.457-8.43-6.625-15.9-10.236-19.126a12.195 12.195 0 00-17.468-16.336c-5.79-3.11-25.993-13.259-40.675-11.986a12.177 12.177 0 00-23.97-2.839c-5.318-1.776-16.426-4.523-28.133-1.606a12.178 12.178 0 00-23.532-1.7c-6.671-1.953-23.842-5.424-41.491 3.184a12.029 12.029 0 00-1.372-1.682 12.294 12.294 0 103.377 6.533c16.927-8.387 33.861-4.277 38.907-2.714a12.1 12.1 0 003.449 7.3 12.249 12.249 0 0017.305 0 12.087 12.087 0 003.08-5.386c12.136-3.612 24.254.112 28.18 1.556a12.17 12.17 0 0023.068 2.766c12.2-2.1 31.354 7.047 38.221 10.616a12.2 12.2 0 0017.419 16.1c2.995 2.686 9.281 9.149 8.6 15.512a129.692 129.692 0 00-38.049 8.438c-3.446-7.077-18.149-33.42-48.045-37.366-16.547-2.184-30.815 4.009-38.162 16.575a30.267 30.267 0 001.729 33.951 28.823 28.823 0 002.651 3.062c6.93 6.927 16.739 9.337 26.963 6.435 12.334-3.5 21.661-13.8 22.682-25.047 1.128-12.384-6.636-20.418-14.832-22.884a18.58 18.58 0 00-22.224 9.039c-5.221 9.694-2.007 16.925 2.748 20.456 5.206 3.876 12.344 3.851 16.248-.052l-3.708-3.709c-2.037 2.038-6.346 1.835-9.411-.446-3.938-2.932-4.392-7.944-1.258-13.76 3.879-7.208 11.1-8.01 16.093-6.507 5.7 1.719 12.039 7.3 11.122 17.385-.832 9.139-8.6 17.561-18.891 20.482-4.534 1.285-15.934 3.121-23.987-7.6a25.093 25.093 0 01-1.4-28.155c6.247-10.684 18.564-15.927 32.95-14.025 26.536 3.5 40.389 27.341 43.825 34.12a184.636 184.636 0 00-55.36 36.689l-1.8 1.838 1.929 1.961a189.749 189.749 0 0055.74 36.611c-3.84 7.415-17.618 30.16-43.558 33.587-14.384 1.9-26.7-3.34-32.95-14.026a25.1 25.1 0 011.4-28.157c8.042-10.719 19.456-8.886 23.99-7.6 10.293 2.921 18.062 11.341 18.891 20.479.917 10.085-5.417 15.667-11.121 17.385-5 1.508-12.212.708-16.1-6.5-3.132-5.819-2.674-10.835 1.258-13.76 3.063-2.281 7.376-2.484 9.411-.448l3.708-3.708c-3.9-3.9-11.039-3.929-16.248-.049-4.751 3.53-7.964 10.76-2.746 20.453a18.589 18.589 0 0022.224 9.037c8.194-2.463 15.958-10.5 14.831-22.88-1.019-11.256-10.349-21.552-22.681-25.05-11.613-3.295-22.682.256-29.616 9.5a30.262 30.262 0 00-1.73 33.948 33.4 33.4 0 005.209 6.767c7.944 7.941 19.722 11.552 32.956 9.81 29.188-3.856 43.9-29.052 47.779-36.832a128.638 128.638 0 0038.367 8.416c.326 6.255-5.723 12.411-8.647 15.007a12.2 12.2 0 00-17.426 16.087c-6.864 3.57-26.013 12.719-38.224 10.615a12.1 12.1 0 00-2.413-3.533 12.229 12.229 0 00-20.654 6.3c-3.926 1.448-16.042 5.167-28.18 1.558a12.126 12.126 0 00-3.079-5.387 12.253 12.253 0 00-17.3 0 12.126 12.126 0 00-3.451 7.31c-5.034 1.573-21.923 5.7-38.908-2.718a12.729 12.729 0 10-2 4.851c17.65 8.609 34.819 5.137 41.489 3.184a12.1 12.1 0 002.873 4.677 12.22 12.22 0 0020.662-6.374c11.709 2.916 22.814.166 28.132-1.61a12.074 12.074 0 003.121 5.516 12.206 12.206 0 0020.853-8.356c14.68 1.277 34.884-8.876 40.673-11.986a12.2 12.2 0 0017.468-16.338c3.541-3.163 10.406-10.405 10.245-18.639 1.457.015 2.918.02 4.39-.03a106.944 106.944 0 0044.929-11.647 123.759 123.759 0 00-15.453 24.2c-7.771 7.153-103.828 91.525-257.766 49.541l-1.379 5.056c84.989 23.182 152.007 8.035 193.263-8.752 29.529-12.015 50.136-26.269 61.045-34.869a181.345 181.345 0 00-12.14 60.15l.022 2.577 2.575.022a181.238 181.238 0 0062.2-12.974c-8.4 10.409-23.515 31.595-36.151 62.647-16.787 41.258-31.932 108.279-8.752 193.267l5.058-1.377c-43.56-159.726 49.085-257.321 50.026-258.286l-.6-.586a122.2 122.2 0 0025.564-16.82 107.265 107.265 0 00-12.887 47.393c-.05 1.473-.047 2.936-.036 4.4-8.227-.167-15.473 6.7-18.638 10.243a12.2 12.2 0 00-16.339 17.469c-3.108 5.791-13.26 26-11.983 40.674a12.178 12.178 0 00-2.84 23.972c-1.778 5.32-4.525 16.424-1.609 28.132a12.179 12.179 0 00-1.7 23.534c-1.954 6.671-5.426 23.839 3.183 41.486a12.581 12.581 0 00-1.683 1.376 12.3 12.3 0 106.535-3.374c-8.387-16.931-4.28-33.864-2.715-38.91a12.1 12.1 0 007.31-3.448 12.251 12.251 0 000-17.3 12.092 12.092 0 00-5.387-3.081c-3.609-12.139.11-24.255 1.56-28.181a12.227 12.227 0 006.3-20.654 12.025 12.025 0 00-3.532-2.412c-2.1-12.2 7.047-31.355 10.613-38.224a12.2 12.2 0 0016.1-17.418c2.611-2.913 8.8-8.95 15-8.648a128.55 128.55 0 008.42 38.362c-7.781 3.879-32.979 18.586-36.834 47.779-1.746 13.236 1.866 25.009 9.809 32.955a33.488 33.488 0 006.767 5.209 30.267 30.267 0 0033.949-1.733c9.242-6.931 12.794-18 9.5-29.615-3.5-12.333-13.8-21.659-25.05-22.682-12.382-1.126-20.416 6.64-22.88 14.833a18.579 18.579 0 009.038 22.225c9.694 5.22 16.922 2 20.455-2.746 3.873-5.209 3.852-12.343-.053-16.25l-3.708 3.709c2.037 2.037 1.832 6.347-.444 9.41-2.928 3.936-7.946 4.391-13.764 1.261-7.206-3.882-8.008-11.1-6.5-16.1 1.716-5.706 7.3-12.041 17.384-11.122 9.137.827 17.559 8.6 20.48 18.893 1.285 4.531 3.122 15.944-7.6 23.984a25.084 25.084 0 01-28.154 1.4c-10.682-6.245-15.924-18.563-14.025-32.948 3.416-25.88 26.168-39.7 33.589-43.553a189.705 189.705 0 0036.606 55.732l1.961 1.929 1.837-1.8a184.629 184.629 0 0036.692-55.363c6.777 3.418 30.6 17.224 34.117 43.827 1.9 14.389-3.341 26.7-14.025 32.953a25.094 25.094 0 01-28.152-1.4c-10.715-8.042-8.888-19.457-7.6-23.988 2.921-10.293 11.34-18.062 20.481-18.893 10.083-.916 15.665 5.418 17.384 11.122 1.5 5 .7 12.212-6.5 16.095-5.817 3.134-10.827 2.682-13.761-1.257-2.282-3.063-2.486-7.378-.447-9.411l-3.709-3.711c-3.9 3.906-3.929 11.04-.051 16.25 3.528 4.749 10.761 7.966 20.454 2.748a18.584 18.584 0 009.041-22.225c-2.468-8.191-10.5-15.955-22.882-14.829-11.277 1.008-21.577 10.338-25.077 22.671-2.9 10.227-.5 20.035 6.435 26.965a28.564 28.564 0 003.065 2.65 30.263 30.263 0 0033.948 1.733c12.566-7.351 18.762-21.617 16.575-38.164-3.946-29.9-30.288-44.6-37.369-48.047a129.615 129.615 0 008.439-38.049c6.43-.706 12.855 5.588 15.522 8.595a12.2 12.2 0 0016.089 17.428c3.572 6.864 12.72 26.011 10.613 38.219a12.065 12.065 0 00-3.534 2.415 12.23 12.23 0 006.3 20.656c1.454 3.914 5.182 16 1.556 28.177a12.122 12.122 0 00-5.386 3.083 12.248 12.248 0 000 17.3 12.093 12.093 0 007.308 3.448c1.575 5.034 5.7 21.921-2.718 38.907a12.8 12.8 0 104.85 2.005c8.612-17.649 5.137-34.818 3.186-41.489a12.2 12.2 0 00-1.7-23.535c2.917-11.708.17-22.815-1.607-28.133a12.048 12.048 0 005.516-3.121 12.2 12.2 0 00-8.356-20.852c1.275-14.68-8.878-34.885-11.987-40.671a12.2 12.2 0 00-16.337-17.469c-3.231-3.609-10.695-10.693-19.125-10.236.005-.351.029-.7.031-1.046a106.8 106.8 0 00-11.858-49.412 127.4 127.4 0 0025.4 15.036l-1.055 1.028c.941.963 93.625 98.424 50.027 258.283l5.057 1.382c23.181-84.987 8.038-152.005-8.749-193.26zm244.634-96.52a6.992 6.992 0 11-9.888 0 7 7 0 019.889 0zm-63.036 6.18a6.992 6.992 0 11-9.887 0 7 7 0 019.887 0zm-51.914-2.472a6.992 6.992 0 11-9.888 0 7 7 0 019.888 0zm-59.946-21.629a6.991 6.991 0 11-9.89 0 7 7 0 019.89.001zM1545 1630.355a6.993 6.993 0 11-9.889 0 7 7 0 019.889 0zm-63.036-6.178a6.994 6.994 0 11-9.888 0 7 7 0 019.886-.001zm-51.913 2.47a6.994 6.994 0 11-9.889.006 7.007 7.007 0 019.888-.007zm-69.836 21.635a6.993 6.993 0 110 9.886 7 7 0 01-.002-9.887zm-81.588-264.522a6.991 6.991 0 119.884 0 7 7 0 01-9.885-.001zm6.178 53.149a6.991 6.991 0 110 9.888 7 7 0 01-.005-9.89zm-2.474 51.912a6.993 6.993 0 110 9.891 7.007 7.007 0 01-.001-9.892zm-21.63 59.949a6.991 6.991 0 110 9.886 7 7 0 01-.001-9.887zm-166.692-175.67a6.993 6.993 0 110 9.888 7 7 0 010-9.888zm-6.176 72.923a6.991 6.991 0 119.888 0 7 7 0 01-9.889-.002zm2.471 51.917a6.992 6.992 0 119.889 0 7 7 0 01-9.893-.003zm21.631 59.945a6.992 6.992 0 119.888 0 7 7 0 01-9.889-.003zm-273.022 80.2a6.992 6.992 0 119.889 0 7 7 0 01-9.89 0zm63.035-6.181a6.992 6.992 0 119.892 0 7 7 0 01-9.892-.004zm51.918 2.473a6.991 6.991 0 119.889 0 7 7 0 01-9.89-.001zm59.946 21.631a6.992 6.992 0 119.89 0 7 7 0 01-9.891 0zM839.686 1822.7a6.992 6.992 0 119.887 0 7 7 0 01-9.887 0zm63.038 6.179a6.992 6.992 0 119.887-.006 7 7 0 01-9.888.006zm51.914-2.475a6.992 6.992 0 119.889 0 7 7 0 01-9.89-.004zm69.834-21.63a6.992 6.992 0 110-9.89 7 7 0 01-.001 9.89zm81.588 264.523a6.991 6.991 0 11-9.887 0 7 7 0 019.886.003zm-6.176-53.151a6.992 6.992 0 110-9.888 7 7 0 01-.001 9.888zm2.47-51.915a6.992 6.992 0 110-9.888 7 7 0 01-.001 9.888zm21.629-59.945a6.991 6.991 0 110-9.888 7 7 0 01-.001 9.888zm166.695 175.671a6.994 6.994 0 11-.007-9.885 7.006 7.006 0 01.006 9.884zm6.177-72.925a6.992 6.992 0 11-9.888 0 7.007 7.007 0 019.887-.001zm-2.476-51.913a6.991 6.991 0 11-9.885 0 6.992 6.992 0 019.884-.001zm-21.629-59.948a6.992 6.992 0 11-9.888 0 7 7 0 019.887-.001zm-106.668 44.048a155 155 0 01-10.746-24.992c21.185-4.069 28.591-24.1 31.182-37.528a407.667 407.667 0 004.029 11.489c-.008.427-.008 1.115.006 1.949-.215 8.063-2.588 35.675-24.472 49.082zm-137.269-210.9a64 64 0 001.869.006 426.63 426.63 0 0011.488 4.028c-13.421 2.59-33.456 10-37.525 31.182a155.358 155.358 0 01-24.993-10.746c13.429-21.906 41.194-24.26 49.16-24.47zm189.787-214.482a155.279 155.279 0 0110.746 24.992c-21.185 4.067-28.589 24.1-31.182 37.525a414.94 414.94 0 00-4.03-11.49c.011-.445.015-1.13 0-2.034.23-8.175 2.666-35.635 24.466-48.993zm137.36 210.9a66.697 66.697 0 00-1.96-.006c-1.4-.519-5.559-2.036-11.488-4.029 13.422-2.589 33.457-10 37.524-31.18a154.343 154.343 0 0124.99 10.749c-13.373 21.819-40.981 24.236-49.062 24.463zm-15.238 46.452c-15.827-2.882-26.756-8.425-31.583-16.035a16.722 16.722 0 01-2.73-10.565c8.573-2.084 16.9-4.472 24.169-6.712 4.571.077 39.609 1.6 44.391 28.873a114.671 114.671 0 01-30.795 4.515c-1.152.006-2.3-.046-3.448-.078zm-120.022 41.82c-1.469-2.068-3-4.12-4.623-6.154v-.017l-.2-.246a153.52 153.52 0 00-4.285-5.1 102.623 102.623 0 01-15.3-37.106 39.067 39.067 0 0014.057-5.236c33.921 47.189 85.442 70.152 85.442 70.152s-23.224-52.087-70.946-86a38.767 38.767 0 003.934-13.9 104.981 104.981 0 0134.446 12.69c.641.6 1.284 1.19 1.927 1.773.275.251.554.489.826.733q2.644 2.368 5.327 4.555c.182.147.365.32.548.468l.8.646h.018c3.589 2.859 7.228 5.5 10.921 7.9 31.921 33.117 35.758 83.144 36.211 95.162-12.174-.452-63.34-4.33-96.465-37.464-.916-.927-1.76-1.902-2.638-2.856zm-27.519 66.934c-4.906-14.176-15.61-47.281-17.518-71.379.418-.512.848-1.019 1.276-1.526.8-.948 1.6-1.9 2.436-2.845.531-.6 1.09-1.192 1.632-1.784.9-.984 1.786-1.965 2.718-2.936.589-.612 1.214-1.217 1.817-1.829.922-.929 1.831-1.861 2.784-2.782a181.753 181.753 0 013.653-3.4c.406-.37.79-.746 1.2-1.116.251.226.482.457.731.677q2.148 1.947 4.2 3.915c.951.918 1.859 1.848 2.776 2.775.622.63 1.26 1.255 1.867 1.89a155.991 155.991 0 012.873 3.1c.5.546 1 1.09 1.483 1.637 1.12 1.67 2.3 3.3 3.522 4.9-2.053 24.03-12.589 56.653-17.451 70.704zm-64.656-154.253c-.367.41-.746.8-1.117 1.2a178.674 178.674 0 01-3.4 3.647c-.919.957-1.853 1.865-2.784 2.787-.61.6-1.214 1.225-1.828 1.815-.971.937-1.954 1.824-2.933 2.718-.6.543-1.187 1.1-1.785 1.634-.946.838-1.9 1.635-2.849 2.437-.508.427-1.016.857-1.521 1.276-24.093-1.909-57.2-12.614-71.38-17.52 14.178-4.9 47.284-15.6 71.38-17.513.226.185.453.369.678.556q1.643 1.362 3.271 2.8c.437.385.873.772 1.312 1.165q1.646 1.488 3.277 3.039c.463.441.926.882 1.384 1.333.842.822 1.679 1.663 2.514 2.511 1.9 1.932 3.8 3.917 5.672 6l.108.115zm-2.4-114.062l.408-.4a113.7 113.7 0 0132.484 22.29c.663.663 1.259 1.374 1.9 2.052q3.513 5.387 7.694 10.617v.023l.646.8c.164.2.352.4.519.6q1.714 2.1 3.533 4.174a104.706 104.706 0 0113.17 35.3 38.651 38.651 0 00-13.9 3.93c-33.915-47.722-86.009-70.947-86.009-70.947s22.969 51.522 70.154 85.445a39.121 39.121 0 00-5.237 14.063c-20.361-4.158-37.668-13.249-51.469-27.049-33.094-33.095-37-84.292-37.456-96.469 8.444.313 35.654 2.287 62.587 14.519.529.591.874.949.976 1.052zm65.377-38.515c4.906 14.176 15.613 47.278 17.52 71.376-.417.51-.849 1.018-1.276 1.523-.806.954-1.6 1.9-2.437 2.85-.529.6-1.088 1.19-1.632 1.785-.9.981-1.783 1.96-2.718 2.931-.59.615-1.214 1.222-1.817 1.83-.919.931-1.83 1.865-2.784 2.786a193.82 193.82 0 01-3.651 3.4c-.407.371-.791.749-1.2 1.117-.2-.183-.386-.368-.592-.551a183.986 183.986 0 01-4.378-4.085c-.791-.77-1.544-1.545-2.315-2.316-.8-.8-1.608-1.6-2.385-2.415-.819-.856-1.606-1.721-2.4-2.587-.61-.668-1.223-1.336-1.815-2.006a100.368 100.368 0 00-3.521-5.37c2.138-23.996 12.574-56.305 17.399-70.268zm-36.93 152.384l1.518.27.252-2.855a33.675 33.675 0 0133.248-30.726l3.046-.031-.012-.1.333.032a33.669 33.669 0 0130.724 33.245l.005.573v.374a33.7 33.7 0 01-30.728 33.245l-1.236.109-2.319-.021a33.693 33.693 0 01-33.248-30.729l-.256-2.856-1.331.241c-.003-.258 0-.514.004-.768zm111.8 12.3c-1.178-1.105-2.366-2.2-3.52-3.356a184.031 184.031 0 01-6.7-7.075c.369-.409.752-.794 1.119-1.2a187.698 187.698 0 013.4-3.652c.922-.955 1.854-1.863 2.787-2.784.606-.6 1.212-1.226 1.828-1.815.97-.934 1.951-1.822 2.931-2.718.6-.543 1.189-1.1 1.786-1.631.943-.84 1.9-1.638 2.849-2.44.505-.426 1.014-.858 1.521-1.277 24.093 1.908 57.2 12.614 71.38 17.52-13.781 4.767-45.421 14.987-69.312 17.31a101.1 101.1 0 00-10.066-6.885zm76.151-3.77c5.925-1.99 10.073-3.5 11.477-4.025.434.009 1.089.011 1.952 0 8.07.229 35.679 2.633 49.069 24.44a155.669 155.669 0 01-24.985 10.758c-4.071-21.178-24.089-28.584-37.51-31.176zm-11.96-17.175c-7.261-2.237-15.585-4.622-24.153-6.71a16.73 16.73 0 012.73-10.567c4.837-7.623 15.781-13.17 31.641-16.046a113.97 113.97 0 0134.19 4.462c-4.794 27.283-39.884 28.785-44.405 28.858zm-25.949-19.928a22.345 22.345 0 00-3.5 11.982c-7.033-1.584-14.1-2.9-20.762-3.716a114.033 114.033 0 0132.758-16.947 30.16 30.16 0 00-8.493 8.679zm-47.489 21.748c-.408.424-.827.825-1.237 1.254-.021.027-.048.05-.072.076q-2.589 2.731-5.137 5.638l-1.511 1.728 1.511 1.723c.492.562.995 1.1 1.489 1.651a113.334 113.334 0 00-15.28-4.936 109.632 109.632 0 0020.24-7.137zm-71.806-54.509c.669.621 1.366 1.232 2.048 1.849.8.729 1.589 1.462 2.406 2.177l1.724 1.511 1.73-1.511c1.708-1.5 3.357-3.007 4.973-4.524a112.077 112.077 0 00-6.794 21.333 115.437 115.437 0 00-6.084-20.838zm24.643-46.407a22.338 22.338 0 0011.98-3.5 30.214 30.214 0 008.679-8.5 113.775 113.775 0 01-16.944 32.759c-.806-6.656-2.128-13.728-3.712-20.762zm25.375-39.666c-2.873 15.86-8.421 26.8-16.045 31.64a16.73 16.73 0 01-10.567 2.728c-2.086-8.567-4.472-16.894-6.711-24.151.077-4.522 1.579-39.615 28.863-44.41a113.711 113.711 0 014.464 34.19zm-46.474-13.223a428.093 428.093 0 00-4.023 11.48c-2.593-13.419-10-33.441-31.165-37.513a155.431 155.431 0 0110.755-24.985c21.8 13.381 24.213 40.987 24.437 49.063-.012.865-.008 1.52-.001 1.952zm-7.873 23.422c-2.239 7.264-4.623 15.587-6.708 24.158a16.882 16.882 0 01-10.442-2.637c-7.676-4.795-13.249-15.716-16.148-31.594-.035-1.177-.091-2.349-.087-3.534a114.783 114.783 0 014.513-30.786c27.277 4.78 28.798 39.821 28.875 44.39zm-24.8 22.069a27.611 27.611 0 004.875 3.9 22.344 22.344 0 0011.978 3.5c-1.484 6.613-2.734 13.25-3.556 19.552q-2.207-2.689-4.6-5.238a110.4 110.4 0 01-12.524-26.387 34.282 34.282 0 003.827 4.67zm-72.623 96.874a22.347 22.347 0 00-3.5-11.975 30.145 30.145 0 00-8.5-8.685 114 114 0 0132.735 16.95c-6.645.81-13.708 2.126-20.735 3.707zm-39.584-25.356c15.814 2.881 26.735 8.42 31.56 16.031a16.719 16.719 0 012.726 10.564c-8.571 2.085-16.9 4.47-24.163 6.713-4.571-.08-39.616-1.6-44.4-28.874a114.809 114.809 0 0130.786-4.511c1.17-.008 2.33.04 3.491.074zm-30.011 23.7c8.1 8.107 19.522 11.78 28.191 13.453a406.378 406.378 0 00-11.484 4.027c-.436-.009-1.1-.014-1.973 0-8.1-.226-35.665-2.647-49.045-24.438a155.513 155.513 0 0124.988-10.759 33.421 33.421 0 009.323 17.714zm40.145 30.63c7.259 2.24 15.586 4.625 24.152 6.708a16.734 16.734 0 01-2.726 10.569c-4.839 7.623-15.783 13.17-31.641 16.045a113.838 113.838 0 01-34.19-4.46c4.794-27.286 39.888-28.789 44.405-28.868zm25.953 19.928a22.366 22.366 0 003.5-11.979c7.034 1.582 14.1 2.9 20.763 3.713a113.9 113.9 0 01-32.759 16.946 30.179 30.179 0 008.496-8.683zm47.8-22.061c.307-.319.62-.619.927-.942.023-.026.048-.048.071-.071q2.589-2.739 5.137-5.642l1.512-1.729-1.512-1.727c-.7-.8-1.427-1.56-2.135-2.345-1.127-1.244-2.249-2.5-3.386-3.691a114.977 114.977 0 0024.249 7.23c-.009.483-.011.97 0 1.454a113.63 113.63 0 00-24.867 7.461zm70.259 53.731q-.348-.322-.7-.641c-.843-.763-1.653-1.54-2.517-2.294l-1.728-1.51-1.726 1.51q-2.911 2.546-5.641 5.141c-.025.02-.047.046-.073.071-1.02.967-1.991 1.949-2.976 2.927a112.06 112.06 0 008.561-26.789 113.6 113.6 0 006.795 21.581zm-23.407 47.5a22.316 22.316 0 00-11.979 3.5 30.114 30.114 0 00-8.677 8.494 113.884 113.884 0 0116.934-32.761c.815 6.663 2.134 13.728 3.717 20.763zm-25.374 39.663c2.875-15.86 8.421-26.8 16.048-31.64a16.693 16.693 0 0110.564-2.725c2.087 8.567 4.474 16.89 6.713 24.148-.077 4.521-1.579 39.615-28.864 44.407a113.827 113.827 0 01-4.466-34.19zm46.475 13.223c.519-1.4 2.031-5.559 4.026-11.485 1.673 8.67 5.344 20.085 13.451 28.193a33.46 33.46 0 0017.713 9.323 155.4 155.4 0 01-10.756 24.988c-21.8-13.379-24.212-40.968-24.439-49.056.013-.873.007-1.531 0-1.963zm7.871-23.426c2.238-7.259 4.624-15.585 6.71-24.152a16.892 16.892 0 0110.443 2.634c7.675 4.785 13.249 15.715 16.145 31.6.036 1.176.094 2.348.088 3.533a114.747 114.747 0 01-4.512 30.782c-27.282-4.785-28.798-39.825-28.879-44.397zm19.928-25.964a22.32 22.32 0 00-11.977-3.5c1.551-6.9 2.849-13.825 3.664-20.371.554.627 1.1 1.252 1.669 1.87a112.435 112.435 0 0115.324 30.489 30.115 30.115 0 00-8.685-8.488zm62.438-85.656a104.917 104.917 0 00-4.056-3.82c6.172-.818 12.659-2.049 19.116-3.5a22.343 22.343 0 003.5 11.979 27.316 27.316 0 003.9 4.875 34.261 34.261 0 004.689 3.841 110.81 110.81 0 01-26.265-12.445c-.303-.307-.584-.626-.889-.93zm123.555-1.254c-8.845-14.615-23-21.4-34.9-24.525 11.908-3.129 26.073-9.92 34.915-24.555a188.819 188.819 0 0133.6 24.553 190.2 190.2 0 01-33.62 24.528zm-89.806-153.6c-.655 16.878-8.058 108.487-91.023 123.921a38.673 38.673 0 00-3.934-13.906c47.722-33.919 70.95-86 70.95-86s-51.524 22.965-85.447 70.154a39.081 39.081 0 00-14.053-5.233c16.53-80.926 106.765-88.272 123.498-88.932zm-103.742-89.047c-14.638 8.844-21.43 23.005-24.56 34.911-3.123-11.9-9.907-26.055-24.524-34.9a189.689 189.689 0 0124.531-33.614 188.489 188.489 0 0124.548 33.608zm-240.977 191.91a49.761 49.761 0 007.372 9.466c8.3 8.3 18.549 12.713 27.518 15.069-11.907 3.127-26.072 9.919-34.92 24.561a188.609 188.609 0 01-33.6-24.552 189.571 189.571 0 0133.63-24.544zm87.273 154.581c.65-16.74 7.927-106.975 88.931-123.514a39.156 39.156 0 005.238 14.057c-47.185 33.917-70.153 85.444-70.153 85.444s52.092-23.224 86-70.948a38.749 38.749 0 0013.9 3.935c-15.416 82.892-107.037 90.358-123.915 91.026zm106.259 88.074c14.639-8.847 21.431-23.011 24.557-34.917 2.355 8.969 6.772 19.216 15.072 27.518a49.8 49.8 0 009.462 7.374 189.788 189.788 0 01-24.539 33.627 188.478 188.478 0 01-24.551-33.602z" class="prefix__cls-3" data-name="Path 5065" transform="translate(-813.84 -1348.03)"/></g><g transform="translate(1233.998 168.003)"><path id="prefix__Path_5066-2" d="M1170.238 1865.518l11.8-17.43-15.721 14c-28.946 25.781-35.488 47.4-35.88 60.995-.4 13.762 5.2 22.258 6.723 23.777l.7.694 26.036 1.738-4.4-4.818c-24.254-26.563 10.388-78.436 10.742-78.956zm-23.766 63.913l-10 2.934a39.613 39.613 0 01-.777-8.968l9.976.111a47.866 47.866 0 00.802 5.924zm.292-21.7a69.39 69.39 0 00-1.167 10.534l-9.463-.1a54.17 54.17 0 012.729-10.688zm-5.76-5.434a77.825 77.825 0 014.364-8.1l5.167-.583c-1 2.878-1.9 5.866-2.654 8.906zm11.6-14.2l-3.45.388a116.479 116.479 0 017.3-9.155 145.87 145.87 0 00-3.854 8.77zm-12.254 54.375a24.938 24.938 0 01-2.446-5.055l9.884-2.9a37.262 37.262 0 004.137 8.728z" class="prefix__cls-3" data-name="Path 5066" transform="translate(-719.05 -1198.25)"/></g><g transform="translate(1233.998 168.003)"><path id="prefix__Path_5067-2" d="M1125.223 1857.207a6.459 6.459 0 00-.732-.642l-.25-.182-17.986 1.788 1.613 1.262a28.738 28.738 0 012.532 2.245c20.706 20.7.119 66.326-.093 66.784l-2.761 6.016 4.148-5.155c37.759-46.908 14.534-71.11 13.529-72.116zm1.662 44.442l-7.081 2.021a87.873 87.873 0 001.434-10.985l8.964-1.2a65.533 65.533 0 01-3.318 10.164zm4.46-25.676l-10.969 1.7a38.7 38.7 0 00-2.17-7.105l10.411-5.041a35.013 35.013 0 012.728 10.446zm-20.942-16.56l13.358-1.323c.087.08.184.172.3.283a23.179 23.179 0 013.858 5.665l-10.377 5.026a30.368 30.368 0 00-5.973-8.545 29.084 29.084 0 00-1.169-1.106zm10.27 19.883l10.82-1.679a46.1 46.1 0 01-.9 12.15l-9.26 1.244a57.522 57.522 0 00-.661-11.711zm-1.238 26.188l6.584-1.874a107.044 107.044 0 01-11.891 19.88 125.255 125.255 0 005.307-18.007z" class="prefix__cls-3" data-name="Path 5067" transform="translate(-726.29 -1195.76)"/></g><g transform="translate(1233.998 168.003)"><path id="prefix__Path_5068-2" d="M1097.059 1474.905c-.023 5.283 2.142 10.137 6.436 14.431q.7.7 1.491 1.389l1.726 1.511 1.727-1.511c5.061-4.427 7.726-9.511 7.91-15.11.324-9.675-6.935-17.226-7.8-18.094l-1.839-1.807-1.838 1.807c-.318.309-7.767 7.738-7.813 17.384zm14.049.537a14.735 14.735 0 01-4.4 9.677 14.64 14.64 0 01-4.4-10.159c.011-4.8 2.573-9.073 4.408-11.527 1.898 2.527 4.558 6.988 4.392 12.009z" class="prefix__cls-3" data-name="Path 5068" transform="translate(-729.05 -1315.84)"/></g><g transform="translate(1233.998 168.003)"><path id="prefix__Path_5069-2" d="M1157.168 1433.419a178.705 178.705 0 007.478 7.049l15.721 14-11.806-17.43c-.354-.522-35-52.392-10.739-78.959l4.4-4.819-26.033 1.74-.7.7c-5.557 5.556-19.175 36.862 21.679 77.719zm-19.916-38.333a53.481 53.481 0 01-2.68-10.687l9.352-.1a69.167 69.167 0 001.17 10.539zm8.959 4.961a104.79 104.79 0 002.65 8.905l-5.172-.581a77.247 77.247 0 01-4.329-8.1zm-12.05-20.886a40.345 40.345 0 01.771-8.932l9.868 2.9a46.536 46.536 0 00-.8 5.923zm13.3 34.911l3.471.391a140.034 140.034 0 003.86 8.786 115.192 115.192 0 01-7.33-9.177zm2.791-54.755a37.145 37.145 0 00-4.14 8.73l-9.774-2.871a27.7 27.7 0 012.4-5.091z" class="prefix__cls-3" data-name="Path 5069" transform="translate(-719.54 -1346.54)"/></g><g transform="translate(1233.998 168.003)"><path id="prefix__Path_5070-2" d="M1106.2 1437.792l-1.609 1.265 17.986 1.786.251-.181c1.3-.926 6.851-7.036 8.349-17.971 1.525-11.119-.911-29.651-21.144-54.786l-4.153-5.158 2.762 6.016c.227.496 22.358 49.562-2.442 69.029zm11.952-44.226l7 2a66.59 66.59 0 013.351 10.183l-8.908-1.2a88.455 88.455 0 00-1.442-10.983zm3.947 45.577l-13.362-1.327a30.17 30.17 0 007.154-9.641l10.375 5.023a21.255 21.255 0 01-4.166 5.944zm4.888-7.424l-10.415-5.043a38.557 38.557 0 002.153-7.118l10.954 1.7c-.043.4-.081.819-.13 1.207a34.927 34.927 0 01-2.561 9.253zm2.825-12.107l-10.777-1.676a57.031 57.031 0 00.641-11.715l9.191 1.231a46.63 46.63 0 01.946 12.159zm-5.5-26l-6.535-1.857a125.219 125.219 0 00-5.316-18 106.586 106.586 0 0111.857 19.853z" class="prefix__cls-3" data-name="Path 5070" transform="translate(-726.79 -1343.7)"/></g><g transform="translate(1233.998 168.003)"><path id="prefix__Path_5071-2" d="M1051.923 1436.448l-11.806 17.43 15.721-14c28.943-25.78 35.488-47.4 35.88-60.993.4-13.764-5.2-22.256-6.724-23.78l-.7-.7-26.035-1.737 4.4 4.82c24.259 26.565-10.383 78.437-10.736 78.96zm23.762-63.914l10-2.939a39.432 39.432 0 01.777 8.969l-9.974-.107a46.963 46.963 0 00-.803-5.923zm-.29 21.7a69.585 69.585 0 001.168-10.536l9.462.1a53.927 53.927 0 01-2.731 10.688zm5.759 5.434a78.938 78.938 0 01-4.361 8.1l-5.168.582c1-2.879 1.895-5.863 2.652-8.906zm-11.6 14.2l3.449-.388a116.491 116.491 0 01-7.3 9.152 140.921 140.921 0 003.854-8.764zm12.254-54.374a24.97 24.97 0 012.448 5.053l-9.885 2.9a37.237 37.237 0 00-4.137-8.73z" class="prefix__cls-3" data-name="Path 5071" transform="translate(-746.11 -1346.72)"/></g><g transform="translate(1233.998 168.003)"><path id="prefix__Path_5072-2" d="M1091.252 1439.427a6.471 6.471 0 00.725.643l.254.177 17.985-1.782-1.611-1.264a29.589 29.589 0 01-2.535-2.245c-20.7-20.7-.115-66.326.1-66.785l2.761-6.017-4.151 5.157c-37.763 46.907-14.535 71.107-13.528 72.116zm-1.664-44.443l7.081-2.019a87.1 87.1 0 00-1.434 10.986l-8.965 1.2a65.366 65.366 0 013.318-10.166zm-4.461 25.677l10.969-1.7a38.586 38.586 0 002.17 7.106l-10.411 5.042a34.9 34.9 0 01-2.729-10.447zm20.944 16.559l-13.357 1.325a9.212 9.212 0 01-.3-.283 23.288 23.288 0 01-3.859-5.666l10.374-5.023a30.513 30.513 0 005.974 8.547c.378.38.768.742 1.167 1.102zm-10.27-19.884l-10.821 1.682a46.054 46.054 0 01.9-12.154l9.265-1.244a57.114 57.114 0 00.655 11.718zm1.233-26.187l-6.58 1.873a107.192 107.192 0 0111.89-19.88 125.458 125.458 0 00-5.31 18.008z" class="prefix__cls-3" data-name="Path 5072" transform="translate(-733.18 -1343.88)"/></g><g transform="translate(1233.998 168.003)"><path id="prefix__Path_5073-2" d="M1260.625 1642.179l1.511 1.726q.691.8 1.393 1.5c4.293 4.291 9.148 6.453 14.431 6.432 9.645-.044 17.075-7.495 17.385-7.81l1.807-1.869-1.837-1.84c-.831-.829-8.383-8.093-18.067-7.77-5.6.189-10.681 2.848-15.109 7.913zm16.8-4.394c5.021-.169 9.481 2.49 12 4.393-2.452 1.841-6.728 4.4-11.519 4.412a14.639 14.639 0 01-10.161-4.407 14.735 14.735 0 019.677-4.398z" class="prefix__cls-3" data-name="Path 5073" transform="translate(-680.03 -1262.85)"/></g><g transform="translate(1233.998 168.003)"><path id="prefix__Path_5074-2" d="M1313.308 1575.962l14 15.724a176.822 176.822 0 007.049 7.48c40.856 40.857 72.161 27.238 77.724 21.676l.7-.7 1.731-26.032-4.817 4.4c-26.57 24.256-78.437-10.389-78.956-10.738zm70.076 45.8a53.8 53.8 0 01-10.691-2.677l.256-7.843a68.93 68.93 0 0010.537 1.172zm-15.872-4.786a77.685 77.685 0 01-8.1-4.328l-.582-5.175c2.879 1 5.865 1.9 8.907 2.655zm21.11 5.2l.107-9.841a47.106 47.106 0 005.926-.8l2.9 9.868a40.343 40.343 0 01-8.933.774zm19.074-4.581a27.7 27.7 0 01-5.09 2.4l-2.874-9.775a37.156 37.156 0 008.733-4.138zm-54.381-12.193l.4 3.468a114.863 114.863 0 01-9.185-7.333 136.24 136.24 0 008.785 3.863z" class="prefix__cls-3" data-name="Path 5074" transform="translate(-664.24 -1279.8)"/></g><g transform="translate(1233.998 168.003)"><path id="prefix__Path_5075-2" d="M1339.761 1619.479c-10.938 1.5-17.049 7.055-17.975 8.349l-.179.252 1.785 17.988 1.264-1.617c19.468-24.8 68.536-2.663 69.03-2.44l6.019 2.763-5.159-4.151c-25.139-20.233-43.669-22.666-54.785-21.144zm.222 1.631c.39-.053.8-.09 1.208-.133l1.7 10.956a38.67 38.67 0 00-7.118 2.15l-5.042-10.416a34.627 34.627 0 019.252-2.557zm-15.345 20.807l-1.332-13.359a21.169 21.169 0 015.945-4.165l5.024 10.374a30.194 30.194 0 00-9.637 7.15zm33.262-10.859l-1.194-8.91a67.546 67.546 0 0110.182 3.347l1.994 7.011a87.4 87.4 0 00-10.982-1.448zm12.8 1.816l-1.86-6.532a106.534 106.534 0 0119.861 11.847 125.629 125.629 0 00-18.001-5.315zm-15.7-11.085l1.229 9.189a57.05 57.05 0 00-11.713.646l-1.676-10.781a46.461 46.461 0 0112.16.946z" class="prefix__cls-3" data-name="Path 5075" transform="translate(-661.75 -1266.87)"/></g><g transform="translate(1233.998 168.003)"><path id="prefix__Path_5076-2" d="M1327.913 1700.506l-14.032 15.758 17.461-11.842c.521-.356 52.364-35.019 78.955-10.739l4.821 4.4-1.739-26.036-.7-.694c-1.521-1.519-10.013-7.121-23.772-6.723-13.595.388-35.213 6.931-60.994 35.876zm26.391-17.166l-.387 3.448a147.027 147.027 0 00-8.765 3.851 115.95 115.95 0 019.148-7.298zm29.78-3.56a69.335 69.335 0 00-10.538 1.168l-.254-7.9a53.858 53.858 0 0110.688-2.728zm-15.747 2.287a104.04 104.04 0 00-8.907 2.65l.579-5.166a78.714 78.714 0 018.106-4.362zm20.993-2.21l-.108-9.973a39.563 39.563 0 018.969.776l-2.94 10a47.413 47.413 0 00-5.92-.802zm19.732 6.249a37.262 37.262 0 00-8.729-4.135l2.907-9.889a25.058 25.058 0 015.053 2.45z" class="prefix__cls-3" data-name="Path 5076" transform="translate(-664.07 -1253.23)"/></g><g transform="translate(1233.998 168.003)"><path id="prefix__Path_5077-2" d="M1327.5 1644.584a28.2 28.2 0 01-2.239-2.53l-1.27-1.613-1.785 17.984.184.255a5.918 5.918 0 00.641.728c1.014 1.012 25.21 24.234 72.116-13.524l5.159-4.155-6.021 2.766c-.464.205-46.072 20.798-66.785.089zm15.994 9.974l-1.7 10.973a35.063 35.063 0 01-10.448-2.73l5.04-10.411a38.8 38.8 0 007.105 2.169zm-19.585 3.385l1.324-13.357q.538.6 1.1 1.159a30.472 30.472 0 008.545 5.974l-5.026 10.375a23.341 23.341 0 01-5.663-3.857 4.318 4.318 0 01-.283-.293zm33.394 6.44l1.2-8.963a88.313 88.313 0 0010.985-1.437l-2.019 7.084a65.041 65.041 0 01-10.169 3.317zm12.126-4.18l1.875-6.584a125.165 125.165 0 0018-5.309 106.954 106.954 0 01-19.878 11.89zm-12.6-4.69l-1.239 9.265a46.179 46.179 0 01-12.156.9l1.682-10.824a56.963 56.963 0 0011.709.66z" class="prefix__cls-3" data-name="Path 5077" transform="translate(-661.57 -1260.48)"/></g><g transform="translate(1233.998 168.003)"><path id="prefix__Path_5078-2" d="M1254.39 1793.046c-10.016-17.783-24.726-29.512-41.118-23.222-19.79 7.593-15.641 35.13-4.045 47.879s27.646 23 43.129 10.289c.001.001 14.97-11.981 2.034-34.946zm-34.584.358c-3.82-13.26-11.425-18.7-11.425-18.7 10.75 1.933 14.971 8.149 21.66 27.061s20.826 24.394 20.826 24.394c-21.951 1.631-27.242-19.496-31.061-32.759z" class="prefix__cls-3" data-name="Path 5078" transform="translate(-698.35 -1222.22)"/></g><g transform="translate(1233.998 168.003)"><path id="prefix__Path_5079-2" d="M1319.054 1813.834c20.628.339 42.748-5.255 44.339-29.2 0 0 1.825-22.881-28.823-30.431-23.739-5.847-46.031-2.628-53.987 16.832-9.604 23.502 17.835 42.465 38.471 42.799zm-38.216-34.519c10.5-7.8 19.387-6.383 41.373 3.291s38.367 1.837 38.367 1.837c-16.578 20.482-39.352 7.771-54.061.237s-25.679-5.364-25.679-5.364z" class="prefix__cls-3" data-name="Path 5079" transform="translate(-674.64 -1227.17)"/></g><g transform="translate(1233.998 168.003)"><path id="prefix__Path_5080-2" d="M1281.37 1896.743c7.617-13.3 7-29.891-1.522-40.345-9.325-11.467-22.58-11.832-31.585-7.126-8.144 4.263-14.81 13.966-11.332 26.046 3.593 12.488 12.236 15.947 19.123 15.015 7.539-1.02 13.5-6.855 13.57-13.281l-5.244-.056c-.045 3.756-4.176 7.484-9.027 8.141-2.937.4-10.114.092-13.382-11.271-2.838-9.868 2.927-16.911 8.724-19.946 7.11-3.719 17.61-3.387 25.089 5.788 7.173 8.812 7.6 22.966 1.036 34.427-6.127 10.7-16.268 15.815-27.827 14.03-12.6-1.945-22.394-11.008-25.559-23.658-3.693-14.793 2.621-30.009 16.9-40.7 30.475-22.818 69.411-6.969 70.027-6.726.771.242 19.05 5.855 30.842-3.055 6.508-4.919 9.637-13.136 9.314-24.424l-5.244.148c.279 9.489-2.156 16.242-7.221 20.081-9.605 7.276-25.911 2.315-25.891 2.33-1.7-.712-42.06-17.194-74.968 7.454-16.025 12-23.067 29.259-18.843 46.167a37.378 37.378 0 009.767 17.481 35.957 35.957 0 0020.083 10.094c13.6 2.092 26.01-4.116 33.17-16.614z" class="prefix__cls-3" data-name="Path 5080" transform="translate(-693.06 -1209.78)"/></g><g transform="translate(1233.998 168.003)"><path id="prefix__Path_5081-2" d="M1284.869 1806.452c-5.295.157-9.02-1.141-11.1-3.871-3.988-5.246-1.266-14.39-1.276-14.4v.005c.439-1.047 10.46-25.669-4.619-45.758-7.433-9.9-18.137-14.236-28.646-11.6a22.616 22.616 0 00-17.217 18.689 19.526 19.526 0 005.546 17.143 23.291 23.291 0 004.894 3.707c8.312 4.751 18.7 4.327 25.259-1.025 7.29-5.952 7.512-14.414 4.5-20.159a14.158 14.158 0 00-16.769-7.264c-8.1 2.338-10.319 8.03-9.7 12.578.685 5 4.62 8.952 8.965 8.993l.051-5.244c-1.705-.018-3.492-2.1-3.818-4.461-.426-3.124 1.745-5.613 5.959-6.829a8.937 8.937 0 0110.669 4.663c1.876 3.577 2.172 9.3-3.167 13.661-4.921 4.008-12.874 4.234-19.341.538-2.83-1.62-9.266-6.366-7.865-15.508a17.461 17.461 0 0113.311-14.4c8.4-2.1 17.055 1.5 23.18 9.66 13.251 17.664 4.065 40.365 3.89 40.815-.153.482-3.641 11.894 2 19.35 3.164 4.159 8.356 6.17 15.453 5.959z" class="prefix__cls-3" data-name="Path 5081" transform="translate(-691.68 -1233.62)"/></g><g transform="translate(1233.998 168.003)"><path id="prefix__Path_5082-2" d="M966.543 1503.924c-22.963-12.932-34.943 2.035-34.943 2.035-12.715 15.484-2.46 31.531 10.286 43.124s40.288 15.748 47.883-4.039c6.287-16.395-5.441-31.099-23.226-41.12zm18.339 46.01s-5.434-7.6-18.694-11.421-34.39-9.113-32.763-31.06c0 0 5.493 14.133 24.394 20.825s25.133 10.907 27.063 21.656z" class="prefix__cls-3" data-name="Path 5082" transform="translate(-780.38 -1302.97)"/></g><g transform="translate(1233.998 168.003)"><path id="prefix__Path_5083-2" d="M1004.588 1429.424c-7.547-30.644-30.427-28.821-30.427-28.821-23.944 1.594-29.537 23.712-29.2 44.339s19.3 48.074 42.8 38.468c19.454-7.954 22.675-30.249 16.827-53.986zm-30.473 28.054c-7.533-14.707-20.245-37.479.237-54.058 0 0-7.825 16.382 1.839 38.368s11.086 30.87 3.291 41.373c0 0 2.173-10.979-5.366-25.684z" class="prefix__cls-3" data-name="Path 5083" transform="translate(-774.63 -1332.36)"/></g><g transform="translate(1233.998 168.003)"><path id="prefix__Path_5084-2" d="M882.679 1556.851c16.909 4.226 34.169-2.818 46.17-18.841 24.648-32.909 8.165-73.266 7.532-74.74-.051-.163-5.037-16.5 2.247-26.119 3.841-5.066 10.6-7.5 20.083-7.224l.152-5.238c-11.292-.327-19.508 2.807-24.426 9.314-8.912 11.787-3.3 30.065-2.975 31.065.164.389 16.01 39.33-6.81 69.8-10.692 14.275-25.907 20.591-40.7 16.9-12.647-3.163-21.715-12.95-23.66-25.557-1.784-11.556 3.33-21.7 14.029-27.827 11.461-6.564 25.618-6.139 34.426 1.034 9.164 7.486 9.51 17.979 5.79 25.091-3.034 5.8-10.078 11.565-19.946 8.723-11.364-3.276-11.668-10.45-11.271-13.384.657-4.848 4.385-8.983 8.14-9.025l-.059-5.245c-6.427.073-12.257 6.033-13.278 13.567-.933 6.888 2.523 15.528 15.016 19.125 12.078 3.476 21.784-3.185 26.043-11.331 4.708-9 4.323-22.26-7.124-31.587-10.454-8.513-27.044-9.135-40.348-1.515-12.5 7.157-18.7 19.559-16.6 33.172a35.959 35.959 0 0010.091 20.084 37.355 37.355 0 0017.478 9.758z" class="prefix__cls-3" data-name="Path 5084" transform="translate(-801.68 -1325.14)"/></g><g transform="translate(1233.998 168.003)"><path id="prefix__Path_5085-2" d="M1013.757 1537.024a22.621 22.621 0 0018.686-17.216c2.634-10.51-1.71-21.219-11.6-28.649-20.095-15.081-44.721-5.051-45.528-4.7-.093.031-9.341 2.827-14.63-1.189-2.727-2.075-4.029-5.812-3.872-11.1l-5.242-.159c-.211 7.1 1.783 12.289 5.96 15.451 7.458 5.643 18.866 2.159 19.577 1.925.227-.1 22.865-9.325 40.585 3.971 8.157 6.128 11.766 14.788 9.662 23.178a17.464 17.464 0 01-14.4 13.313c-9.14 1.4-13.888-5.036-15.506-7.864-3.7-6.469-3.475-14.423.538-19.339 4.36-5.343 10.085-5.048 13.663-3.171a8.942 8.942 0 014.663 10.67c-1.219 4.214-3.711 6.385-6.833 5.959-2.36-.324-4.444-2.113-4.462-3.82l-5.242.051c.04 4.347 3.989 8.283 8.994 8.965 4.545.619 10.238-1.6 12.578-9.7a14.157 14.157 0 00-7.267-16.772c-5.746-3.013-14.208-2.791-20.159 4.5-5.353 6.563-5.775 16.948-1.028 25.258a23.162 23.162 0 003.711 4.9 19.536 19.536 0 0017.152 5.538z" class="prefix__cls-3" data-name="Path 5085" transform="translate(-772.65 -1310.36)"/></g><g transform="translate(1233.998 168.003)"><path id="prefix__Path_5086-2" d="M966.544 1793.156c17.784-10.02 29.514-24.725 23.227-41.122-7.6-19.788-35.132-15.639-47.883-4.037s-23 27.642-10.287 43.124c-.001 0 11.982 14.967 34.943 2.035zm-.357-34.591c13.262-3.82 18.694-11.422 18.694-11.422-1.929 10.752-8.15 14.97-27.059 21.657s-24.4 20.825-24.4 20.825c-1.622-21.944 19.509-27.233 32.766-31.059z" class="prefix__cls-3" data-name="Path 5086" transform="translate(-780.38 -1231.17)"/></g><g transform="translate(1233.998 168.003)"><path id="prefix__Path_5087-2" d="M987.759 1819.349c-23.5-9.606-42.459 17.833-42.792 38.47s5.251 42.746 29.193 44.339c0 0 22.882 1.823 30.43-28.822 5.846-23.736 2.627-46.036-16.831-53.987zm-13.641 25.934c7.538-14.7 5.366-25.68 5.366-25.68 7.8 10.5 6.382 19.385-3.291 41.372s-1.838 38.368-1.838 38.368c-20.485-16.579-7.773-39.355-.237-54.06z" class="prefix__cls-3" data-name="Path 5087" transform="translate(-774.63 -1207.45)"/></g><g transform="translate(1233.998 168.003)"><path id="prefix__Path_5088-2" d="M938.632 1876.81c-7.269-9.592-2.32-25.878-2.332-25.889.715-1.707 17.2-42.064-7.449-74.972-12-16.028-29.258-23.067-46.171-18.843-14.732 3.681-25.3 15.119-27.569 29.847a31.035 31.035 0 008.824 27.274 36.826 36.826 0 007.783 5.9c13.3 7.62 29.893 6.994 40.346-1.518 11.451-9.328 11.83-22.583 7.122-31.583-4.258-8.147-13.964-14.808-26.042-11.332-12.494 3.593-15.951 12.236-15.016 19.121 1.019 7.538 6.85 13.5 13.278 13.571l.059-5.242c-3.755-.045-7.486-4.179-8.143-9.031-.4-2.934-.093-10.107 11.273-13.381 9.868-2.839 16.918 2.926 19.945 8.723 3.718 7.113 3.372 17.628-5.789 25.091-8.808 7.175-22.966 7.6-34.426 1.036-10.694-6.126-15.813-16.269-14.031-27.828a31.01 31.01 0 0123.661-25.558c14.792-3.694 30.006 2.615 40.7 16.9 22.82 30.47 6.974 69.41 6.727 70.025-.24.77-5.852 19.053 3.056 30.84 4.91 6.506 13.137 9.639 24.428 9.314l-.15-5.244c-9.489.278-16.25-2.169-20.084-7.221z" class="prefix__cls-3" data-name="Path 5088" transform="translate(-801.68 -1225.87)"/></g><g transform="translate(1233.998 168.003)"><path id="prefix__Path_5089-2" d="M1020.843 1806.633c9.9-7.43 14.236-18.139 11.6-28.648a22.625 22.625 0 00-18.684-17.215c-8.573-1.314-16.368 2.593-20.855 10.444-4.749 8.308-4.326 18.694 1.026 25.257 5.952 7.281 14.415 7.51 20.16 4.5a14.157 14.157 0 007.267-16.772c-2.341-8.094-8.037-10.319-12.581-9.7-5 .682-8.952 4.622-8.994 8.963l5.243.054c.018-1.713 2.1-3.5 4.461-3.82 3.124-.432 5.613 1.74 6.835 5.958a8.946 8.946 0 01-4.666 10.67c-3.576 1.878-9.311 2.162-13.659-3.17-4.016-4.919-4.236-12.872-.541-19.34 1.62-2.829 6.368-9.263 15.509-7.863a17.449 17.449 0 0114.393 13.312c2.107 8.392-1.5 17.057-9.662 23.176-17.658 13.251-40.36 4.065-40.812 3.89-.482-.151-11.892-3.64-19.35 2.009-4.167 3.155-6.172 8.354-5.959 15.452l5.24-.159c-.157-5.294 1.144-9.03 3.873-11.1 5.253-4 14.42-1.258 14.4-1.276 1.049.435 25.667 10.456 45.756-4.622z" class="prefix__cls-3" data-name="Path 5089" transform="translate(-772.65 -1224.49)"/></g><g transform="translate(1233.998 168.003)"><path id="prefix__Path_5090-2" d="M1252.357 1470.364c-15.48-12.718-31.529-2.458-43.123 10.286s-15.751 40.287 4.039 47.881c16.4 6.289 31.1-5.438 41.121-23.225 12.931-22.962-2.037-34.942-2.037-34.942zm-43.975 53.282s7.606-5.435 11.421-18.694 9.116-34.389 31.065-32.766c0 0-14.134 5.5-20.826 24.4s-10.909 25.128-21.661 27.06z" class="prefix__cls-3" data-name="Path 5090" transform="translate(-698.35 -1313.19)"/></g><g transform="translate(1233.998 168.003)"><path id="prefix__Path_5091-2" d="M1280.585 1526.52c7.953 19.46 30.25 22.68 53.987 16.835 30.645-7.551 28.823-30.431 28.823-30.431-1.595-23.944-23.712-29.536-44.339-29.2s-48.073 19.3-38.471 42.796zm25.934-13.639c14.706-7.54 37.481-20.247 54.061.237 0 0-16.384-7.827-38.369 1.837s-30.871 11.084-41.371 3.292c0-.001 10.975 2.172 25.679-5.366z" class="prefix__cls-3" data-name="Path 5091" transform="translate(-674.64 -1307.45)"/></g><g transform="translate(1233.998 168.003)"><path id="prefix__Path_5092-2" d="M1230.849 1462.133a59.018 59.018 0 006.339 5.48c32.909 24.645 73.266 8.163 74.74 7.531.162-.048 16.5-5.036 26.12 2.251 5.058 3.845 7.5 10.59 7.225 20.08l5.238.15c.331-11.287-2.8-19.509-9.314-24.424-11.788-8.912-30.071-3.3-31.068-2.975-.39.164-39.265 16.055-69.8-6.81-14.271-10.686-20.591-25.908-16.9-40.7 3.16-12.65 12.951-21.716 25.554-23.658 11.56-1.784 21.7 3.331 27.828 14.028 6.566 11.461 6.139 25.618-1.033 34.429-7.466 9.161-17.981 9.505-25.092 5.79-5.792-3.033-11.558-10.076-8.724-19.947 3.277-11.363 10.447-11.667 13.382-11.271 4.851.654 8.99 4.384 9.031 8.143l5.242-.057c-.073-6.43-6.032-12.264-13.572-13.283-6.885-.93-15.525 2.523-19.12 15.018-3.475 12.08 3.186 21.786 11.332 26.044 9 4.7 22.255 4.327 31.587-7.125 8.509-10.453 9.133-27.044 1.517-40.345-7.154-12.5-19.559-18.705-33.177-16.609-14.73 2.275-26.165 12.841-29.842 27.572-3.613 14.48 1.033 29.218 12.507 40.688z" class="prefix__cls-3" data-name="Path 5092" transform="translate(-693.06 -1334.49)"/></g><g transform="translate(1233.998 168.003)"><path id="prefix__Path_5093-2" d="M1244.7 1538.545c-4.341.043-8.28 3.992-8.96 8.994-.622 4.547 1.6 10.241 9.7 12.579a14.149 14.149 0 0016.768-7.265 16 16 0 00-4.5-20.161c-6.562-5.35-16.945-5.774-25.255-1.025-7.853 4.488-11.759 12.285-10.446 20.858a22.494 22.494 0 006.315 12.586 23.408 23.408 0 0010.9 6.1c10.507 2.636 21.217-1.7 28.647-11.6 15.079-20.1 5.051-44.718 4.7-45.524-.027-.1-2.824-9.345 1.193-14.63 2.072-2.728 5.81-4.033 11.1-3.873l.157-5.241c-7.094-.211-12.294 1.794-15.447 5.96-5.653 7.455-2.162 18.868-1.93 19.575.094.229 9.327 22.868-3.971 40.587-6.12 8.157-14.785 11.769-23.18 9.661a17.459 17.459 0 01-13.309-14.394c-1.4-9.142 5.037-13.89 7.863-15.51 6.467-3.694 14.423-3.473 19.34.539 5.362 4.363 5.048 10.085 3.171 13.663a8.944 8.944 0 01-10.67 4.662c-4.216-1.22-6.388-3.712-5.958-6.831.323-2.36 2.1-4.444 3.817-4.459z" class="prefix__cls-3" data-name="Path 5093" transform="translate(-691.68 -1305.47)"/></g></g></g></svg>